G04 #@! TF.GenerationSoftware,KiCad,Pcbnew,(5.1.2-1)-1*
G04 #@! TF.CreationDate,2021-12-03T18:04:06-05:00*
G04 #@! TF.ProjectId,TMP76C75T,544d5037-3643-4373-9554-2e6b69636164,rev?*
G04 #@! TF.SameCoordinates,Original*
G04 #@! TF.FileFunction,Copper,L1,Top*
G04 #@! TF.FilePolarity,Positive*
%FSLAX46Y46*%
G04 Gerber Fmt 4.6, Leading zero omitted, Abs format (unit mm)*
G04 Created by KiCad (PCBNEW (5.1.2-1)-1) date 2021-12-03 18:04:06*
%MOMM*%
%LPD*%
G04 APERTURE LIST*
%ADD10C,1.422400*%
%ADD11R,1.422400X1.422400*%
%ADD12O,1.700000X1.700000*%
%ADD13R,1.700000X1.700000*%
%ADD14O,1.800000X1.800000*%
%ADD15R,1.800000X1.800000*%
%ADD16C,1.600000*%
%ADD17R,1.600000X1.600000*%
%ADD18C,0.100000*%
%ADD19C,3.025000*%
%ADD20C,1.250000*%
%ADD21O,2.000000X3.500000*%
%ADD22O,3.300000X2.000000*%
%ADD23R,4.000000X2.000000*%
%ADD24O,2.000000X1.905000*%
%ADD25R,2.000000X1.905000*%
%ADD26O,1.600000X1.600000*%
%ADD27C,2.000000*%
%ADD28C,1.500000*%
%ADD29C,2.250000*%
%ADD30C,2.050000*%
%ADD31C,0.800000*%
%ADD32C,0.250000*%
%ADD33C,1.000000*%
%ADD34C,0.700000*%
%ADD35C,0.500000*%
%ADD36C,0.254000*%
G04 APERTURE END LIST*
D10*
X184150000Y-72390000D03*
X184150000Y-74930000D03*
X184150000Y-77470000D03*
X184150000Y-80010000D03*
X184150000Y-82550000D03*
X181610000Y-69850000D03*
X181610000Y-74930000D03*
X181610000Y-77470000D03*
X181610000Y-80010000D03*
X181610000Y-82550000D03*
X181610000Y-85090000D03*
X181610000Y-87630000D03*
X179070000Y-87630000D03*
X176530000Y-87630000D03*
X173990000Y-87630000D03*
X171450000Y-87630000D03*
X168910000Y-87630000D03*
X184150000Y-85090000D03*
X179070000Y-85090000D03*
X176530000Y-85090000D03*
X173990000Y-85090000D03*
X171450000Y-85090000D03*
X168910000Y-85090000D03*
X166370000Y-85090000D03*
X166370000Y-82550000D03*
X166370000Y-80010000D03*
X166370000Y-77470000D03*
X166370000Y-74930000D03*
X166370000Y-72390000D03*
X168910000Y-82550000D03*
X168910000Y-80010000D03*
X168910000Y-77470000D03*
X168910000Y-74930000D03*
X168910000Y-72390000D03*
X179070000Y-69850000D03*
X176530000Y-69850000D03*
X168910000Y-69850000D03*
X171450000Y-69850000D03*
X173990000Y-69850000D03*
X181610000Y-72390000D03*
X179070000Y-72390000D03*
X171450000Y-72390000D03*
X173990000Y-72390000D03*
D11*
X176530000Y-72390000D03*
D12*
X171450000Y-57150000D03*
X168910000Y-57150000D03*
X166370000Y-57150000D03*
X163830000Y-57150000D03*
X161290000Y-57150000D03*
X158750000Y-57150000D03*
X156210000Y-57150000D03*
D13*
X153670000Y-57150000D03*
D10*
X145075199Y-100300000D03*
X145075199Y-102840000D03*
X145075199Y-105380000D03*
X145075199Y-107920000D03*
X145075199Y-110460000D03*
X145075199Y-113000000D03*
X145075199Y-115540000D03*
X145075199Y-118080000D03*
X142535199Y-97760000D03*
X142535199Y-102840000D03*
X142535199Y-105380000D03*
X142535199Y-107920000D03*
X142535199Y-110460000D03*
X142535199Y-113000000D03*
X142535199Y-115540000D03*
X142535199Y-118080000D03*
X142535199Y-120620000D03*
X142535199Y-123160000D03*
X139995199Y-123160000D03*
X137455199Y-123160000D03*
X134915199Y-123160000D03*
X132375199Y-123160000D03*
X129835199Y-123160000D03*
X127295199Y-123160000D03*
X124755199Y-123160000D03*
X122215199Y-123160000D03*
X145075199Y-120620000D03*
X139995199Y-120620000D03*
X137455199Y-120620000D03*
X134915199Y-120620000D03*
X132375199Y-120620000D03*
X129835199Y-120620000D03*
X127295199Y-120620000D03*
X124755199Y-120620000D03*
X122215199Y-120620000D03*
X119675199Y-120620000D03*
X119675199Y-118080000D03*
X119675199Y-115540000D03*
X119675199Y-113000000D03*
X119675199Y-110460000D03*
X119675199Y-107920000D03*
X119675199Y-105380000D03*
X119675199Y-102840000D03*
X119675199Y-100300000D03*
X122215199Y-118080000D03*
X122215199Y-115540000D03*
X122215199Y-113000000D03*
X122215199Y-110460000D03*
X122215199Y-107920000D03*
X122215199Y-105380000D03*
X122215199Y-102840000D03*
X122215199Y-100300000D03*
X139995199Y-97760000D03*
X137455199Y-97760000D03*
X134915199Y-97760000D03*
X122215199Y-97760000D03*
X124755199Y-97760000D03*
X127295199Y-97760000D03*
X129835199Y-97760000D03*
D11*
X132375199Y-97760000D03*
D10*
X142535199Y-100300000D03*
X139995199Y-100300000D03*
X137455199Y-100300000D03*
X134915199Y-100300000D03*
X124755199Y-100300000D03*
X127295199Y-100300000D03*
X129835199Y-100300000D03*
X132375199Y-100300000D03*
D14*
X99060000Y-107950000D03*
D15*
X88900000Y-107950000D03*
D16*
X92710000Y-121880000D03*
D17*
X92710000Y-119380000D03*
D16*
X175300000Y-109220000D03*
D17*
X177800000Y-109220000D03*
D18*
G36*
X180329503Y-114616204D02*
G01*
X180353772Y-114619804D01*
X180377570Y-114625765D01*
X180400670Y-114634030D01*
X180422849Y-114644520D01*
X180443892Y-114657133D01*
X180463598Y-114671748D01*
X180481776Y-114688224D01*
X180498252Y-114706402D01*
X180512867Y-114726108D01*
X180525480Y-114747151D01*
X180535970Y-114769330D01*
X180544235Y-114792430D01*
X180550196Y-114816228D01*
X180553796Y-114840497D01*
X180555000Y-114865001D01*
X180555000Y-118814999D01*
X180553796Y-118839503D01*
X180550196Y-118863772D01*
X180544235Y-118887570D01*
X180535970Y-118910670D01*
X180525480Y-118932849D01*
X180512867Y-118953892D01*
X180498252Y-118973598D01*
X180481776Y-118991776D01*
X180463598Y-119008252D01*
X180443892Y-119022867D01*
X180422849Y-119035480D01*
X180400670Y-119045970D01*
X180377570Y-119054235D01*
X180353772Y-119060196D01*
X180329503Y-119063796D01*
X180304999Y-119065000D01*
X177780001Y-119065000D01*
X177755497Y-119063796D01*
X177731228Y-119060196D01*
X177707430Y-119054235D01*
X177684330Y-119045970D01*
X177662151Y-119035480D01*
X177641108Y-119022867D01*
X177621402Y-119008252D01*
X177603224Y-118991776D01*
X177586748Y-118973598D01*
X177572133Y-118953892D01*
X177559520Y-118932849D01*
X177549030Y-118910670D01*
X177540765Y-118887570D01*
X177534804Y-118863772D01*
X177531204Y-118839503D01*
X177530000Y-118814999D01*
X177530000Y-114865001D01*
X177531204Y-114840497D01*
X177534804Y-114816228D01*
X177540765Y-114792430D01*
X177549030Y-114769330D01*
X177559520Y-114747151D01*
X177572133Y-114726108D01*
X177586748Y-114706402D01*
X177603224Y-114688224D01*
X177621402Y-114671748D01*
X177641108Y-114657133D01*
X177662151Y-114644520D01*
X177684330Y-114634030D01*
X177707430Y-114625765D01*
X177731228Y-114619804D01*
X177755497Y-114616204D01*
X177780001Y-114615000D01*
X180304999Y-114615000D01*
X180329503Y-114616204D01*
X180329503Y-114616204D01*
G37*
D19*
X179042500Y-116840000D03*
D18*
G36*
X175304503Y-114616204D02*
G01*
X175328772Y-114619804D01*
X175352570Y-114625765D01*
X175375670Y-114634030D01*
X175397849Y-114644520D01*
X175418892Y-114657133D01*
X175438598Y-114671748D01*
X175456776Y-114688224D01*
X175473252Y-114706402D01*
X175487867Y-114726108D01*
X175500480Y-114747151D01*
X175510970Y-114769330D01*
X175519235Y-114792430D01*
X175525196Y-114816228D01*
X175528796Y-114840497D01*
X175530000Y-114865001D01*
X175530000Y-118814999D01*
X175528796Y-118839503D01*
X175525196Y-118863772D01*
X175519235Y-118887570D01*
X175510970Y-118910670D01*
X175500480Y-118932849D01*
X175487867Y-118953892D01*
X175473252Y-118973598D01*
X175456776Y-118991776D01*
X175438598Y-119008252D01*
X175418892Y-119022867D01*
X175397849Y-119035480D01*
X175375670Y-119045970D01*
X175352570Y-119054235D01*
X175328772Y-119060196D01*
X175304503Y-119063796D01*
X175279999Y-119065000D01*
X172755001Y-119065000D01*
X172730497Y-119063796D01*
X172706228Y-119060196D01*
X172682430Y-119054235D01*
X172659330Y-119045970D01*
X172637151Y-119035480D01*
X172616108Y-119022867D01*
X172596402Y-119008252D01*
X172578224Y-118991776D01*
X172561748Y-118973598D01*
X172547133Y-118953892D01*
X172534520Y-118932849D01*
X172524030Y-118910670D01*
X172515765Y-118887570D01*
X172509804Y-118863772D01*
X172506204Y-118839503D01*
X172505000Y-118814999D01*
X172505000Y-114865001D01*
X172506204Y-114840497D01*
X172509804Y-114816228D01*
X172515765Y-114792430D01*
X172524030Y-114769330D01*
X172534520Y-114747151D01*
X172547133Y-114726108D01*
X172561748Y-114706402D01*
X172578224Y-114688224D01*
X172596402Y-114671748D01*
X172616108Y-114657133D01*
X172637151Y-114644520D01*
X172659330Y-114634030D01*
X172682430Y-114625765D01*
X172706228Y-114619804D01*
X172730497Y-114616204D01*
X172755001Y-114615000D01*
X175279999Y-114615000D01*
X175304503Y-114616204D01*
X175304503Y-114616204D01*
G37*
D19*
X174017500Y-116840000D03*
D18*
G36*
X146579504Y-140096204D02*
G01*
X146603773Y-140099804D01*
X146627571Y-140105765D01*
X146650671Y-140114030D01*
X146672849Y-140124520D01*
X146693893Y-140137133D01*
X146713598Y-140151747D01*
X146731777Y-140168223D01*
X146748253Y-140186402D01*
X146762867Y-140206107D01*
X146775480Y-140227151D01*
X146785970Y-140249329D01*
X146794235Y-140272429D01*
X146800196Y-140296227D01*
X146803796Y-140320496D01*
X146805000Y-140345000D01*
X146805000Y-141595000D01*
X146803796Y-141619504D01*
X146800196Y-141643773D01*
X146794235Y-141667571D01*
X146785970Y-141690671D01*
X146775480Y-141712849D01*
X146762867Y-141733893D01*
X146748253Y-141753598D01*
X146731777Y-141771777D01*
X146713598Y-141788253D01*
X146693893Y-141802867D01*
X146672849Y-141815480D01*
X146650671Y-141825970D01*
X146627571Y-141834235D01*
X146603773Y-141840196D01*
X146579504Y-141843796D01*
X146555000Y-141845000D01*
X145805000Y-141845000D01*
X145780496Y-141843796D01*
X145756227Y-141840196D01*
X145732429Y-141834235D01*
X145709329Y-141825970D01*
X145687151Y-141815480D01*
X145666107Y-141802867D01*
X145646402Y-141788253D01*
X145628223Y-141771777D01*
X145611747Y-141753598D01*
X145597133Y-141733893D01*
X145584520Y-141712849D01*
X145574030Y-141690671D01*
X145565765Y-141667571D01*
X145559804Y-141643773D01*
X145556204Y-141619504D01*
X145555000Y-141595000D01*
X145555000Y-140345000D01*
X145556204Y-140320496D01*
X145559804Y-140296227D01*
X145565765Y-140272429D01*
X145574030Y-140249329D01*
X145584520Y-140227151D01*
X145597133Y-140206107D01*
X145611747Y-140186402D01*
X145628223Y-140168223D01*
X145646402Y-140151747D01*
X145666107Y-140137133D01*
X145687151Y-140124520D01*
X145709329Y-140114030D01*
X145732429Y-140105765D01*
X145756227Y-140099804D01*
X145780496Y-140096204D01*
X145805000Y-140095000D01*
X146555000Y-140095000D01*
X146579504Y-140096204D01*
X146579504Y-140096204D01*
G37*
D20*
X146180000Y-140970000D03*
D18*
G36*
X143779504Y-140096204D02*
G01*
X143803773Y-140099804D01*
X143827571Y-140105765D01*
X143850671Y-140114030D01*
X143872849Y-140124520D01*
X143893893Y-140137133D01*
X143913598Y-140151747D01*
X143931777Y-140168223D01*
X143948253Y-140186402D01*
X143962867Y-140206107D01*
X143975480Y-140227151D01*
X143985970Y-140249329D01*
X143994235Y-140272429D01*
X144000196Y-140296227D01*
X144003796Y-140320496D01*
X144005000Y-140345000D01*
X144005000Y-141595000D01*
X144003796Y-141619504D01*
X144000196Y-141643773D01*
X143994235Y-141667571D01*
X143985970Y-141690671D01*
X143975480Y-141712849D01*
X143962867Y-141733893D01*
X143948253Y-141753598D01*
X143931777Y-141771777D01*
X143913598Y-141788253D01*
X143893893Y-141802867D01*
X143872849Y-141815480D01*
X143850671Y-141825970D01*
X143827571Y-141834235D01*
X143803773Y-141840196D01*
X143779504Y-141843796D01*
X143755000Y-141845000D01*
X143005000Y-141845000D01*
X142980496Y-141843796D01*
X142956227Y-141840196D01*
X142932429Y-141834235D01*
X142909329Y-141825970D01*
X142887151Y-141815480D01*
X142866107Y-141802867D01*
X142846402Y-141788253D01*
X142828223Y-141771777D01*
X142811747Y-141753598D01*
X142797133Y-141733893D01*
X142784520Y-141712849D01*
X142774030Y-141690671D01*
X142765765Y-141667571D01*
X142759804Y-141643773D01*
X142756204Y-141619504D01*
X142755000Y-141595000D01*
X142755000Y-140345000D01*
X142756204Y-140320496D01*
X142759804Y-140296227D01*
X142765765Y-140272429D01*
X142774030Y-140249329D01*
X142784520Y-140227151D01*
X142797133Y-140206107D01*
X142811747Y-140186402D01*
X142828223Y-140168223D01*
X142846402Y-140151747D01*
X142866107Y-140137133D01*
X142887151Y-140124520D01*
X142909329Y-140114030D01*
X142932429Y-140105765D01*
X142956227Y-140099804D01*
X142980496Y-140096204D01*
X143005000Y-140095000D01*
X143755000Y-140095000D01*
X143779504Y-140096204D01*
X143779504Y-140096204D01*
G37*
D20*
X143380000Y-140970000D03*
D18*
G36*
X159399504Y-141616204D02*
G01*
X159423773Y-141619804D01*
X159447571Y-141625765D01*
X159470671Y-141634030D01*
X159492849Y-141644520D01*
X159513893Y-141657133D01*
X159533598Y-141671747D01*
X159551777Y-141688223D01*
X159568253Y-141706402D01*
X159582867Y-141726107D01*
X159595480Y-141747151D01*
X159605970Y-141769329D01*
X159614235Y-141792429D01*
X159620196Y-141816227D01*
X159623796Y-141840496D01*
X159625000Y-141865000D01*
X159625000Y-142615000D01*
X159623796Y-142639504D01*
X159620196Y-142663773D01*
X159614235Y-142687571D01*
X159605970Y-142710671D01*
X159595480Y-142732849D01*
X159582867Y-142753893D01*
X159568253Y-142773598D01*
X159551777Y-142791777D01*
X159533598Y-142808253D01*
X159513893Y-142822867D01*
X159492849Y-142835480D01*
X159470671Y-142845970D01*
X159447571Y-142854235D01*
X159423773Y-142860196D01*
X159399504Y-142863796D01*
X159375000Y-142865000D01*
X158125000Y-142865000D01*
X158100496Y-142863796D01*
X158076227Y-142860196D01*
X158052429Y-142854235D01*
X158029329Y-142845970D01*
X158007151Y-142835480D01*
X157986107Y-142822867D01*
X157966402Y-142808253D01*
X157948223Y-142791777D01*
X157931747Y-142773598D01*
X157917133Y-142753893D01*
X157904520Y-142732849D01*
X157894030Y-142710671D01*
X157885765Y-142687571D01*
X157879804Y-142663773D01*
X157876204Y-142639504D01*
X157875000Y-142615000D01*
X157875000Y-141865000D01*
X157876204Y-141840496D01*
X157879804Y-141816227D01*
X157885765Y-141792429D01*
X157894030Y-141769329D01*
X157904520Y-141747151D01*
X157917133Y-141726107D01*
X157931747Y-141706402D01*
X157948223Y-141688223D01*
X157966402Y-141671747D01*
X157986107Y-141657133D01*
X158007151Y-141644520D01*
X158029329Y-141634030D01*
X158052429Y-141625765D01*
X158076227Y-141619804D01*
X158100496Y-141616204D01*
X158125000Y-141615000D01*
X159375000Y-141615000D01*
X159399504Y-141616204D01*
X159399504Y-141616204D01*
G37*
D20*
X158750000Y-142240000D03*
D18*
G36*
X159399504Y-138816204D02*
G01*
X159423773Y-138819804D01*
X159447571Y-138825765D01*
X159470671Y-138834030D01*
X159492849Y-138844520D01*
X159513893Y-138857133D01*
X159533598Y-138871747D01*
X159551777Y-138888223D01*
X159568253Y-138906402D01*
X159582867Y-138926107D01*
X159595480Y-138947151D01*
X159605970Y-138969329D01*
X159614235Y-138992429D01*
X159620196Y-139016227D01*
X159623796Y-139040496D01*
X159625000Y-139065000D01*
X159625000Y-139815000D01*
X159623796Y-139839504D01*
X159620196Y-139863773D01*
X159614235Y-139887571D01*
X159605970Y-139910671D01*
X159595480Y-139932849D01*
X159582867Y-139953893D01*
X159568253Y-139973598D01*
X159551777Y-139991777D01*
X159533598Y-140008253D01*
X159513893Y-140022867D01*
X159492849Y-140035480D01*
X159470671Y-140045970D01*
X159447571Y-140054235D01*
X159423773Y-140060196D01*
X159399504Y-140063796D01*
X159375000Y-140065000D01*
X158125000Y-140065000D01*
X158100496Y-140063796D01*
X158076227Y-140060196D01*
X158052429Y-140054235D01*
X158029329Y-140045970D01*
X158007151Y-140035480D01*
X157986107Y-140022867D01*
X157966402Y-140008253D01*
X157948223Y-139991777D01*
X157931747Y-139973598D01*
X157917133Y-139953893D01*
X157904520Y-139932849D01*
X157894030Y-139910671D01*
X157885765Y-139887571D01*
X157879804Y-139863773D01*
X157876204Y-139839504D01*
X157875000Y-139815000D01*
X157875000Y-139065000D01*
X157876204Y-139040496D01*
X157879804Y-139016227D01*
X157885765Y-138992429D01*
X157894030Y-138969329D01*
X157904520Y-138947151D01*
X157917133Y-138926107D01*
X157931747Y-138906402D01*
X157948223Y-138888223D01*
X157966402Y-138871747D01*
X157986107Y-138857133D01*
X158007151Y-138844520D01*
X158029329Y-138834030D01*
X158052429Y-138825765D01*
X158076227Y-138819804D01*
X158100496Y-138816204D01*
X158125000Y-138815000D01*
X159375000Y-138815000D01*
X159399504Y-138816204D01*
X159399504Y-138816204D01*
G37*
D20*
X158750000Y-139440000D03*
D21*
X172140000Y-137810000D03*
X163140000Y-137810000D03*
D22*
X167640000Y-136810000D03*
D23*
X167640000Y-130810000D03*
D12*
X162560000Y-113030000D03*
D13*
X162560000Y-115570000D03*
D24*
X170180000Y-113030000D03*
X170180000Y-115570000D03*
D25*
X170180000Y-118110000D03*
D18*
G36*
X170839504Y-123586204D02*
G01*
X170863773Y-123589804D01*
X170887571Y-123595765D01*
X170910671Y-123604030D01*
X170932849Y-123614520D01*
X170953893Y-123627133D01*
X170973598Y-123641747D01*
X170991777Y-123658223D01*
X171008253Y-123676402D01*
X171022867Y-123696107D01*
X171035480Y-123717151D01*
X171045970Y-123739329D01*
X171054235Y-123762429D01*
X171060196Y-123786227D01*
X171063796Y-123810496D01*
X171065000Y-123835000D01*
X171065000Y-125085000D01*
X171063796Y-125109504D01*
X171060196Y-125133773D01*
X171054235Y-125157571D01*
X171045970Y-125180671D01*
X171035480Y-125202849D01*
X171022867Y-125223893D01*
X171008253Y-125243598D01*
X170991777Y-125261777D01*
X170973598Y-125278253D01*
X170953893Y-125292867D01*
X170932849Y-125305480D01*
X170910671Y-125315970D01*
X170887571Y-125324235D01*
X170863773Y-125330196D01*
X170839504Y-125333796D01*
X170815000Y-125335000D01*
X170065000Y-125335000D01*
X170040496Y-125333796D01*
X170016227Y-125330196D01*
X169992429Y-125324235D01*
X169969329Y-125315970D01*
X169947151Y-125305480D01*
X169926107Y-125292867D01*
X169906402Y-125278253D01*
X169888223Y-125261777D01*
X169871747Y-125243598D01*
X169857133Y-125223893D01*
X169844520Y-125202849D01*
X169834030Y-125180671D01*
X169825765Y-125157571D01*
X169819804Y-125133773D01*
X169816204Y-125109504D01*
X169815000Y-125085000D01*
X169815000Y-123835000D01*
X169816204Y-123810496D01*
X169819804Y-123786227D01*
X169825765Y-123762429D01*
X169834030Y-123739329D01*
X169844520Y-123717151D01*
X169857133Y-123696107D01*
X169871747Y-123676402D01*
X169888223Y-123658223D01*
X169906402Y-123641747D01*
X169926107Y-123627133D01*
X169947151Y-123614520D01*
X169969329Y-123604030D01*
X169992429Y-123595765D01*
X170016227Y-123589804D01*
X170040496Y-123586204D01*
X170065000Y-123585000D01*
X170815000Y-123585000D01*
X170839504Y-123586204D01*
X170839504Y-123586204D01*
G37*
D20*
X170440000Y-124460000D03*
D18*
G36*
X168039504Y-123586204D02*
G01*
X168063773Y-123589804D01*
X168087571Y-123595765D01*
X168110671Y-123604030D01*
X168132849Y-123614520D01*
X168153893Y-123627133D01*
X168173598Y-123641747D01*
X168191777Y-123658223D01*
X168208253Y-123676402D01*
X168222867Y-123696107D01*
X168235480Y-123717151D01*
X168245970Y-123739329D01*
X168254235Y-123762429D01*
X168260196Y-123786227D01*
X168263796Y-123810496D01*
X168265000Y-123835000D01*
X168265000Y-125085000D01*
X168263796Y-125109504D01*
X168260196Y-125133773D01*
X168254235Y-125157571D01*
X168245970Y-125180671D01*
X168235480Y-125202849D01*
X168222867Y-125223893D01*
X168208253Y-125243598D01*
X168191777Y-125261777D01*
X168173598Y-125278253D01*
X168153893Y-125292867D01*
X168132849Y-125305480D01*
X168110671Y-125315970D01*
X168087571Y-125324235D01*
X168063773Y-125330196D01*
X168039504Y-125333796D01*
X168015000Y-125335000D01*
X167265000Y-125335000D01*
X167240496Y-125333796D01*
X167216227Y-125330196D01*
X167192429Y-125324235D01*
X167169329Y-125315970D01*
X167147151Y-125305480D01*
X167126107Y-125292867D01*
X167106402Y-125278253D01*
X167088223Y-125261777D01*
X167071747Y-125243598D01*
X167057133Y-125223893D01*
X167044520Y-125202849D01*
X167034030Y-125180671D01*
X167025765Y-125157571D01*
X167019804Y-125133773D01*
X167016204Y-125109504D01*
X167015000Y-125085000D01*
X167015000Y-123835000D01*
X167016204Y-123810496D01*
X167019804Y-123786227D01*
X167025765Y-123762429D01*
X167034030Y-123739329D01*
X167044520Y-123717151D01*
X167057133Y-123696107D01*
X167071747Y-123676402D01*
X167088223Y-123658223D01*
X167106402Y-123641747D01*
X167126107Y-123627133D01*
X167147151Y-123614520D01*
X167169329Y-123604030D01*
X167192429Y-123595765D01*
X167216227Y-123589804D01*
X167240496Y-123586204D01*
X167265000Y-123585000D01*
X168015000Y-123585000D01*
X168039504Y-123586204D01*
X168039504Y-123586204D01*
G37*
D20*
X167640000Y-124460000D03*
D12*
X151130000Y-138430000D03*
D13*
X153670000Y-138430000D03*
D26*
X92710000Y-101600000D03*
X100330000Y-96520000D03*
X92710000Y-99060000D03*
X100330000Y-99060000D03*
X92710000Y-96520000D03*
D17*
X100330000Y-101600000D03*
D14*
X99060000Y-115570000D03*
D15*
X88900000Y-115570000D03*
D14*
X99060000Y-111760000D03*
D15*
X88900000Y-111760000D03*
D18*
G36*
X94629504Y-141616204D02*
G01*
X94653773Y-141619804D01*
X94677571Y-141625765D01*
X94700671Y-141634030D01*
X94722849Y-141644520D01*
X94743893Y-141657133D01*
X94763598Y-141671747D01*
X94781777Y-141688223D01*
X94798253Y-141706402D01*
X94812867Y-141726107D01*
X94825480Y-141747151D01*
X94835970Y-141769329D01*
X94844235Y-141792429D01*
X94850196Y-141816227D01*
X94853796Y-141840496D01*
X94855000Y-141865000D01*
X94855000Y-142615000D01*
X94853796Y-142639504D01*
X94850196Y-142663773D01*
X94844235Y-142687571D01*
X94835970Y-142710671D01*
X94825480Y-142732849D01*
X94812867Y-142753893D01*
X94798253Y-142773598D01*
X94781777Y-142791777D01*
X94763598Y-142808253D01*
X94743893Y-142822867D01*
X94722849Y-142835480D01*
X94700671Y-142845970D01*
X94677571Y-142854235D01*
X94653773Y-142860196D01*
X94629504Y-142863796D01*
X94605000Y-142865000D01*
X93355000Y-142865000D01*
X93330496Y-142863796D01*
X93306227Y-142860196D01*
X93282429Y-142854235D01*
X93259329Y-142845970D01*
X93237151Y-142835480D01*
X93216107Y-142822867D01*
X93196402Y-142808253D01*
X93178223Y-142791777D01*
X93161747Y-142773598D01*
X93147133Y-142753893D01*
X93134520Y-142732849D01*
X93124030Y-142710671D01*
X93115765Y-142687571D01*
X93109804Y-142663773D01*
X93106204Y-142639504D01*
X93105000Y-142615000D01*
X93105000Y-141865000D01*
X93106204Y-141840496D01*
X93109804Y-141816227D01*
X93115765Y-141792429D01*
X93124030Y-141769329D01*
X93134520Y-141747151D01*
X93147133Y-141726107D01*
X93161747Y-141706402D01*
X93178223Y-141688223D01*
X93196402Y-141671747D01*
X93216107Y-141657133D01*
X93237151Y-141644520D01*
X93259329Y-141634030D01*
X93282429Y-141625765D01*
X93306227Y-141619804D01*
X93330496Y-141616204D01*
X93355000Y-141615000D01*
X94605000Y-141615000D01*
X94629504Y-141616204D01*
X94629504Y-141616204D01*
G37*
D20*
X93980000Y-142240000D03*
D18*
G36*
X94629504Y-138816204D02*
G01*
X94653773Y-138819804D01*
X94677571Y-138825765D01*
X94700671Y-138834030D01*
X94722849Y-138844520D01*
X94743893Y-138857133D01*
X94763598Y-138871747D01*
X94781777Y-138888223D01*
X94798253Y-138906402D01*
X94812867Y-138926107D01*
X94825480Y-138947151D01*
X94835970Y-138969329D01*
X94844235Y-138992429D01*
X94850196Y-139016227D01*
X94853796Y-139040496D01*
X94855000Y-139065000D01*
X94855000Y-139815000D01*
X94853796Y-139839504D01*
X94850196Y-139863773D01*
X94844235Y-139887571D01*
X94835970Y-139910671D01*
X94825480Y-139932849D01*
X94812867Y-139953893D01*
X94798253Y-139973598D01*
X94781777Y-139991777D01*
X94763598Y-140008253D01*
X94743893Y-140022867D01*
X94722849Y-140035480D01*
X94700671Y-140045970D01*
X94677571Y-140054235D01*
X94653773Y-140060196D01*
X94629504Y-140063796D01*
X94605000Y-140065000D01*
X93355000Y-140065000D01*
X93330496Y-140063796D01*
X93306227Y-140060196D01*
X93282429Y-140054235D01*
X93259329Y-140045970D01*
X93237151Y-140035480D01*
X93216107Y-140022867D01*
X93196402Y-140008253D01*
X93178223Y-139991777D01*
X93161747Y-139973598D01*
X93147133Y-139953893D01*
X93134520Y-139932849D01*
X93124030Y-139910671D01*
X93115765Y-139887571D01*
X93109804Y-139863773D01*
X93106204Y-139839504D01*
X93105000Y-139815000D01*
X93105000Y-139065000D01*
X93106204Y-139040496D01*
X93109804Y-139016227D01*
X93115765Y-138992429D01*
X93124030Y-138969329D01*
X93134520Y-138947151D01*
X93147133Y-138926107D01*
X93161747Y-138906402D01*
X93178223Y-138888223D01*
X93196402Y-138871747D01*
X93216107Y-138857133D01*
X93237151Y-138844520D01*
X93259329Y-138834030D01*
X93282429Y-138825765D01*
X93306227Y-138819804D01*
X93330496Y-138816204D01*
X93355000Y-138815000D01*
X94605000Y-138815000D01*
X94629504Y-138816204D01*
X94629504Y-138816204D01*
G37*
D20*
X93980000Y-139440000D03*
D18*
G36*
X85489504Y-98186204D02*
G01*
X85513773Y-98189804D01*
X85537571Y-98195765D01*
X85560671Y-98204030D01*
X85582849Y-98214520D01*
X85603893Y-98227133D01*
X85623598Y-98241747D01*
X85641777Y-98258223D01*
X85658253Y-98276402D01*
X85672867Y-98296107D01*
X85685480Y-98317151D01*
X85695970Y-98339329D01*
X85704235Y-98362429D01*
X85710196Y-98386227D01*
X85713796Y-98410496D01*
X85715000Y-98435000D01*
X85715000Y-99685000D01*
X85713796Y-99709504D01*
X85710196Y-99733773D01*
X85704235Y-99757571D01*
X85695970Y-99780671D01*
X85685480Y-99802849D01*
X85672867Y-99823893D01*
X85658253Y-99843598D01*
X85641777Y-99861777D01*
X85623598Y-99878253D01*
X85603893Y-99892867D01*
X85582849Y-99905480D01*
X85560671Y-99915970D01*
X85537571Y-99924235D01*
X85513773Y-99930196D01*
X85489504Y-99933796D01*
X85465000Y-99935000D01*
X84715000Y-99935000D01*
X84690496Y-99933796D01*
X84666227Y-99930196D01*
X84642429Y-99924235D01*
X84619329Y-99915970D01*
X84597151Y-99905480D01*
X84576107Y-99892867D01*
X84556402Y-99878253D01*
X84538223Y-99861777D01*
X84521747Y-99843598D01*
X84507133Y-99823893D01*
X84494520Y-99802849D01*
X84484030Y-99780671D01*
X84475765Y-99757571D01*
X84469804Y-99733773D01*
X84466204Y-99709504D01*
X84465000Y-99685000D01*
X84465000Y-98435000D01*
X84466204Y-98410496D01*
X84469804Y-98386227D01*
X84475765Y-98362429D01*
X84484030Y-98339329D01*
X84494520Y-98317151D01*
X84507133Y-98296107D01*
X84521747Y-98276402D01*
X84538223Y-98258223D01*
X84556402Y-98241747D01*
X84576107Y-98227133D01*
X84597151Y-98214520D01*
X84619329Y-98204030D01*
X84642429Y-98195765D01*
X84666227Y-98189804D01*
X84690496Y-98186204D01*
X84715000Y-98185000D01*
X85465000Y-98185000D01*
X85489504Y-98186204D01*
X85489504Y-98186204D01*
G37*
D20*
X85090000Y-99060000D03*
D18*
G36*
X88289504Y-98186204D02*
G01*
X88313773Y-98189804D01*
X88337571Y-98195765D01*
X88360671Y-98204030D01*
X88382849Y-98214520D01*
X88403893Y-98227133D01*
X88423598Y-98241747D01*
X88441777Y-98258223D01*
X88458253Y-98276402D01*
X88472867Y-98296107D01*
X88485480Y-98317151D01*
X88495970Y-98339329D01*
X88504235Y-98362429D01*
X88510196Y-98386227D01*
X88513796Y-98410496D01*
X88515000Y-98435000D01*
X88515000Y-99685000D01*
X88513796Y-99709504D01*
X88510196Y-99733773D01*
X88504235Y-99757571D01*
X88495970Y-99780671D01*
X88485480Y-99802849D01*
X88472867Y-99823893D01*
X88458253Y-99843598D01*
X88441777Y-99861777D01*
X88423598Y-99878253D01*
X88403893Y-99892867D01*
X88382849Y-99905480D01*
X88360671Y-99915970D01*
X88337571Y-99924235D01*
X88313773Y-99930196D01*
X88289504Y-99933796D01*
X88265000Y-99935000D01*
X87515000Y-99935000D01*
X87490496Y-99933796D01*
X87466227Y-99930196D01*
X87442429Y-99924235D01*
X87419329Y-99915970D01*
X87397151Y-99905480D01*
X87376107Y-99892867D01*
X87356402Y-99878253D01*
X87338223Y-99861777D01*
X87321747Y-99843598D01*
X87307133Y-99823893D01*
X87294520Y-99802849D01*
X87284030Y-99780671D01*
X87275765Y-99757571D01*
X87269804Y-99733773D01*
X87266204Y-99709504D01*
X87265000Y-99685000D01*
X87265000Y-98435000D01*
X87266204Y-98410496D01*
X87269804Y-98386227D01*
X87275765Y-98362429D01*
X87284030Y-98339329D01*
X87294520Y-98317151D01*
X87307133Y-98296107D01*
X87321747Y-98276402D01*
X87338223Y-98258223D01*
X87356402Y-98241747D01*
X87376107Y-98227133D01*
X87397151Y-98214520D01*
X87419329Y-98204030D01*
X87442429Y-98195765D01*
X87466227Y-98189804D01*
X87490496Y-98186204D01*
X87515000Y-98185000D01*
X88265000Y-98185000D01*
X88289504Y-98186204D01*
X88289504Y-98186204D01*
G37*
D20*
X87890000Y-99060000D03*
D18*
G36*
X106059504Y-52716204D02*
G01*
X106083773Y-52719804D01*
X106107571Y-52725765D01*
X106130671Y-52734030D01*
X106152849Y-52744520D01*
X106173893Y-52757133D01*
X106193598Y-52771747D01*
X106211777Y-52788223D01*
X106228253Y-52806402D01*
X106242867Y-52826107D01*
X106255480Y-52847151D01*
X106265970Y-52869329D01*
X106274235Y-52892429D01*
X106280196Y-52916227D01*
X106283796Y-52940496D01*
X106285000Y-52965000D01*
X106285000Y-53715000D01*
X106283796Y-53739504D01*
X106280196Y-53763773D01*
X106274235Y-53787571D01*
X106265970Y-53810671D01*
X106255480Y-53832849D01*
X106242867Y-53853893D01*
X106228253Y-53873598D01*
X106211777Y-53891777D01*
X106193598Y-53908253D01*
X106173893Y-53922867D01*
X106152849Y-53935480D01*
X106130671Y-53945970D01*
X106107571Y-53954235D01*
X106083773Y-53960196D01*
X106059504Y-53963796D01*
X106035000Y-53965000D01*
X104785000Y-53965000D01*
X104760496Y-53963796D01*
X104736227Y-53960196D01*
X104712429Y-53954235D01*
X104689329Y-53945970D01*
X104667151Y-53935480D01*
X104646107Y-53922867D01*
X104626402Y-53908253D01*
X104608223Y-53891777D01*
X104591747Y-53873598D01*
X104577133Y-53853893D01*
X104564520Y-53832849D01*
X104554030Y-53810671D01*
X104545765Y-53787571D01*
X104539804Y-53763773D01*
X104536204Y-53739504D01*
X104535000Y-53715000D01*
X104535000Y-52965000D01*
X104536204Y-52940496D01*
X104539804Y-52916227D01*
X104545765Y-52892429D01*
X104554030Y-52869329D01*
X104564520Y-52847151D01*
X104577133Y-52826107D01*
X104591747Y-52806402D01*
X104608223Y-52788223D01*
X104626402Y-52771747D01*
X104646107Y-52757133D01*
X104667151Y-52744520D01*
X104689329Y-52734030D01*
X104712429Y-52725765D01*
X104736227Y-52719804D01*
X104760496Y-52716204D01*
X104785000Y-52715000D01*
X106035000Y-52715000D01*
X106059504Y-52716204D01*
X106059504Y-52716204D01*
G37*
D20*
X105410000Y-53340000D03*
D18*
G36*
X106059504Y-55516204D02*
G01*
X106083773Y-55519804D01*
X106107571Y-55525765D01*
X106130671Y-55534030D01*
X106152849Y-55544520D01*
X106173893Y-55557133D01*
X106193598Y-55571747D01*
X106211777Y-55588223D01*
X106228253Y-55606402D01*
X106242867Y-55626107D01*
X106255480Y-55647151D01*
X106265970Y-55669329D01*
X106274235Y-55692429D01*
X106280196Y-55716227D01*
X106283796Y-55740496D01*
X106285000Y-55765000D01*
X106285000Y-56515000D01*
X106283796Y-56539504D01*
X106280196Y-56563773D01*
X106274235Y-56587571D01*
X106265970Y-56610671D01*
X106255480Y-56632849D01*
X106242867Y-56653893D01*
X106228253Y-56673598D01*
X106211777Y-56691777D01*
X106193598Y-56708253D01*
X106173893Y-56722867D01*
X106152849Y-56735480D01*
X106130671Y-56745970D01*
X106107571Y-56754235D01*
X106083773Y-56760196D01*
X106059504Y-56763796D01*
X106035000Y-56765000D01*
X104785000Y-56765000D01*
X104760496Y-56763796D01*
X104736227Y-56760196D01*
X104712429Y-56754235D01*
X104689329Y-56745970D01*
X104667151Y-56735480D01*
X104646107Y-56722867D01*
X104626402Y-56708253D01*
X104608223Y-56691777D01*
X104591747Y-56673598D01*
X104577133Y-56653893D01*
X104564520Y-56632849D01*
X104554030Y-56610671D01*
X104545765Y-56587571D01*
X104539804Y-56563773D01*
X104536204Y-56539504D01*
X104535000Y-56515000D01*
X104535000Y-55765000D01*
X104536204Y-55740496D01*
X104539804Y-55716227D01*
X104545765Y-55692429D01*
X104554030Y-55669329D01*
X104564520Y-55647151D01*
X104577133Y-55626107D01*
X104591747Y-55606402D01*
X104608223Y-55588223D01*
X104626402Y-55571747D01*
X104646107Y-55557133D01*
X104667151Y-55544520D01*
X104689329Y-55534030D01*
X104712429Y-55525765D01*
X104736227Y-55519804D01*
X104760496Y-55516204D01*
X104785000Y-55515000D01*
X106035000Y-55515000D01*
X106059504Y-55516204D01*
X106059504Y-55516204D01*
G37*
D20*
X105410000Y-56140000D03*
D18*
G36*
X183529504Y-52456204D02*
G01*
X183553773Y-52459804D01*
X183577571Y-52465765D01*
X183600671Y-52474030D01*
X183622849Y-52484520D01*
X183643893Y-52497133D01*
X183663598Y-52511747D01*
X183681777Y-52528223D01*
X183698253Y-52546402D01*
X183712867Y-52566107D01*
X183725480Y-52587151D01*
X183735970Y-52609329D01*
X183744235Y-52632429D01*
X183750196Y-52656227D01*
X183753796Y-52680496D01*
X183755000Y-52705000D01*
X183755000Y-53455000D01*
X183753796Y-53479504D01*
X183750196Y-53503773D01*
X183744235Y-53527571D01*
X183735970Y-53550671D01*
X183725480Y-53572849D01*
X183712867Y-53593893D01*
X183698253Y-53613598D01*
X183681777Y-53631777D01*
X183663598Y-53648253D01*
X183643893Y-53662867D01*
X183622849Y-53675480D01*
X183600671Y-53685970D01*
X183577571Y-53694235D01*
X183553773Y-53700196D01*
X183529504Y-53703796D01*
X183505000Y-53705000D01*
X182255000Y-53705000D01*
X182230496Y-53703796D01*
X182206227Y-53700196D01*
X182182429Y-53694235D01*
X182159329Y-53685970D01*
X182137151Y-53675480D01*
X182116107Y-53662867D01*
X182096402Y-53648253D01*
X182078223Y-53631777D01*
X182061747Y-53613598D01*
X182047133Y-53593893D01*
X182034520Y-53572849D01*
X182024030Y-53550671D01*
X182015765Y-53527571D01*
X182009804Y-53503773D01*
X182006204Y-53479504D01*
X182005000Y-53455000D01*
X182005000Y-52705000D01*
X182006204Y-52680496D01*
X182009804Y-52656227D01*
X182015765Y-52632429D01*
X182024030Y-52609329D01*
X182034520Y-52587151D01*
X182047133Y-52566107D01*
X182061747Y-52546402D01*
X182078223Y-52528223D01*
X182096402Y-52511747D01*
X182116107Y-52497133D01*
X182137151Y-52484520D01*
X182159329Y-52474030D01*
X182182429Y-52465765D01*
X182206227Y-52459804D01*
X182230496Y-52456204D01*
X182255000Y-52455000D01*
X183505000Y-52455000D01*
X183529504Y-52456204D01*
X183529504Y-52456204D01*
G37*
D20*
X182880000Y-53080000D03*
D18*
G36*
X183529504Y-55256204D02*
G01*
X183553773Y-55259804D01*
X183577571Y-55265765D01*
X183600671Y-55274030D01*
X183622849Y-55284520D01*
X183643893Y-55297133D01*
X183663598Y-55311747D01*
X183681777Y-55328223D01*
X183698253Y-55346402D01*
X183712867Y-55366107D01*
X183725480Y-55387151D01*
X183735970Y-55409329D01*
X183744235Y-55432429D01*
X183750196Y-55456227D01*
X183753796Y-55480496D01*
X183755000Y-55505000D01*
X183755000Y-56255000D01*
X183753796Y-56279504D01*
X183750196Y-56303773D01*
X183744235Y-56327571D01*
X183735970Y-56350671D01*
X183725480Y-56372849D01*
X183712867Y-56393893D01*
X183698253Y-56413598D01*
X183681777Y-56431777D01*
X183663598Y-56448253D01*
X183643893Y-56462867D01*
X183622849Y-56475480D01*
X183600671Y-56485970D01*
X183577571Y-56494235D01*
X183553773Y-56500196D01*
X183529504Y-56503796D01*
X183505000Y-56505000D01*
X182255000Y-56505000D01*
X182230496Y-56503796D01*
X182206227Y-56500196D01*
X182182429Y-56494235D01*
X182159329Y-56485970D01*
X182137151Y-56475480D01*
X182116107Y-56462867D01*
X182096402Y-56448253D01*
X182078223Y-56431777D01*
X182061747Y-56413598D01*
X182047133Y-56393893D01*
X182034520Y-56372849D01*
X182024030Y-56350671D01*
X182015765Y-56327571D01*
X182009804Y-56303773D01*
X182006204Y-56279504D01*
X182005000Y-56255000D01*
X182005000Y-55505000D01*
X182006204Y-55480496D01*
X182009804Y-55456227D01*
X182015765Y-55432429D01*
X182024030Y-55409329D01*
X182034520Y-55387151D01*
X182047133Y-55366107D01*
X182061747Y-55346402D01*
X182078223Y-55328223D01*
X182096402Y-55311747D01*
X182116107Y-55297133D01*
X182137151Y-55284520D01*
X182159329Y-55274030D01*
X182182429Y-55265765D01*
X182206227Y-55259804D01*
X182230496Y-55256204D01*
X182255000Y-55255000D01*
X183505000Y-55255000D01*
X183529504Y-55256204D01*
X183529504Y-55256204D01*
G37*
D20*
X182880000Y-55880000D03*
D18*
G36*
X178199504Y-123586204D02*
G01*
X178223773Y-123589804D01*
X178247571Y-123595765D01*
X178270671Y-123604030D01*
X178292849Y-123614520D01*
X178313893Y-123627133D01*
X178333598Y-123641747D01*
X178351777Y-123658223D01*
X178368253Y-123676402D01*
X178382867Y-123696107D01*
X178395480Y-123717151D01*
X178405970Y-123739329D01*
X178414235Y-123762429D01*
X178420196Y-123786227D01*
X178423796Y-123810496D01*
X178425000Y-123835000D01*
X178425000Y-125085000D01*
X178423796Y-125109504D01*
X178420196Y-125133773D01*
X178414235Y-125157571D01*
X178405970Y-125180671D01*
X178395480Y-125202849D01*
X178382867Y-125223893D01*
X178368253Y-125243598D01*
X178351777Y-125261777D01*
X178333598Y-125278253D01*
X178313893Y-125292867D01*
X178292849Y-125305480D01*
X178270671Y-125315970D01*
X178247571Y-125324235D01*
X178223773Y-125330196D01*
X178199504Y-125333796D01*
X178175000Y-125335000D01*
X177425000Y-125335000D01*
X177400496Y-125333796D01*
X177376227Y-125330196D01*
X177352429Y-125324235D01*
X177329329Y-125315970D01*
X177307151Y-125305480D01*
X177286107Y-125292867D01*
X177266402Y-125278253D01*
X177248223Y-125261777D01*
X177231747Y-125243598D01*
X177217133Y-125223893D01*
X177204520Y-125202849D01*
X177194030Y-125180671D01*
X177185765Y-125157571D01*
X177179804Y-125133773D01*
X177176204Y-125109504D01*
X177175000Y-125085000D01*
X177175000Y-123835000D01*
X177176204Y-123810496D01*
X177179804Y-123786227D01*
X177185765Y-123762429D01*
X177194030Y-123739329D01*
X177204520Y-123717151D01*
X177217133Y-123696107D01*
X177231747Y-123676402D01*
X177248223Y-123658223D01*
X177266402Y-123641747D01*
X177286107Y-123627133D01*
X177307151Y-123614520D01*
X177329329Y-123604030D01*
X177352429Y-123595765D01*
X177376227Y-123589804D01*
X177400496Y-123586204D01*
X177425000Y-123585000D01*
X178175000Y-123585000D01*
X178199504Y-123586204D01*
X178199504Y-123586204D01*
G37*
D20*
X177800000Y-124460000D03*
D18*
G36*
X175399504Y-123586204D02*
G01*
X175423773Y-123589804D01*
X175447571Y-123595765D01*
X175470671Y-123604030D01*
X175492849Y-123614520D01*
X175513893Y-123627133D01*
X175533598Y-123641747D01*
X175551777Y-123658223D01*
X175568253Y-123676402D01*
X175582867Y-123696107D01*
X175595480Y-123717151D01*
X175605970Y-123739329D01*
X175614235Y-123762429D01*
X175620196Y-123786227D01*
X175623796Y-123810496D01*
X175625000Y-123835000D01*
X175625000Y-125085000D01*
X175623796Y-125109504D01*
X175620196Y-125133773D01*
X175614235Y-125157571D01*
X175605970Y-125180671D01*
X175595480Y-125202849D01*
X175582867Y-125223893D01*
X175568253Y-125243598D01*
X175551777Y-125261777D01*
X175533598Y-125278253D01*
X175513893Y-125292867D01*
X175492849Y-125305480D01*
X175470671Y-125315970D01*
X175447571Y-125324235D01*
X175423773Y-125330196D01*
X175399504Y-125333796D01*
X175375000Y-125335000D01*
X174625000Y-125335000D01*
X174600496Y-125333796D01*
X174576227Y-125330196D01*
X174552429Y-125324235D01*
X174529329Y-125315970D01*
X174507151Y-125305480D01*
X174486107Y-125292867D01*
X174466402Y-125278253D01*
X174448223Y-125261777D01*
X174431747Y-125243598D01*
X174417133Y-125223893D01*
X174404520Y-125202849D01*
X174394030Y-125180671D01*
X174385765Y-125157571D01*
X174379804Y-125133773D01*
X174376204Y-125109504D01*
X174375000Y-125085000D01*
X174375000Y-123835000D01*
X174376204Y-123810496D01*
X174379804Y-123786227D01*
X174385765Y-123762429D01*
X174394030Y-123739329D01*
X174404520Y-123717151D01*
X174417133Y-123696107D01*
X174431747Y-123676402D01*
X174448223Y-123658223D01*
X174466402Y-123641747D01*
X174486107Y-123627133D01*
X174507151Y-123614520D01*
X174529329Y-123604030D01*
X174552429Y-123595765D01*
X174576227Y-123589804D01*
X174600496Y-123586204D01*
X174625000Y-123585000D01*
X175375000Y-123585000D01*
X175399504Y-123586204D01*
X175399504Y-123586204D01*
G37*
D20*
X175000000Y-124460000D03*
D27*
X96670000Y-83130000D03*
X96670000Y-87630000D03*
X90170000Y-83130000D03*
X90170000Y-87630000D03*
D28*
X100150000Y-74930000D03*
X95250000Y-74930000D03*
D18*
G36*
X93109504Y-67706204D02*
G01*
X93133773Y-67709804D01*
X93157571Y-67715765D01*
X93180671Y-67724030D01*
X93202849Y-67734520D01*
X93223893Y-67747133D01*
X93243598Y-67761747D01*
X93261777Y-67778223D01*
X93278253Y-67796402D01*
X93292867Y-67816107D01*
X93305480Y-67837151D01*
X93315970Y-67859329D01*
X93324235Y-67882429D01*
X93330196Y-67906227D01*
X93333796Y-67930496D01*
X93335000Y-67955000D01*
X93335000Y-69205000D01*
X93333796Y-69229504D01*
X93330196Y-69253773D01*
X93324235Y-69277571D01*
X93315970Y-69300671D01*
X93305480Y-69322849D01*
X93292867Y-69343893D01*
X93278253Y-69363598D01*
X93261777Y-69381777D01*
X93243598Y-69398253D01*
X93223893Y-69412867D01*
X93202849Y-69425480D01*
X93180671Y-69435970D01*
X93157571Y-69444235D01*
X93133773Y-69450196D01*
X93109504Y-69453796D01*
X93085000Y-69455000D01*
X92335000Y-69455000D01*
X92310496Y-69453796D01*
X92286227Y-69450196D01*
X92262429Y-69444235D01*
X92239329Y-69435970D01*
X92217151Y-69425480D01*
X92196107Y-69412867D01*
X92176402Y-69398253D01*
X92158223Y-69381777D01*
X92141747Y-69363598D01*
X92127133Y-69343893D01*
X92114520Y-69322849D01*
X92104030Y-69300671D01*
X92095765Y-69277571D01*
X92089804Y-69253773D01*
X92086204Y-69229504D01*
X92085000Y-69205000D01*
X92085000Y-67955000D01*
X92086204Y-67930496D01*
X92089804Y-67906227D01*
X92095765Y-67882429D01*
X92104030Y-67859329D01*
X92114520Y-67837151D01*
X92127133Y-67816107D01*
X92141747Y-67796402D01*
X92158223Y-67778223D01*
X92176402Y-67761747D01*
X92196107Y-67747133D01*
X92217151Y-67734520D01*
X92239329Y-67724030D01*
X92262429Y-67715765D01*
X92286227Y-67709804D01*
X92310496Y-67706204D01*
X92335000Y-67705000D01*
X93085000Y-67705000D01*
X93109504Y-67706204D01*
X93109504Y-67706204D01*
G37*
D20*
X92710000Y-68580000D03*
D18*
G36*
X95909504Y-67706204D02*
G01*
X95933773Y-67709804D01*
X95957571Y-67715765D01*
X95980671Y-67724030D01*
X96002849Y-67734520D01*
X96023893Y-67747133D01*
X96043598Y-67761747D01*
X96061777Y-67778223D01*
X96078253Y-67796402D01*
X96092867Y-67816107D01*
X96105480Y-67837151D01*
X96115970Y-67859329D01*
X96124235Y-67882429D01*
X96130196Y-67906227D01*
X96133796Y-67930496D01*
X96135000Y-67955000D01*
X96135000Y-69205000D01*
X96133796Y-69229504D01*
X96130196Y-69253773D01*
X96124235Y-69277571D01*
X96115970Y-69300671D01*
X96105480Y-69322849D01*
X96092867Y-69343893D01*
X96078253Y-69363598D01*
X96061777Y-69381777D01*
X96043598Y-69398253D01*
X96023893Y-69412867D01*
X96002849Y-69425480D01*
X95980671Y-69435970D01*
X95957571Y-69444235D01*
X95933773Y-69450196D01*
X95909504Y-69453796D01*
X95885000Y-69455000D01*
X95135000Y-69455000D01*
X95110496Y-69453796D01*
X95086227Y-69450196D01*
X95062429Y-69444235D01*
X95039329Y-69435970D01*
X95017151Y-69425480D01*
X94996107Y-69412867D01*
X94976402Y-69398253D01*
X94958223Y-69381777D01*
X94941747Y-69363598D01*
X94927133Y-69343893D01*
X94914520Y-69322849D01*
X94904030Y-69300671D01*
X94895765Y-69277571D01*
X94889804Y-69253773D01*
X94886204Y-69229504D01*
X94885000Y-69205000D01*
X94885000Y-67955000D01*
X94886204Y-67930496D01*
X94889804Y-67906227D01*
X94895765Y-67882429D01*
X94904030Y-67859329D01*
X94914520Y-67837151D01*
X94927133Y-67816107D01*
X94941747Y-67796402D01*
X94958223Y-67778223D01*
X94976402Y-67761747D01*
X94996107Y-67747133D01*
X95017151Y-67734520D01*
X95039329Y-67724030D01*
X95062429Y-67715765D01*
X95086227Y-67709804D01*
X95110496Y-67706204D01*
X95135000Y-67705000D01*
X95885000Y-67705000D01*
X95909504Y-67706204D01*
X95909504Y-67706204D01*
G37*
D20*
X95510000Y-68580000D03*
D18*
G36*
X100469504Y-67706204D02*
G01*
X100493773Y-67709804D01*
X100517571Y-67715765D01*
X100540671Y-67724030D01*
X100562849Y-67734520D01*
X100583893Y-67747133D01*
X100603598Y-67761747D01*
X100621777Y-67778223D01*
X100638253Y-67796402D01*
X100652867Y-67816107D01*
X100665480Y-67837151D01*
X100675970Y-67859329D01*
X100684235Y-67882429D01*
X100690196Y-67906227D01*
X100693796Y-67930496D01*
X100695000Y-67955000D01*
X100695000Y-69205000D01*
X100693796Y-69229504D01*
X100690196Y-69253773D01*
X100684235Y-69277571D01*
X100675970Y-69300671D01*
X100665480Y-69322849D01*
X100652867Y-69343893D01*
X100638253Y-69363598D01*
X100621777Y-69381777D01*
X100603598Y-69398253D01*
X100583893Y-69412867D01*
X100562849Y-69425480D01*
X100540671Y-69435970D01*
X100517571Y-69444235D01*
X100493773Y-69450196D01*
X100469504Y-69453796D01*
X100445000Y-69455000D01*
X99695000Y-69455000D01*
X99670496Y-69453796D01*
X99646227Y-69450196D01*
X99622429Y-69444235D01*
X99599329Y-69435970D01*
X99577151Y-69425480D01*
X99556107Y-69412867D01*
X99536402Y-69398253D01*
X99518223Y-69381777D01*
X99501747Y-69363598D01*
X99487133Y-69343893D01*
X99474520Y-69322849D01*
X99464030Y-69300671D01*
X99455765Y-69277571D01*
X99449804Y-69253773D01*
X99446204Y-69229504D01*
X99445000Y-69205000D01*
X99445000Y-67955000D01*
X99446204Y-67930496D01*
X99449804Y-67906227D01*
X99455765Y-67882429D01*
X99464030Y-67859329D01*
X99474520Y-67837151D01*
X99487133Y-67816107D01*
X99501747Y-67796402D01*
X99518223Y-67778223D01*
X99536402Y-67761747D01*
X99556107Y-67747133D01*
X99577151Y-67734520D01*
X99599329Y-67724030D01*
X99622429Y-67715765D01*
X99646227Y-67709804D01*
X99670496Y-67706204D01*
X99695000Y-67705000D01*
X100445000Y-67705000D01*
X100469504Y-67706204D01*
X100469504Y-67706204D01*
G37*
D20*
X100070000Y-68580000D03*
D18*
G36*
X103269504Y-67706204D02*
G01*
X103293773Y-67709804D01*
X103317571Y-67715765D01*
X103340671Y-67724030D01*
X103362849Y-67734520D01*
X103383893Y-67747133D01*
X103403598Y-67761747D01*
X103421777Y-67778223D01*
X103438253Y-67796402D01*
X103452867Y-67816107D01*
X103465480Y-67837151D01*
X103475970Y-67859329D01*
X103484235Y-67882429D01*
X103490196Y-67906227D01*
X103493796Y-67930496D01*
X103495000Y-67955000D01*
X103495000Y-69205000D01*
X103493796Y-69229504D01*
X103490196Y-69253773D01*
X103484235Y-69277571D01*
X103475970Y-69300671D01*
X103465480Y-69322849D01*
X103452867Y-69343893D01*
X103438253Y-69363598D01*
X103421777Y-69381777D01*
X103403598Y-69398253D01*
X103383893Y-69412867D01*
X103362849Y-69425480D01*
X103340671Y-69435970D01*
X103317571Y-69444235D01*
X103293773Y-69450196D01*
X103269504Y-69453796D01*
X103245000Y-69455000D01*
X102495000Y-69455000D01*
X102470496Y-69453796D01*
X102446227Y-69450196D01*
X102422429Y-69444235D01*
X102399329Y-69435970D01*
X102377151Y-69425480D01*
X102356107Y-69412867D01*
X102336402Y-69398253D01*
X102318223Y-69381777D01*
X102301747Y-69363598D01*
X102287133Y-69343893D01*
X102274520Y-69322849D01*
X102264030Y-69300671D01*
X102255765Y-69277571D01*
X102249804Y-69253773D01*
X102246204Y-69229504D01*
X102245000Y-69205000D01*
X102245000Y-67955000D01*
X102246204Y-67930496D01*
X102249804Y-67906227D01*
X102255765Y-67882429D01*
X102264030Y-67859329D01*
X102274520Y-67837151D01*
X102287133Y-67816107D01*
X102301747Y-67796402D01*
X102318223Y-67778223D01*
X102336402Y-67761747D01*
X102356107Y-67747133D01*
X102377151Y-67734520D01*
X102399329Y-67724030D01*
X102422429Y-67715765D01*
X102446227Y-67709804D01*
X102470496Y-67706204D01*
X102495000Y-67705000D01*
X103245000Y-67705000D01*
X103269504Y-67706204D01*
X103269504Y-67706204D01*
G37*
D20*
X102870000Y-68580000D03*
D12*
X109220000Y-107950000D03*
X109220000Y-105410000D03*
X109220000Y-102870000D03*
X109220000Y-100330000D03*
X109220000Y-97790000D03*
X109220000Y-95250000D03*
D13*
X109220000Y-92710000D03*
D26*
X151130000Y-133350000D03*
X151130000Y-130810000D03*
X151130000Y-128270000D03*
X151130000Y-125730000D03*
X151130000Y-123190000D03*
X151130000Y-120650000D03*
X151130000Y-118110000D03*
X151130000Y-115570000D03*
D17*
X151130000Y-113030000D03*
D12*
X119380000Y-137160000D03*
X116840000Y-137160000D03*
X114300000Y-137160000D03*
X111760000Y-137160000D03*
X109220000Y-137160000D03*
D13*
X106680000Y-137160000D03*
D12*
X140970000Y-87630000D03*
X138430000Y-87630000D03*
X135890000Y-87630000D03*
X133350000Y-87630000D03*
X130810000Y-87630000D03*
X128270000Y-87630000D03*
X125730000Y-87630000D03*
D13*
X123190000Y-87630000D03*
D12*
X194310000Y-102870000D03*
X194310000Y-100330000D03*
X194310000Y-97790000D03*
X194310000Y-95250000D03*
X194310000Y-92710000D03*
X194310000Y-90170000D03*
X194310000Y-87630000D03*
D13*
X194310000Y-85090000D03*
D12*
X194310000Y-77470000D03*
X194310000Y-74930000D03*
X194310000Y-72390000D03*
X194310000Y-69850000D03*
X194310000Y-67310000D03*
X194310000Y-64770000D03*
X194310000Y-62230000D03*
D13*
X194310000Y-59690000D03*
D12*
X157480000Y-133350000D03*
X157480000Y-130810000D03*
X157480000Y-128270000D03*
X157480000Y-125730000D03*
X157480000Y-123190000D03*
X157480000Y-120650000D03*
X157480000Y-118110000D03*
D13*
X157480000Y-115570000D03*
D12*
X160020000Y-109220000D03*
X160020000Y-106680000D03*
X160020000Y-104140000D03*
X160020000Y-101600000D03*
X160020000Y-99060000D03*
X160020000Y-96520000D03*
X160020000Y-93980000D03*
D13*
X160020000Y-91440000D03*
D12*
X125730000Y-137160000D03*
X128270000Y-137160000D03*
X130810000Y-137160000D03*
X133350000Y-137160000D03*
X135890000Y-137160000D03*
X138430000Y-137160000D03*
X140970000Y-137160000D03*
D13*
X143510000Y-137160000D03*
D12*
X102870000Y-106680000D03*
X102870000Y-109220000D03*
X102870000Y-111760000D03*
X102870000Y-114300000D03*
X102870000Y-116840000D03*
X102870000Y-119380000D03*
X102870000Y-121920000D03*
D13*
X102870000Y-124460000D03*
D26*
X149860000Y-72390000D03*
X116840000Y-57150000D03*
X147320000Y-72390000D03*
X119380000Y-57150000D03*
X144780000Y-72390000D03*
X121920000Y-57150000D03*
X142240000Y-72390000D03*
X124460000Y-57150000D03*
X139700000Y-72390000D03*
X127000000Y-57150000D03*
X137160000Y-72390000D03*
X129540000Y-57150000D03*
X134620000Y-72390000D03*
X132080000Y-57150000D03*
X132080000Y-72390000D03*
X134620000Y-57150000D03*
X129540000Y-72390000D03*
X137160000Y-57150000D03*
X127000000Y-72390000D03*
X139700000Y-57150000D03*
X124460000Y-72390000D03*
X142240000Y-57150000D03*
X121920000Y-72390000D03*
X144780000Y-57150000D03*
X119380000Y-72390000D03*
X147320000Y-57150000D03*
X116840000Y-72390000D03*
D17*
X149860000Y-57150000D03*
D26*
X189230000Y-102870000D03*
X189230000Y-100330000D03*
X189230000Y-97790000D03*
X189230000Y-95250000D03*
X189230000Y-92710000D03*
X189230000Y-90170000D03*
X189230000Y-87630000D03*
X189230000Y-85090000D03*
D17*
X189230000Y-82550000D03*
D26*
X189230000Y-77470000D03*
X189230000Y-74930000D03*
X189230000Y-72390000D03*
X189230000Y-69850000D03*
X189230000Y-67310000D03*
X189230000Y-64770000D03*
X189230000Y-62230000D03*
X189230000Y-59690000D03*
D17*
X189230000Y-57150000D03*
D26*
X125730000Y-130810000D03*
X128270000Y-130810000D03*
X130810000Y-130810000D03*
X133350000Y-130810000D03*
X135890000Y-130810000D03*
X138430000Y-130810000D03*
X140970000Y-130810000D03*
X143510000Y-130810000D03*
D17*
X146050000Y-130810000D03*
D26*
X106680000Y-130810000D03*
X109220000Y-130810000D03*
X111760000Y-130810000D03*
X114300000Y-130810000D03*
X116840000Y-130810000D03*
X119380000Y-130810000D03*
D17*
X121920000Y-130810000D03*
D26*
X151130000Y-109220000D03*
X151130000Y-106680000D03*
X151130000Y-104140000D03*
X151130000Y-101600000D03*
X151130000Y-99060000D03*
X151130000Y-96520000D03*
X151130000Y-93980000D03*
X151130000Y-91440000D03*
D17*
X151130000Y-88900000D03*
D26*
X146050000Y-92710000D03*
X143510000Y-92710000D03*
X140970000Y-92710000D03*
X138430000Y-92710000D03*
X135890000Y-92710000D03*
X133350000Y-92710000D03*
X130810000Y-92710000D03*
X128270000Y-92710000D03*
D17*
X125730000Y-92710000D03*
D26*
X114300000Y-102870000D03*
X114300000Y-100330000D03*
X114300000Y-97790000D03*
X114300000Y-95250000D03*
D17*
X114300000Y-92710000D03*
D26*
X114300000Y-106680000D03*
X114300000Y-109220000D03*
X114300000Y-111760000D03*
X114300000Y-114300000D03*
X114300000Y-116840000D03*
X114300000Y-119380000D03*
X114300000Y-121920000D03*
X114300000Y-124460000D03*
D17*
X114300000Y-127000000D03*
D29*
X93980000Y-58420000D03*
X99060000Y-58420000D03*
X99060000Y-63500000D03*
X93980000Y-63500000D03*
D30*
X96520000Y-60960000D03*
D31*
X115570000Y-90170000D03*
X121920000Y-90170000D03*
X116840000Y-54610000D03*
X185420000Y-54610000D03*
X102870000Y-54610000D03*
X86360000Y-96520000D03*
X91440000Y-140970000D03*
X175260000Y-120650000D03*
X175260000Y-128270000D03*
X175260000Y-114300000D03*
X147719999Y-111360001D03*
X156210000Y-140970000D03*
X86360000Y-67310000D03*
X86360000Y-78740000D03*
X86360000Y-55880000D03*
X87630000Y-54610000D03*
X92710000Y-54610000D03*
X107950000Y-54610000D03*
X129835199Y-102574801D03*
X133226621Y-108073379D03*
X90170000Y-71120000D03*
X90170000Y-78740000D03*
X104140000Y-78740000D03*
X106680000Y-71120000D03*
X91440000Y-72390000D03*
X91440000Y-77470000D03*
X104140000Y-76200000D03*
X105410000Y-72390000D03*
X102870000Y-142240000D03*
X146050000Y-142240000D03*
X121920000Y-142240000D03*
X149860000Y-53340000D03*
X85090000Y-92710000D03*
X176530000Y-113030000D03*
X199390000Y-82550000D03*
X189230000Y-53340000D03*
X185420000Y-53340000D03*
X102870000Y-53340000D03*
X85090000Y-96520000D03*
X91440000Y-142240000D03*
X154940000Y-142240000D03*
X176530000Y-128270000D03*
X176530000Y-120650000D03*
X177800000Y-102870000D03*
X177800000Y-106680000D03*
X156210000Y-142240000D03*
X124755199Y-102574801D03*
X130810000Y-77470000D03*
X148590000Y-77470000D03*
X127000000Y-76200000D03*
X148590000Y-76200000D03*
X128270000Y-80010000D03*
X148590000Y-80010000D03*
X148590000Y-78740000D03*
X124460000Y-78740000D03*
X148590000Y-82550000D03*
X125730000Y-82550000D03*
X148590000Y-81280000D03*
X121920000Y-81280000D03*
X148590000Y-85090000D03*
X123190000Y-85090000D03*
X148590000Y-83820000D03*
X119380000Y-83820000D03*
X147320000Y-67310000D03*
X158750000Y-101600000D03*
X156210000Y-99060000D03*
X157480000Y-96520000D03*
X154940000Y-93980000D03*
X163830000Y-91440000D03*
X153670000Y-91440000D03*
X173990000Y-91440000D03*
X162560000Y-66040000D03*
X163830000Y-64770000D03*
X134620000Y-74930000D03*
X165100000Y-63500000D03*
X166370000Y-62230000D03*
X129540000Y-73660000D03*
X167640000Y-60960000D03*
X168910000Y-59690000D03*
X169874989Y-58725011D03*
X172720000Y-55880000D03*
D32*
X86360000Y-97790000D02*
X87630000Y-99060000D01*
X86360000Y-96520000D02*
X86360000Y-97790000D01*
X167640000Y-136810000D02*
X168290000Y-136810000D01*
X175260000Y-128270000D02*
X175260000Y-120650000D01*
X175260000Y-117560000D02*
X174540000Y-116840000D01*
X175260000Y-120650000D02*
X175260000Y-117560000D01*
X175260000Y-116120000D02*
X174540000Y-116840000D01*
X175260000Y-114300000D02*
X175260000Y-116120000D01*
X175260000Y-124720000D02*
X175000000Y-124460000D01*
X175260000Y-128270000D02*
X175260000Y-124720000D01*
D33*
X173990000Y-115570000D02*
X170180000Y-115570000D01*
X175260000Y-128270000D02*
X175260000Y-116840000D01*
X175260000Y-116840000D02*
X173990000Y-115570000D01*
X175260000Y-116840000D02*
X175260000Y-114300000D01*
X167640000Y-134810000D02*
X167640000Y-136810000D01*
X164939999Y-132109999D02*
X167640000Y-134810000D01*
X164939999Y-127160001D02*
X164939999Y-132109999D01*
X167640000Y-124460000D02*
X164939999Y-127160001D01*
X86360000Y-97530000D02*
X87890000Y-99060000D01*
X86360000Y-96520000D02*
X86360000Y-97530000D01*
X92450000Y-140970000D02*
X93980000Y-139440000D01*
X91440000Y-140970000D02*
X92450000Y-140970000D01*
X184150000Y-54610000D02*
X182880000Y-55880000D01*
X185420000Y-54610000D02*
X184150000Y-54610000D01*
X157220000Y-140970000D02*
X158750000Y-139440000D01*
X156210000Y-140970000D02*
X157220000Y-140970000D01*
X129835199Y-100300000D02*
X129835199Y-102574801D01*
X133181621Y-108073379D02*
X133226621Y-108073379D01*
X129835199Y-104681957D02*
X133226621Y-108073379D01*
X129835199Y-102574801D02*
X129835199Y-104681957D01*
X121920000Y-90170000D02*
X115570000Y-90170000D01*
D34*
X134352041Y-109198799D02*
X133226621Y-108073379D01*
X147719999Y-111360001D02*
X147719999Y-110794316D01*
X144758799Y-109198799D02*
X134352041Y-109198799D01*
X146124482Y-109198799D02*
X144758799Y-109198799D01*
X147719999Y-110794316D02*
X146124482Y-109198799D01*
X145680576Y-109198799D02*
X144758799Y-109198799D01*
D33*
X167640000Y-134810000D02*
X168720000Y-135890000D01*
X167640000Y-134810000D02*
X166560000Y-135890000D01*
D32*
X98160001Y-110860001D02*
X99060000Y-111760000D01*
X91584999Y-104284999D02*
X98160001Y-110860001D01*
X91584999Y-100185001D02*
X91584999Y-104284999D01*
X92710000Y-99060000D02*
X91584999Y-100185001D01*
X149860000Y-57150000D02*
X149860000Y-53340000D01*
X149860000Y-72390000D02*
X149860000Y-57150000D01*
X85090000Y-98800000D02*
X84830000Y-99060000D01*
X85090000Y-96520000D02*
X85090000Y-98800000D01*
X174570000Y-113030000D02*
X176530000Y-113030000D01*
D33*
X162560000Y-113030000D02*
X170180000Y-113030000D01*
X170180000Y-113030000D02*
X176530000Y-113030000D01*
X176530000Y-123190000D02*
X177800000Y-124460000D01*
X176530000Y-120650000D02*
X176530000Y-123190000D01*
X177800000Y-124460000D02*
X176530000Y-125730000D01*
X176530000Y-125730000D02*
X176530000Y-128270000D01*
X125730000Y-92710000D02*
X114300000Y-92710000D01*
X107950000Y-95250000D02*
X109220000Y-95250000D01*
X105410000Y-92710000D02*
X107950000Y-95250000D01*
X85090000Y-92710000D02*
X105410000Y-92710000D01*
X121920000Y-130810000D02*
X121920000Y-142240000D01*
X146050000Y-142240000D02*
X146050000Y-130810000D01*
X189230000Y-82550000D02*
X199390000Y-82550000D01*
X149860000Y-72390000D02*
X149860000Y-53340000D01*
X102870000Y-53340000D02*
X105410000Y-53340000D01*
X85090000Y-96520000D02*
X85090000Y-99060000D01*
X91440000Y-142240000D02*
X93980000Y-142240000D01*
X147645198Y-113030000D02*
X151130000Y-113030000D01*
X145075199Y-110460000D02*
X147645198Y-113030000D01*
X151130000Y-113030000D02*
X162560000Y-113030000D01*
X182750000Y-53210000D02*
X182490000Y-52950000D01*
X185420000Y-53340000D02*
X183140000Y-53340000D01*
X111760000Y-95250000D02*
X109220000Y-95250000D01*
X114300000Y-92710000D02*
X111760000Y-95250000D01*
X177800000Y-102870000D02*
X177800000Y-106680000D01*
X156210000Y-142240000D02*
X158750000Y-142240000D01*
X176530000Y-113030000D02*
X176530000Y-114327500D01*
X176530000Y-119352500D02*
X179042500Y-116840000D01*
X176530000Y-120650000D02*
X176530000Y-119352500D01*
X176530000Y-114327500D02*
X179042500Y-116840000D01*
X124755199Y-100300000D02*
X124755199Y-102574801D01*
X120803998Y-98888799D02*
X122215199Y-100300000D01*
X120803998Y-97082623D02*
X120803998Y-98888799D01*
D35*
X123376400Y-100143600D02*
X123220000Y-100300000D01*
D33*
X122215199Y-100300000D02*
X123220000Y-100300000D01*
X123220000Y-100300000D02*
X124755199Y-100300000D01*
X125730000Y-94510000D02*
X124990000Y-95250000D01*
X125730000Y-92710000D02*
X125730000Y-94510000D01*
X124990000Y-95250000D02*
X121920000Y-95250000D01*
X120803998Y-96366002D02*
X120803998Y-98888799D01*
X121920000Y-95250000D02*
X120803998Y-96366002D01*
X153670000Y-140970000D02*
X154940000Y-142240000D01*
X153670000Y-138430000D02*
X153670000Y-140970000D01*
X189230000Y-53340000D02*
X189230000Y-57150000D01*
X106680000Y-127000000D02*
X102870000Y-130810000D01*
X102870000Y-130810000D02*
X102870000Y-142240000D01*
X106680000Y-127000000D02*
X114300000Y-127000000D01*
D32*
X100070000Y-64510000D02*
X99060000Y-63500000D01*
X100070000Y-68580000D02*
X100070000Y-64510000D01*
X100070000Y-74850000D02*
X100150000Y-74930000D01*
X100070000Y-68580000D02*
X100070000Y-74850000D01*
D33*
X93980000Y-63500000D02*
X93980000Y-58420000D01*
X93980000Y-58420000D02*
X99060000Y-58420000D01*
X99060000Y-58420000D02*
X99060000Y-63500000D01*
D32*
X96520000Y-67570000D02*
X95510000Y-68580000D01*
X96520000Y-60960000D02*
X96520000Y-67570000D01*
X95510000Y-74670000D02*
X95250000Y-74930000D01*
X95510000Y-68580000D02*
X95510000Y-74670000D01*
X130810000Y-77470000D02*
X148590000Y-77470000D01*
X132080000Y-78740000D02*
X146050000Y-92710000D01*
X130810000Y-77470000D02*
X132080000Y-78740000D01*
X127000000Y-73660000D02*
X127000000Y-72390000D01*
X132080000Y-78740000D02*
X127000000Y-73660000D01*
X148590000Y-77470000D02*
X166370000Y-77470000D01*
X124460000Y-73660000D02*
X127000000Y-76200000D01*
X124460000Y-72390000D02*
X124460000Y-73660000D01*
X127000000Y-76200000D02*
X143510000Y-92710000D01*
X167640000Y-76200000D02*
X168910000Y-77470000D01*
X167640000Y-76200000D02*
X148590000Y-76200000D01*
X128270000Y-80010000D02*
X140970000Y-92710000D01*
X121920000Y-73660000D02*
X121920000Y-72390000D01*
X128270000Y-80010000D02*
X121920000Y-73660000D01*
X148590000Y-80010000D02*
X166370000Y-80010000D01*
X167640000Y-78740000D02*
X168910000Y-80010000D01*
X124460000Y-78740000D02*
X138430000Y-92710000D01*
X119380000Y-73660000D02*
X119380000Y-72390000D01*
X124460000Y-78740000D02*
X119380000Y-73660000D01*
X167640000Y-78740000D02*
X148590000Y-78740000D01*
X125730000Y-82550000D02*
X135890000Y-92710000D01*
X116840000Y-73660000D02*
X116840000Y-72390000D01*
X125730000Y-82550000D02*
X116840000Y-73660000D01*
X148590000Y-82550000D02*
X166370000Y-82550000D01*
X118580001Y-57949999D02*
X119380000Y-57150000D01*
X114300000Y-62230000D02*
X118580001Y-57949999D01*
X114300000Y-73660000D02*
X114300000Y-62230000D01*
X133350000Y-92710000D02*
X121920000Y-81280000D01*
X121920000Y-81280000D02*
X114300000Y-73660000D01*
X167640000Y-81280000D02*
X168910000Y-82550000D01*
X167640000Y-81280000D02*
X148590000Y-81280000D01*
X121120001Y-56350001D02*
X121920000Y-57150000D01*
X120794999Y-56024999D02*
X121120001Y-56350001D01*
X116299999Y-56024999D02*
X120794999Y-56024999D01*
X111760000Y-60564998D02*
X116299999Y-56024999D01*
X111760000Y-73660000D02*
X111760000Y-60564998D01*
X130810000Y-92710000D02*
X123190000Y-85090000D01*
X123190000Y-85090000D02*
X111760000Y-73660000D01*
X148590000Y-85090000D02*
X166370000Y-85090000D01*
X122884989Y-55574989D02*
X123660001Y-56350001D01*
X116113599Y-55574989D02*
X122884989Y-55574989D01*
X123660001Y-56350001D02*
X124460000Y-57150000D01*
X111309991Y-60378597D02*
X116113599Y-55574989D01*
X111309991Y-75749991D02*
X111309991Y-60378597D01*
X128270000Y-92710000D02*
X119380000Y-83820000D01*
X119380000Y-83820000D02*
X111309991Y-75749991D01*
X166633578Y-83820000D02*
X167640000Y-84826422D01*
X167640000Y-84826422D02*
X167640000Y-86360000D01*
X167640000Y-86360000D02*
X168910000Y-87630000D01*
X166633578Y-83820000D02*
X148590000Y-83820000D01*
X151130000Y-109220000D02*
X160020000Y-109220000D01*
X160020000Y-109220000D02*
X162560000Y-109220000D01*
X162560000Y-104140000D02*
X179070000Y-87630000D01*
X162560000Y-109220000D02*
X162560000Y-104140000D01*
X151130000Y-106680000D02*
X160020000Y-106680000D01*
X151130000Y-104140000D02*
X160020000Y-104140000D01*
X175260000Y-86360000D02*
X175260000Y-88900000D01*
X176530000Y-85090000D02*
X175260000Y-86360000D01*
X175260000Y-88900000D02*
X160020000Y-104140000D01*
X147320000Y-57150000D02*
X147320000Y-67310000D01*
X151130000Y-101600000D02*
X158750000Y-101600000D01*
X158750000Y-101600000D02*
X160020000Y-101600000D01*
X156210000Y-99060000D02*
X160020000Y-99060000D01*
X160020000Y-99060000D02*
X151130000Y-99060000D01*
X157480000Y-96520000D02*
X160020000Y-96520000D01*
X151130000Y-96520000D02*
X160020000Y-96520000D01*
X154940000Y-93980000D02*
X160020000Y-93980000D01*
X151130000Y-93980000D02*
X160020000Y-93980000D01*
X151130000Y-91440000D02*
X160020000Y-91440000D01*
X176530000Y-88635788D02*
X173857894Y-91307894D01*
X176530000Y-87630000D02*
X176530000Y-88635788D01*
X163830000Y-91440000D02*
X160020000Y-91440000D01*
X153670000Y-57150000D02*
X162560000Y-66040000D01*
X156210000Y-57150000D02*
X163830000Y-64770000D01*
X134620000Y-74930000D02*
X166370000Y-74930000D01*
X158750000Y-57150000D02*
X165100000Y-63500000D01*
X161290000Y-57150000D02*
X166370000Y-62230000D01*
X167640000Y-73660000D02*
X168910000Y-74930000D01*
X129540000Y-73660000D02*
X167640000Y-73660000D01*
X163830000Y-57150000D02*
X167640000Y-60960000D01*
X166370000Y-57150000D02*
X168910000Y-59690000D01*
X168910000Y-57760022D02*
X169874989Y-58725011D01*
X168910000Y-57150000D02*
X168910000Y-57760022D01*
X171450000Y-57150000D02*
X172720000Y-55880000D01*
X131339410Y-95250000D02*
X129835199Y-96754212D01*
X129835199Y-96754212D02*
X129835199Y-97760000D01*
X163830000Y-95250000D02*
X131339410Y-95250000D01*
X171450000Y-87630000D02*
X163830000Y-95250000D01*
X148194998Y-99060000D02*
X149369999Y-100235001D01*
X134636399Y-99060000D02*
X148194998Y-99060000D01*
X133336399Y-97760000D02*
X134636399Y-99060000D01*
X132375199Y-97760000D02*
X133336399Y-97760000D01*
X172720000Y-90170000D02*
X162654999Y-100235001D01*
X173990000Y-85090000D02*
X172720000Y-86360000D01*
X162654999Y-100235001D02*
X149369999Y-100235001D01*
X172720000Y-86360000D02*
X172720000Y-90170000D01*
X164955001Y-90025001D02*
X164981421Y-90025001D01*
X170180000Y-88263590D02*
X168418589Y-90025001D01*
X167784999Y-90025001D02*
X164955001Y-90025001D01*
X170180000Y-86360000D02*
X170180000Y-88263590D01*
X171450000Y-85090000D02*
X170180000Y-86360000D01*
X168418589Y-90025001D02*
X167784999Y-90025001D01*
X168048577Y-90025001D02*
X167784999Y-90025001D01*
X164955001Y-90025001D02*
X154795001Y-90025001D01*
X132375199Y-99294212D02*
X132375199Y-100300000D01*
X131877188Y-98796201D02*
X132375199Y-99294212D01*
X128798998Y-98318998D02*
X129276201Y-98796201D01*
X129276201Y-98796201D02*
X131877188Y-98796201D01*
X128798998Y-97154002D02*
X128798998Y-98318998D01*
X132118000Y-93835001D02*
X128798998Y-97154002D01*
X147069997Y-93835001D02*
X132118000Y-93835001D01*
X150734998Y-90170000D02*
X147069997Y-93835001D01*
X154650002Y-90170000D02*
X150734998Y-90170000D01*
X154795001Y-90025001D02*
X154650002Y-90170000D01*
X92710000Y-101600000D02*
X99060000Y-107950000D01*
X92710000Y-96520000D02*
X91584999Y-97645001D01*
X98160001Y-114670001D02*
X99060000Y-115570000D01*
X91134989Y-107644989D02*
X98160001Y-114670001D01*
X91134989Y-98095011D02*
X91134989Y-107644989D01*
X92710000Y-96520000D02*
X91134989Y-98095011D01*
X167510000Y-130680000D02*
X167640000Y-130810000D01*
X166640000Y-130810000D02*
X167640000Y-130810000D01*
X168640000Y-130810000D02*
X167640000Y-130810000D01*
X170180000Y-124200000D02*
X170440000Y-124460000D01*
D33*
X167640000Y-115570000D02*
X170180000Y-118110000D01*
X162560000Y-115570000D02*
X167640000Y-115570000D01*
X170180000Y-130810000D02*
X167640000Y-130810000D01*
X170180000Y-118110000D02*
X170180000Y-130810000D01*
X88900000Y-107950000D02*
X88900000Y-115570000D01*
X88900000Y-115570000D02*
X92710000Y-119380000D01*
D32*
X119645199Y-107950000D02*
X119675199Y-107920000D01*
X109220000Y-107950000D02*
X119645199Y-107950000D01*
X121178998Y-106416201D02*
X122215199Y-105380000D01*
X119177822Y-106416201D02*
X121178998Y-106416201D01*
X118171621Y-105410000D02*
X119177822Y-106416201D01*
X109220000Y-105410000D02*
X118171621Y-105410000D01*
X102870000Y-106680000D02*
X114300000Y-106680000D01*
X102870000Y-109220000D02*
X114300000Y-109220000D01*
X102870000Y-111760000D02*
X114300000Y-111760000D01*
X102870000Y-114300000D02*
X114300000Y-114300000D01*
X114300000Y-116840000D02*
X102870000Y-116840000D01*
X102870000Y-119380000D02*
X114300000Y-119380000D01*
X102870000Y-121920000D02*
X114300000Y-121920000D01*
X102870000Y-124460000D02*
X114300000Y-124460000D01*
X143510000Y-130810000D02*
X143510000Y-137160000D01*
X140970000Y-130810000D02*
X140970000Y-137160000D01*
X138430000Y-130810000D02*
X138430000Y-137160000D01*
X135890000Y-130810000D02*
X135890000Y-137160000D01*
X133350000Y-130810000D02*
X133350000Y-137160000D01*
X130810000Y-130810000D02*
X130810000Y-137160000D01*
X128270000Y-130810000D02*
X128270000Y-137160000D01*
X125730000Y-130810000D02*
X125730000Y-137160000D01*
X119380000Y-130810000D02*
X119380000Y-137160000D01*
X116840000Y-130810000D02*
X116840000Y-137160000D01*
X114300000Y-130810000D02*
X114300000Y-137160000D01*
X111760000Y-130810000D02*
X111760000Y-137160000D01*
X109220000Y-130810000D02*
X109220000Y-137160000D01*
X106680000Y-130810000D02*
X106680000Y-137160000D01*
X157480000Y-133350000D02*
X151130000Y-133350000D01*
X151130000Y-133350000D02*
X148590000Y-130810000D01*
X148590000Y-124134801D02*
X145075199Y-120620000D01*
X148590000Y-130810000D02*
X148590000Y-124134801D01*
X151130000Y-130810000D02*
X157480000Y-130810000D01*
X157480000Y-128270000D02*
X151130000Y-128270000D01*
X151130000Y-125730000D02*
X157480000Y-125730000D01*
X157480000Y-123190000D02*
X151130000Y-123190000D01*
X151130000Y-120650000D02*
X157480000Y-120650000D01*
X157480000Y-118110000D02*
X151130000Y-118110000D01*
X151130000Y-115570000D02*
X157480000Y-115570000D01*
X143571400Y-114036201D02*
X142535199Y-113000000D01*
X149596201Y-114036201D02*
X143571400Y-114036201D01*
X151130000Y-115570000D02*
X149596201Y-114036201D01*
X194310000Y-77470000D02*
X189230000Y-77470000D01*
X182880000Y-76200000D02*
X181610000Y-77470000D01*
X187960000Y-76200000D02*
X182880000Y-76200000D01*
X189230000Y-77470000D02*
X187960000Y-76200000D01*
X189230000Y-74930000D02*
X194310000Y-74930000D01*
X189230000Y-74930000D02*
X184150000Y-74930000D01*
X194310000Y-72390000D02*
X189230000Y-72390000D01*
X189230000Y-72390000D02*
X187960000Y-73660000D01*
X182880000Y-73660000D02*
X181610000Y-74930000D01*
X187960000Y-73660000D02*
X182880000Y-73660000D01*
X189230000Y-69850000D02*
X194310000Y-69850000D01*
X186690000Y-69850000D02*
X184150000Y-72390000D01*
X189230000Y-69850000D02*
X186690000Y-69850000D01*
X194310000Y-67310000D02*
X189230000Y-67310000D01*
X184150000Y-67310000D02*
X181610000Y-69850000D01*
X189230000Y-67310000D02*
X184150000Y-67310000D01*
X189230000Y-64770000D02*
X194310000Y-64770000D01*
X189230000Y-64770000D02*
X185156422Y-64770000D01*
X181610000Y-72390000D02*
X180340000Y-71120000D01*
X180340000Y-71120000D02*
X180340000Y-69216410D01*
X180340000Y-69216410D02*
X184786410Y-64770000D01*
X184786410Y-64770000D02*
X185420000Y-64770000D01*
X194310000Y-62230000D02*
X189230000Y-62230000D01*
X186690000Y-62230000D02*
X179070000Y-69850000D01*
X189230000Y-62230000D02*
X186690000Y-62230000D01*
X188098630Y-59690000D02*
X189230000Y-59690000D01*
X189230000Y-59690000D02*
X194310000Y-59690000D01*
X186690000Y-59690000D02*
X177800000Y-68580000D01*
X177800000Y-71120000D02*
X179070000Y-72390000D01*
X177800000Y-68580000D02*
X177800000Y-71120000D01*
X189230000Y-59690000D02*
X186690000Y-59690000D01*
X179070000Y-85090000D02*
X180106201Y-86126201D01*
X194310000Y-102870000D02*
X189230000Y-102870000D01*
X180573799Y-86593799D02*
X179070000Y-85090000D01*
X180573799Y-94213799D02*
X180573799Y-86593799D01*
X189230000Y-102870000D02*
X180573799Y-94213799D01*
X189230000Y-100330000D02*
X194310000Y-100330000D01*
X181610000Y-92710000D02*
X181610000Y-87630000D01*
X189230000Y-100330000D02*
X181610000Y-92710000D01*
X184150000Y-85090000D02*
X184150000Y-90170000D01*
X194310000Y-97790000D02*
X189230000Y-97790000D01*
X184150000Y-92710000D02*
X184150000Y-85090000D01*
X189230000Y-97790000D02*
X184150000Y-92710000D01*
X189230000Y-95250000D02*
X194310000Y-95250000D01*
X194310000Y-92710000D02*
X189230000Y-92710000D01*
X184150000Y-82550000D02*
X186239990Y-84639990D01*
X186239990Y-89719990D02*
X189230000Y-92710000D01*
X186239990Y-84639990D02*
X186239990Y-89719990D01*
X189230000Y-90170000D02*
X194310000Y-90170000D01*
X189230000Y-87630000D02*
X194310000Y-87630000D01*
X189230000Y-87630000D02*
X186690000Y-85090000D01*
X186690000Y-82550000D02*
X184150000Y-80010000D01*
X186690000Y-85090000D02*
X186690000Y-82550000D01*
X189230000Y-85090000D02*
X194310000Y-85090000D01*
X144780000Y-139570000D02*
X143380000Y-140970000D01*
X143032576Y-122123799D02*
X144780000Y-123871223D01*
X141498998Y-122123799D02*
X143032576Y-122123799D01*
X144780000Y-123871223D02*
X144780000Y-139570000D01*
X139995199Y-120620000D02*
X141498998Y-122123799D01*
X114300000Y-100330000D02*
X111760000Y-102870000D01*
X111760000Y-102870000D02*
X107950000Y-102870000D01*
X119350000Y-105380000D02*
X119675199Y-105380000D01*
X114300000Y-100330000D02*
X119350000Y-105380000D01*
X101600000Y-102870000D02*
X100330000Y-101600000D01*
X109220000Y-102870000D02*
X101600000Y-102870000D01*
X115099999Y-98589999D02*
X114300000Y-97790000D01*
X115425001Y-98915001D02*
X115099999Y-98589999D01*
X115425001Y-100123380D02*
X115425001Y-98915001D01*
X119177822Y-103876201D02*
X115425001Y-100123380D01*
X121178998Y-103876201D02*
X119177822Y-103876201D01*
X122215199Y-102840000D02*
X121178998Y-103876201D01*
X114300000Y-97790000D02*
X111760000Y-100330000D01*
X111760000Y-100330000D02*
X107950000Y-100330000D01*
X101600000Y-100330000D02*
X100330000Y-99060000D01*
X109220000Y-100330000D02*
X101600000Y-100330000D01*
X116840000Y-97790000D02*
X115099999Y-96049999D01*
X115099999Y-96049999D02*
X114300000Y-95250000D01*
X116840000Y-100004801D02*
X116840000Y-97790000D01*
X119675199Y-102840000D02*
X116840000Y-100004801D01*
X114300000Y-95250000D02*
X111760000Y-97790000D01*
X111760000Y-97790000D02*
X107950000Y-97790000D01*
X101600000Y-97790000D02*
X100330000Y-96520000D01*
X109220000Y-97790000D02*
X101600000Y-97790000D01*
D36*
G36*
X109093000Y-79883000D02*
G01*
X86487000Y-79883000D01*
X86487000Y-69455000D01*
X91446928Y-69455000D01*
X91459188Y-69579482D01*
X91495498Y-69699180D01*
X91554463Y-69809494D01*
X91633815Y-69906185D01*
X91730506Y-69985537D01*
X91840820Y-70044502D01*
X91960518Y-70080812D01*
X92085000Y-70093072D01*
X92424250Y-70090000D01*
X92583000Y-69931250D01*
X92583000Y-68707000D01*
X92837000Y-68707000D01*
X92837000Y-69931250D01*
X92995750Y-70090000D01*
X93335000Y-70093072D01*
X93459482Y-70080812D01*
X93579180Y-70044502D01*
X93689494Y-69985537D01*
X93786185Y-69906185D01*
X93865537Y-69809494D01*
X93924502Y-69699180D01*
X93960812Y-69579482D01*
X93973072Y-69455000D01*
X93970000Y-68865750D01*
X93811250Y-68707000D01*
X92837000Y-68707000D01*
X92583000Y-68707000D01*
X91608750Y-68707000D01*
X91450000Y-68865750D01*
X91446928Y-69455000D01*
X86487000Y-69455000D01*
X86487000Y-67705000D01*
X91446928Y-67705000D01*
X91450000Y-68294250D01*
X91608750Y-68453000D01*
X92583000Y-68453000D01*
X92583000Y-67228750D01*
X92837000Y-67228750D01*
X92837000Y-68453000D01*
X93811250Y-68453000D01*
X93970000Y-68294250D01*
X93973072Y-67705000D01*
X93960812Y-67580518D01*
X93924502Y-67460820D01*
X93865537Y-67350506D01*
X93786185Y-67253815D01*
X93689494Y-67174463D01*
X93579180Y-67115498D01*
X93459482Y-67079188D01*
X93335000Y-67066928D01*
X92995750Y-67070000D01*
X92837000Y-67228750D01*
X92583000Y-67228750D01*
X92424250Y-67070000D01*
X92085000Y-67066928D01*
X91960518Y-67079188D01*
X91840820Y-67115498D01*
X91730506Y-67174463D01*
X91633815Y-67253815D01*
X91554463Y-67350506D01*
X91495498Y-67460820D01*
X91459188Y-67580518D01*
X91446928Y-67705000D01*
X86487000Y-67705000D01*
X86487000Y-58246655D01*
X92220000Y-58246655D01*
X92220000Y-58593345D01*
X92287636Y-58933373D01*
X92420308Y-59253673D01*
X92612919Y-59541935D01*
X92845001Y-59774017D01*
X92845000Y-62145984D01*
X92612919Y-62378065D01*
X92420308Y-62666327D01*
X92287636Y-62986627D01*
X92220000Y-63326655D01*
X92220000Y-63673345D01*
X92287636Y-64013373D01*
X92420308Y-64333673D01*
X92612919Y-64621935D01*
X92858065Y-64867081D01*
X93146327Y-65059692D01*
X93466627Y-65192364D01*
X93806655Y-65260000D01*
X94153345Y-65260000D01*
X94493373Y-65192364D01*
X94813673Y-65059692D01*
X95101935Y-64867081D01*
X95347081Y-64621935D01*
X95539692Y-64333673D01*
X95672364Y-64013373D01*
X95740000Y-63673345D01*
X95740000Y-63326655D01*
X95672364Y-62986627D01*
X95539692Y-62666327D01*
X95347081Y-62378065D01*
X95115000Y-62145984D01*
X95115000Y-61845190D01*
X95230594Y-62018188D01*
X95461812Y-62249406D01*
X95733695Y-62431073D01*
X95760000Y-62441969D01*
X95760001Y-67066928D01*
X95135000Y-67066928D01*
X94961746Y-67083992D01*
X94795150Y-67134528D01*
X94641614Y-67216595D01*
X94507038Y-67327038D01*
X94396595Y-67461614D01*
X94314528Y-67615150D01*
X94263992Y-67781746D01*
X94246928Y-67955000D01*
X94246928Y-69205000D01*
X94263992Y-69378254D01*
X94314528Y-69544850D01*
X94396595Y-69698386D01*
X94507038Y-69832962D01*
X94641614Y-69943405D01*
X94750000Y-70001339D01*
X94750001Y-73637994D01*
X94593957Y-73702629D01*
X94367114Y-73854201D01*
X94174201Y-74047114D01*
X94022629Y-74273957D01*
X93918225Y-74526011D01*
X93865000Y-74793589D01*
X93865000Y-75066411D01*
X93918225Y-75333989D01*
X94022629Y-75586043D01*
X94174201Y-75812886D01*
X94367114Y-76005799D01*
X94593957Y-76157371D01*
X94846011Y-76261775D01*
X95113589Y-76315000D01*
X95386411Y-76315000D01*
X95653989Y-76261775D01*
X95906043Y-76157371D01*
X96132886Y-76005799D01*
X96325799Y-75812886D01*
X96477371Y-75586043D01*
X96581775Y-75333989D01*
X96635000Y-75066411D01*
X96635000Y-74793589D01*
X96581775Y-74526011D01*
X96477371Y-74273957D01*
X96325799Y-74047114D01*
X96270000Y-73991315D01*
X96270000Y-70001339D01*
X96378386Y-69943405D01*
X96512962Y-69832962D01*
X96623405Y-69698386D01*
X96705472Y-69544850D01*
X96756008Y-69378254D01*
X96773072Y-69205000D01*
X96773072Y-68391730D01*
X97031003Y-68133799D01*
X97060001Y-68110001D01*
X97154974Y-67994276D01*
X97225546Y-67862247D01*
X97269003Y-67718986D01*
X97280000Y-67607333D01*
X97280000Y-67607325D01*
X97283676Y-67570000D01*
X97280000Y-67532675D01*
X97280000Y-62441969D01*
X97306305Y-62431073D01*
X97578188Y-62249406D01*
X97809406Y-62018188D01*
X97925001Y-61845189D01*
X97925001Y-62145983D01*
X97692919Y-62378065D01*
X97500308Y-62666327D01*
X97367636Y-62986627D01*
X97300000Y-63326655D01*
X97300000Y-63673345D01*
X97367636Y-64013373D01*
X97500308Y-64333673D01*
X97692919Y-64621935D01*
X97938065Y-64867081D01*
X98226327Y-65059692D01*
X98546627Y-65192364D01*
X98886655Y-65260000D01*
X99233345Y-65260000D01*
X99310001Y-65244752D01*
X99310000Y-67158661D01*
X99201614Y-67216595D01*
X99067038Y-67327038D01*
X98956595Y-67461614D01*
X98874528Y-67615150D01*
X98823992Y-67781746D01*
X98806928Y-67955000D01*
X98806928Y-69205000D01*
X98823992Y-69378254D01*
X98874528Y-69544850D01*
X98956595Y-69698386D01*
X99067038Y-69832962D01*
X99201614Y-69943405D01*
X99310000Y-70001339D01*
X99310001Y-73825545D01*
X99267114Y-73854201D01*
X99074201Y-74047114D01*
X98922629Y-74273957D01*
X98818225Y-74526011D01*
X98765000Y-74793589D01*
X98765000Y-75066411D01*
X98818225Y-75333989D01*
X98922629Y-75586043D01*
X99074201Y-75812886D01*
X99267114Y-76005799D01*
X99493957Y-76157371D01*
X99746011Y-76261775D01*
X100013589Y-76315000D01*
X100286411Y-76315000D01*
X100553989Y-76261775D01*
X100806043Y-76157371D01*
X101032886Y-76005799D01*
X101225799Y-75812886D01*
X101377371Y-75586043D01*
X101481775Y-75333989D01*
X101535000Y-75066411D01*
X101535000Y-74793589D01*
X101481775Y-74526011D01*
X101377371Y-74273957D01*
X101225799Y-74047114D01*
X101032886Y-73854201D01*
X100830000Y-73718637D01*
X100830000Y-70001339D01*
X100938386Y-69943405D01*
X101072962Y-69832962D01*
X101183405Y-69698386D01*
X101265472Y-69544850D01*
X101292727Y-69455000D01*
X101606928Y-69455000D01*
X101619188Y-69579482D01*
X101655498Y-69699180D01*
X101714463Y-69809494D01*
X101793815Y-69906185D01*
X101890506Y-69985537D01*
X102000820Y-70044502D01*
X102120518Y-70080812D01*
X102245000Y-70093072D01*
X102584250Y-70090000D01*
X102743000Y-69931250D01*
X102743000Y-68707000D01*
X102997000Y-68707000D01*
X102997000Y-69931250D01*
X103155750Y-70090000D01*
X103495000Y-70093072D01*
X103619482Y-70080812D01*
X103739180Y-70044502D01*
X103849494Y-69985537D01*
X103946185Y-69906185D01*
X104025537Y-69809494D01*
X104084502Y-69699180D01*
X104120812Y-69579482D01*
X104133072Y-69455000D01*
X104130000Y-68865750D01*
X103971250Y-68707000D01*
X102997000Y-68707000D01*
X102743000Y-68707000D01*
X101768750Y-68707000D01*
X101610000Y-68865750D01*
X101606928Y-69455000D01*
X101292727Y-69455000D01*
X101316008Y-69378254D01*
X101333072Y-69205000D01*
X101333072Y-67955000D01*
X101316008Y-67781746D01*
X101292728Y-67705000D01*
X101606928Y-67705000D01*
X101610000Y-68294250D01*
X101768750Y-68453000D01*
X102743000Y-68453000D01*
X102743000Y-67228750D01*
X102997000Y-67228750D01*
X102997000Y-68453000D01*
X103971250Y-68453000D01*
X104130000Y-68294250D01*
X104133072Y-67705000D01*
X104120812Y-67580518D01*
X104084502Y-67460820D01*
X104025537Y-67350506D01*
X103946185Y-67253815D01*
X103849494Y-67174463D01*
X103739180Y-67115498D01*
X103619482Y-67079188D01*
X103495000Y-67066928D01*
X103155750Y-67070000D01*
X102997000Y-67228750D01*
X102743000Y-67228750D01*
X102584250Y-67070000D01*
X102245000Y-67066928D01*
X102120518Y-67079188D01*
X102000820Y-67115498D01*
X101890506Y-67174463D01*
X101793815Y-67253815D01*
X101714463Y-67350506D01*
X101655498Y-67460820D01*
X101619188Y-67580518D01*
X101606928Y-67705000D01*
X101292728Y-67705000D01*
X101265472Y-67615150D01*
X101183405Y-67461614D01*
X101072962Y-67327038D01*
X100938386Y-67216595D01*
X100830000Y-67158661D01*
X100830000Y-64547325D01*
X100833676Y-64510000D01*
X100830000Y-64472675D01*
X100830000Y-64472667D01*
X100819003Y-64361014D01*
X100775546Y-64217753D01*
X100714789Y-64104087D01*
X100752364Y-64013373D01*
X100820000Y-63673345D01*
X100820000Y-63326655D01*
X100752364Y-62986627D01*
X100619692Y-62666327D01*
X100427081Y-62378065D01*
X100195000Y-62145984D01*
X100195000Y-59774016D01*
X100427081Y-59541935D01*
X100619692Y-59253673D01*
X100752364Y-58933373D01*
X100820000Y-58593345D01*
X100820000Y-58246655D01*
X100752364Y-57906627D01*
X100619692Y-57586327D01*
X100427081Y-57298065D01*
X100181935Y-57052919D01*
X99893673Y-56860308D01*
X99663579Y-56765000D01*
X103896928Y-56765000D01*
X103909188Y-56889482D01*
X103945498Y-57009180D01*
X104004463Y-57119494D01*
X104083815Y-57216185D01*
X104180506Y-57295537D01*
X104290820Y-57354502D01*
X104410518Y-57390812D01*
X104535000Y-57403072D01*
X105124250Y-57400000D01*
X105283000Y-57241250D01*
X105283000Y-56267000D01*
X105537000Y-56267000D01*
X105537000Y-57241250D01*
X105695750Y-57400000D01*
X106285000Y-57403072D01*
X106409482Y-57390812D01*
X106529180Y-57354502D01*
X106639494Y-57295537D01*
X106736185Y-57216185D01*
X106815537Y-57119494D01*
X106874502Y-57009180D01*
X106910812Y-56889482D01*
X106923072Y-56765000D01*
X106920000Y-56425750D01*
X106761250Y-56267000D01*
X105537000Y-56267000D01*
X105283000Y-56267000D01*
X104058750Y-56267000D01*
X103900000Y-56425750D01*
X103896928Y-56765000D01*
X99663579Y-56765000D01*
X99573373Y-56727636D01*
X99233345Y-56660000D01*
X98886655Y-56660000D01*
X98546627Y-56727636D01*
X98226327Y-56860308D01*
X97938065Y-57052919D01*
X97705984Y-57285000D01*
X95334016Y-57285000D01*
X95101935Y-57052919D01*
X94813673Y-56860308D01*
X94493373Y-56727636D01*
X94153345Y-56660000D01*
X93806655Y-56660000D01*
X93466627Y-56727636D01*
X93146327Y-56860308D01*
X92858065Y-57052919D01*
X92612919Y-57298065D01*
X92420308Y-57586327D01*
X92287636Y-57906627D01*
X92220000Y-58246655D01*
X86487000Y-58246655D01*
X86487000Y-55515000D01*
X103896928Y-55515000D01*
X103900000Y-55854250D01*
X104058750Y-56013000D01*
X105283000Y-56013000D01*
X105283000Y-55038750D01*
X105537000Y-55038750D01*
X105537000Y-56013000D01*
X106761250Y-56013000D01*
X106920000Y-55854250D01*
X106923072Y-55515000D01*
X106910812Y-55390518D01*
X106874502Y-55270820D01*
X106815537Y-55160506D01*
X106736185Y-55063815D01*
X106639494Y-54984463D01*
X106529180Y-54925498D01*
X106409482Y-54889188D01*
X106285000Y-54876928D01*
X105695750Y-54880000D01*
X105537000Y-55038750D01*
X105283000Y-55038750D01*
X105124250Y-54880000D01*
X104535000Y-54876928D01*
X104410518Y-54889188D01*
X104290820Y-54925498D01*
X104180506Y-54984463D01*
X104083815Y-55063815D01*
X104004463Y-55160506D01*
X103945498Y-55270820D01*
X103909188Y-55390518D01*
X103896928Y-55515000D01*
X86487000Y-55515000D01*
X86487000Y-54737000D01*
X109093000Y-54737000D01*
X109093000Y-79883000D01*
X109093000Y-79883000D01*
G37*
X109093000Y-79883000D02*
X86487000Y-79883000D01*
X86487000Y-69455000D01*
X91446928Y-69455000D01*
X91459188Y-69579482D01*
X91495498Y-69699180D01*
X91554463Y-69809494D01*
X91633815Y-69906185D01*
X91730506Y-69985537D01*
X91840820Y-70044502D01*
X91960518Y-70080812D01*
X92085000Y-70093072D01*
X92424250Y-70090000D01*
X92583000Y-69931250D01*
X92583000Y-68707000D01*
X92837000Y-68707000D01*
X92837000Y-69931250D01*
X92995750Y-70090000D01*
X93335000Y-70093072D01*
X93459482Y-70080812D01*
X93579180Y-70044502D01*
X93689494Y-69985537D01*
X93786185Y-69906185D01*
X93865537Y-69809494D01*
X93924502Y-69699180D01*
X93960812Y-69579482D01*
X93973072Y-69455000D01*
X93970000Y-68865750D01*
X93811250Y-68707000D01*
X92837000Y-68707000D01*
X92583000Y-68707000D01*
X91608750Y-68707000D01*
X91450000Y-68865750D01*
X91446928Y-69455000D01*
X86487000Y-69455000D01*
X86487000Y-67705000D01*
X91446928Y-67705000D01*
X91450000Y-68294250D01*
X91608750Y-68453000D01*
X92583000Y-68453000D01*
X92583000Y-67228750D01*
X92837000Y-67228750D01*
X92837000Y-68453000D01*
X93811250Y-68453000D01*
X93970000Y-68294250D01*
X93973072Y-67705000D01*
X93960812Y-67580518D01*
X93924502Y-67460820D01*
X93865537Y-67350506D01*
X93786185Y-67253815D01*
X93689494Y-67174463D01*
X93579180Y-67115498D01*
X93459482Y-67079188D01*
X93335000Y-67066928D01*
X92995750Y-67070000D01*
X92837000Y-67228750D01*
X92583000Y-67228750D01*
X92424250Y-67070000D01*
X92085000Y-67066928D01*
X91960518Y-67079188D01*
X91840820Y-67115498D01*
X91730506Y-67174463D01*
X91633815Y-67253815D01*
X91554463Y-67350506D01*
X91495498Y-67460820D01*
X91459188Y-67580518D01*
X91446928Y-67705000D01*
X86487000Y-67705000D01*
X86487000Y-58246655D01*
X92220000Y-58246655D01*
X92220000Y-58593345D01*
X92287636Y-58933373D01*
X92420308Y-59253673D01*
X92612919Y-59541935D01*
X92845001Y-59774017D01*
X92845000Y-62145984D01*
X92612919Y-62378065D01*
X92420308Y-62666327D01*
X92287636Y-62986627D01*
X92220000Y-63326655D01*
X92220000Y-63673345D01*
X92287636Y-64013373D01*
X92420308Y-64333673D01*
X92612919Y-64621935D01*
X92858065Y-64867081D01*
X93146327Y-65059692D01*
X93466627Y-65192364D01*
X93806655Y-65260000D01*
X94153345Y-65260000D01*
X94493373Y-65192364D01*
X94813673Y-65059692D01*
X95101935Y-64867081D01*
X95347081Y-64621935D01*
X95539692Y-64333673D01*
X95672364Y-64013373D01*
X95740000Y-63673345D01*
X95740000Y-63326655D01*
X95672364Y-62986627D01*
X95539692Y-62666327D01*
X95347081Y-62378065D01*
X95115000Y-62145984D01*
X95115000Y-61845190D01*
X95230594Y-62018188D01*
X95461812Y-62249406D01*
X95733695Y-62431073D01*
X95760000Y-62441969D01*
X95760001Y-67066928D01*
X95135000Y-67066928D01*
X94961746Y-67083992D01*
X94795150Y-67134528D01*
X94641614Y-67216595D01*
X94507038Y-67327038D01*
X94396595Y-67461614D01*
X94314528Y-67615150D01*
X94263992Y-67781746D01*
X94246928Y-67955000D01*
X94246928Y-69205000D01*
X94263992Y-69378254D01*
X94314528Y-69544850D01*
X94396595Y-69698386D01*
X94507038Y-69832962D01*
X94641614Y-69943405D01*
X94750000Y-70001339D01*
X94750001Y-73637994D01*
X94593957Y-73702629D01*
X94367114Y-73854201D01*
X94174201Y-74047114D01*
X94022629Y-74273957D01*
X93918225Y-74526011D01*
X93865000Y-74793589D01*
X93865000Y-75066411D01*
X93918225Y-75333989D01*
X94022629Y-75586043D01*
X94174201Y-75812886D01*
X94367114Y-76005799D01*
X94593957Y-76157371D01*
X94846011Y-76261775D01*
X95113589Y-76315000D01*
X95386411Y-76315000D01*
X95653989Y-76261775D01*
X95906043Y-76157371D01*
X96132886Y-76005799D01*
X96325799Y-75812886D01*
X96477371Y-75586043D01*
X96581775Y-75333989D01*
X96635000Y-75066411D01*
X96635000Y-74793589D01*
X96581775Y-74526011D01*
X96477371Y-74273957D01*
X96325799Y-74047114D01*
X96270000Y-73991315D01*
X96270000Y-70001339D01*
X96378386Y-69943405D01*
X96512962Y-69832962D01*
X96623405Y-69698386D01*
X96705472Y-69544850D01*
X96756008Y-69378254D01*
X96773072Y-69205000D01*
X96773072Y-68391730D01*
X97031003Y-68133799D01*
X97060001Y-68110001D01*
X97154974Y-67994276D01*
X97225546Y-67862247D01*
X97269003Y-67718986D01*
X97280000Y-67607333D01*
X97280000Y-67607325D01*
X97283676Y-67570000D01*
X97280000Y-67532675D01*
X97280000Y-62441969D01*
X97306305Y-62431073D01*
X97578188Y-62249406D01*
X97809406Y-62018188D01*
X97925001Y-61845189D01*
X97925001Y-62145983D01*
X97692919Y-62378065D01*
X97500308Y-62666327D01*
X97367636Y-62986627D01*
X97300000Y-63326655D01*
X97300000Y-63673345D01*
X97367636Y-64013373D01*
X97500308Y-64333673D01*
X97692919Y-64621935D01*
X97938065Y-64867081D01*
X98226327Y-65059692D01*
X98546627Y-65192364D01*
X98886655Y-65260000D01*
X99233345Y-65260000D01*
X99310001Y-65244752D01*
X99310000Y-67158661D01*
X99201614Y-67216595D01*
X99067038Y-67327038D01*
X98956595Y-67461614D01*
X98874528Y-67615150D01*
X98823992Y-67781746D01*
X98806928Y-67955000D01*
X98806928Y-69205000D01*
X98823992Y-69378254D01*
X98874528Y-69544850D01*
X98956595Y-69698386D01*
X99067038Y-69832962D01*
X99201614Y-69943405D01*
X99310000Y-70001339D01*
X99310001Y-73825545D01*
X99267114Y-73854201D01*
X99074201Y-74047114D01*
X98922629Y-74273957D01*
X98818225Y-74526011D01*
X98765000Y-74793589D01*
X98765000Y-75066411D01*
X98818225Y-75333989D01*
X98922629Y-75586043D01*
X99074201Y-75812886D01*
X99267114Y-76005799D01*
X99493957Y-76157371D01*
X99746011Y-76261775D01*
X100013589Y-76315000D01*
X100286411Y-76315000D01*
X100553989Y-76261775D01*
X100806043Y-76157371D01*
X101032886Y-76005799D01*
X101225799Y-75812886D01*
X101377371Y-75586043D01*
X101481775Y-75333989D01*
X101535000Y-75066411D01*
X101535000Y-74793589D01*
X101481775Y-74526011D01*
X101377371Y-74273957D01*
X101225799Y-74047114D01*
X101032886Y-73854201D01*
X100830000Y-73718637D01*
X100830000Y-70001339D01*
X100938386Y-69943405D01*
X101072962Y-69832962D01*
X101183405Y-69698386D01*
X101265472Y-69544850D01*
X101292727Y-69455000D01*
X101606928Y-69455000D01*
X101619188Y-69579482D01*
X101655498Y-69699180D01*
X101714463Y-69809494D01*
X101793815Y-69906185D01*
X101890506Y-69985537D01*
X102000820Y-70044502D01*
X102120518Y-70080812D01*
X102245000Y-70093072D01*
X102584250Y-70090000D01*
X102743000Y-69931250D01*
X102743000Y-68707000D01*
X102997000Y-68707000D01*
X102997000Y-69931250D01*
X103155750Y-70090000D01*
X103495000Y-70093072D01*
X103619482Y-70080812D01*
X103739180Y-70044502D01*
X103849494Y-69985537D01*
X103946185Y-69906185D01*
X104025537Y-69809494D01*
X104084502Y-69699180D01*
X104120812Y-69579482D01*
X104133072Y-69455000D01*
X104130000Y-68865750D01*
X103971250Y-68707000D01*
X102997000Y-68707000D01*
X102743000Y-68707000D01*
X101768750Y-68707000D01*
X101610000Y-68865750D01*
X101606928Y-69455000D01*
X101292727Y-69455000D01*
X101316008Y-69378254D01*
X101333072Y-69205000D01*
X101333072Y-67955000D01*
X101316008Y-67781746D01*
X101292728Y-67705000D01*
X101606928Y-67705000D01*
X101610000Y-68294250D01*
X101768750Y-68453000D01*
X102743000Y-68453000D01*
X102743000Y-67228750D01*
X102997000Y-67228750D01*
X102997000Y-68453000D01*
X103971250Y-68453000D01*
X104130000Y-68294250D01*
X104133072Y-67705000D01*
X104120812Y-67580518D01*
X104084502Y-67460820D01*
X104025537Y-67350506D01*
X103946185Y-67253815D01*
X103849494Y-67174463D01*
X103739180Y-67115498D01*
X103619482Y-67079188D01*
X103495000Y-67066928D01*
X103155750Y-67070000D01*
X102997000Y-67228750D01*
X102743000Y-67228750D01*
X102584250Y-67070000D01*
X102245000Y-67066928D01*
X102120518Y-67079188D01*
X102000820Y-67115498D01*
X101890506Y-67174463D01*
X101793815Y-67253815D01*
X101714463Y-67350506D01*
X101655498Y-67460820D01*
X101619188Y-67580518D01*
X101606928Y-67705000D01*
X101292728Y-67705000D01*
X101265472Y-67615150D01*
X101183405Y-67461614D01*
X101072962Y-67327038D01*
X100938386Y-67216595D01*
X100830000Y-67158661D01*
X100830000Y-64547325D01*
X100833676Y-64510000D01*
X100830000Y-64472675D01*
X100830000Y-64472667D01*
X100819003Y-64361014D01*
X100775546Y-64217753D01*
X100714789Y-64104087D01*
X100752364Y-64013373D01*
X100820000Y-63673345D01*
X100820000Y-63326655D01*
X100752364Y-62986627D01*
X100619692Y-62666327D01*
X100427081Y-62378065D01*
X100195000Y-62145984D01*
X100195000Y-59774016D01*
X100427081Y-59541935D01*
X100619692Y-59253673D01*
X100752364Y-58933373D01*
X100820000Y-58593345D01*
X100820000Y-58246655D01*
X100752364Y-57906627D01*
X100619692Y-57586327D01*
X100427081Y-57298065D01*
X100181935Y-57052919D01*
X99893673Y-56860308D01*
X99663579Y-56765000D01*
X103896928Y-56765000D01*
X103909188Y-56889482D01*
X103945498Y-57009180D01*
X104004463Y-57119494D01*
X104083815Y-57216185D01*
X104180506Y-57295537D01*
X104290820Y-57354502D01*
X104410518Y-57390812D01*
X104535000Y-57403072D01*
X105124250Y-57400000D01*
X105283000Y-57241250D01*
X105283000Y-56267000D01*
X105537000Y-56267000D01*
X105537000Y-57241250D01*
X105695750Y-57400000D01*
X106285000Y-57403072D01*
X106409482Y-57390812D01*
X106529180Y-57354502D01*
X106639494Y-57295537D01*
X106736185Y-57216185D01*
X106815537Y-57119494D01*
X106874502Y-57009180D01*
X106910812Y-56889482D01*
X106923072Y-56765000D01*
X106920000Y-56425750D01*
X106761250Y-56267000D01*
X105537000Y-56267000D01*
X105283000Y-56267000D01*
X104058750Y-56267000D01*
X103900000Y-56425750D01*
X103896928Y-56765000D01*
X99663579Y-56765000D01*
X99573373Y-56727636D01*
X99233345Y-56660000D01*
X98886655Y-56660000D01*
X98546627Y-56727636D01*
X98226327Y-56860308D01*
X97938065Y-57052919D01*
X97705984Y-57285000D01*
X95334016Y-57285000D01*
X95101935Y-57052919D01*
X94813673Y-56860308D01*
X94493373Y-56727636D01*
X94153345Y-56660000D01*
X93806655Y-56660000D01*
X93466627Y-56727636D01*
X93146327Y-56860308D01*
X92858065Y-57052919D01*
X92612919Y-57298065D01*
X92420308Y-57586327D01*
X92287636Y-57906627D01*
X92220000Y-58246655D01*
X86487000Y-58246655D01*
X86487000Y-55515000D01*
X103896928Y-55515000D01*
X103900000Y-55854250D01*
X104058750Y-56013000D01*
X105283000Y-56013000D01*
X105283000Y-55038750D01*
X105537000Y-55038750D01*
X105537000Y-56013000D01*
X106761250Y-56013000D01*
X106920000Y-55854250D01*
X106923072Y-55515000D01*
X106910812Y-55390518D01*
X106874502Y-55270820D01*
X106815537Y-55160506D01*
X106736185Y-55063815D01*
X106639494Y-54984463D01*
X106529180Y-54925498D01*
X106409482Y-54889188D01*
X106285000Y-54876928D01*
X105695750Y-54880000D01*
X105537000Y-55038750D01*
X105283000Y-55038750D01*
X105124250Y-54880000D01*
X104535000Y-54876928D01*
X104410518Y-54889188D01*
X104290820Y-54925498D01*
X104180506Y-54984463D01*
X104083815Y-55063815D01*
X104004463Y-55160506D01*
X103945498Y-55270820D01*
X103909188Y-55390518D01*
X103896928Y-55515000D01*
X86487000Y-55515000D01*
X86487000Y-54737000D01*
X109093000Y-54737000D01*
X109093000Y-79883000D01*
M02*
