G04 #@! TF.GenerationSoftware,KiCad,Pcbnew,(5.1.2-1)-1*
G04 #@! TF.CreationDate,2021-12-03T18:04:06-05:00*
G04 #@! TF.ProjectId,TMP76C75T,544d5037-3643-4373-9554-2e6b69636164,rev?*
G04 #@! TF.SameCoordinates,Original*
G04 #@! TF.FileFunction,Paste,Top*
G04 #@! TF.FilePolarity,Positive*
%FSLAX46Y46*%
G04 Gerber Fmt 4.6, Leading zero omitted, Abs format (unit mm)*
G04 Created by KiCad (PCBNEW (5.1.2-1)-1) date 2021-12-03 18:04:06*
%MOMM*%
%LPD*%
G04 APERTURE LIST*
%ADD10C,0.100000*%
%ADD11C,3.025000*%
%ADD12C,1.250000*%
G04 APERTURE END LIST*
D10*
G36*
X180329503Y-114616204D02*
G01*
X180353772Y-114619804D01*
X180377570Y-114625765D01*
X180400670Y-114634030D01*
X180422849Y-114644520D01*
X180443892Y-114657133D01*
X180463598Y-114671748D01*
X180481776Y-114688224D01*
X180498252Y-114706402D01*
X180512867Y-114726108D01*
X180525480Y-114747151D01*
X180535970Y-114769330D01*
X180544235Y-114792430D01*
X180550196Y-114816228D01*
X180553796Y-114840497D01*
X180555000Y-114865001D01*
X180555000Y-118814999D01*
X180553796Y-118839503D01*
X180550196Y-118863772D01*
X180544235Y-118887570D01*
X180535970Y-118910670D01*
X180525480Y-118932849D01*
X180512867Y-118953892D01*
X180498252Y-118973598D01*
X180481776Y-118991776D01*
X180463598Y-119008252D01*
X180443892Y-119022867D01*
X180422849Y-119035480D01*
X180400670Y-119045970D01*
X180377570Y-119054235D01*
X180353772Y-119060196D01*
X180329503Y-119063796D01*
X180304999Y-119065000D01*
X177780001Y-119065000D01*
X177755497Y-119063796D01*
X177731228Y-119060196D01*
X177707430Y-119054235D01*
X177684330Y-119045970D01*
X177662151Y-119035480D01*
X177641108Y-119022867D01*
X177621402Y-119008252D01*
X177603224Y-118991776D01*
X177586748Y-118973598D01*
X177572133Y-118953892D01*
X177559520Y-118932849D01*
X177549030Y-118910670D01*
X177540765Y-118887570D01*
X177534804Y-118863772D01*
X177531204Y-118839503D01*
X177530000Y-118814999D01*
X177530000Y-114865001D01*
X177531204Y-114840497D01*
X177534804Y-114816228D01*
X177540765Y-114792430D01*
X177549030Y-114769330D01*
X177559520Y-114747151D01*
X177572133Y-114726108D01*
X177586748Y-114706402D01*
X177603224Y-114688224D01*
X177621402Y-114671748D01*
X177641108Y-114657133D01*
X177662151Y-114644520D01*
X177684330Y-114634030D01*
X177707430Y-114625765D01*
X177731228Y-114619804D01*
X177755497Y-114616204D01*
X177780001Y-114615000D01*
X180304999Y-114615000D01*
X180329503Y-114616204D01*
X180329503Y-114616204D01*
G37*
D11*
X179042500Y-116840000D03*
D10*
G36*
X175304503Y-114616204D02*
G01*
X175328772Y-114619804D01*
X175352570Y-114625765D01*
X175375670Y-114634030D01*
X175397849Y-114644520D01*
X175418892Y-114657133D01*
X175438598Y-114671748D01*
X175456776Y-114688224D01*
X175473252Y-114706402D01*
X175487867Y-114726108D01*
X175500480Y-114747151D01*
X175510970Y-114769330D01*
X175519235Y-114792430D01*
X175525196Y-114816228D01*
X175528796Y-114840497D01*
X175530000Y-114865001D01*
X175530000Y-118814999D01*
X175528796Y-118839503D01*
X175525196Y-118863772D01*
X175519235Y-118887570D01*
X175510970Y-118910670D01*
X175500480Y-118932849D01*
X175487867Y-118953892D01*
X175473252Y-118973598D01*
X175456776Y-118991776D01*
X175438598Y-119008252D01*
X175418892Y-119022867D01*
X175397849Y-119035480D01*
X175375670Y-119045970D01*
X175352570Y-119054235D01*
X175328772Y-119060196D01*
X175304503Y-119063796D01*
X175279999Y-119065000D01*
X172755001Y-119065000D01*
X172730497Y-119063796D01*
X172706228Y-119060196D01*
X172682430Y-119054235D01*
X172659330Y-119045970D01*
X172637151Y-119035480D01*
X172616108Y-119022867D01*
X172596402Y-119008252D01*
X172578224Y-118991776D01*
X172561748Y-118973598D01*
X172547133Y-118953892D01*
X172534520Y-118932849D01*
X172524030Y-118910670D01*
X172515765Y-118887570D01*
X172509804Y-118863772D01*
X172506204Y-118839503D01*
X172505000Y-118814999D01*
X172505000Y-114865001D01*
X172506204Y-114840497D01*
X172509804Y-114816228D01*
X172515765Y-114792430D01*
X172524030Y-114769330D01*
X172534520Y-114747151D01*
X172547133Y-114726108D01*
X172561748Y-114706402D01*
X172578224Y-114688224D01*
X172596402Y-114671748D01*
X172616108Y-114657133D01*
X172637151Y-114644520D01*
X172659330Y-114634030D01*
X172682430Y-114625765D01*
X172706228Y-114619804D01*
X172730497Y-114616204D01*
X172755001Y-114615000D01*
X175279999Y-114615000D01*
X175304503Y-114616204D01*
X175304503Y-114616204D01*
G37*
D11*
X174017500Y-116840000D03*
D10*
G36*
X146579504Y-140096204D02*
G01*
X146603773Y-140099804D01*
X146627571Y-140105765D01*
X146650671Y-140114030D01*
X146672849Y-140124520D01*
X146693893Y-140137133D01*
X146713598Y-140151747D01*
X146731777Y-140168223D01*
X146748253Y-140186402D01*
X146762867Y-140206107D01*
X146775480Y-140227151D01*
X146785970Y-140249329D01*
X146794235Y-140272429D01*
X146800196Y-140296227D01*
X146803796Y-140320496D01*
X146805000Y-140345000D01*
X146805000Y-141595000D01*
X146803796Y-141619504D01*
X146800196Y-141643773D01*
X146794235Y-141667571D01*
X146785970Y-141690671D01*
X146775480Y-141712849D01*
X146762867Y-141733893D01*
X146748253Y-141753598D01*
X146731777Y-141771777D01*
X146713598Y-141788253D01*
X146693893Y-141802867D01*
X146672849Y-141815480D01*
X146650671Y-141825970D01*
X146627571Y-141834235D01*
X146603773Y-141840196D01*
X146579504Y-141843796D01*
X146555000Y-141845000D01*
X145805000Y-141845000D01*
X145780496Y-141843796D01*
X145756227Y-141840196D01*
X145732429Y-141834235D01*
X145709329Y-141825970D01*
X145687151Y-141815480D01*
X145666107Y-141802867D01*
X145646402Y-141788253D01*
X145628223Y-141771777D01*
X145611747Y-141753598D01*
X145597133Y-141733893D01*
X145584520Y-141712849D01*
X145574030Y-141690671D01*
X145565765Y-141667571D01*
X145559804Y-141643773D01*
X145556204Y-141619504D01*
X145555000Y-141595000D01*
X145555000Y-140345000D01*
X145556204Y-140320496D01*
X145559804Y-140296227D01*
X145565765Y-140272429D01*
X145574030Y-140249329D01*
X145584520Y-140227151D01*
X145597133Y-140206107D01*
X145611747Y-140186402D01*
X145628223Y-140168223D01*
X145646402Y-140151747D01*
X145666107Y-140137133D01*
X145687151Y-140124520D01*
X145709329Y-140114030D01*
X145732429Y-140105765D01*
X145756227Y-140099804D01*
X145780496Y-140096204D01*
X145805000Y-140095000D01*
X146555000Y-140095000D01*
X146579504Y-140096204D01*
X146579504Y-140096204D01*
G37*
D12*
X146180000Y-140970000D03*
D10*
G36*
X143779504Y-140096204D02*
G01*
X143803773Y-140099804D01*
X143827571Y-140105765D01*
X143850671Y-140114030D01*
X143872849Y-140124520D01*
X143893893Y-140137133D01*
X143913598Y-140151747D01*
X143931777Y-140168223D01*
X143948253Y-140186402D01*
X143962867Y-140206107D01*
X143975480Y-140227151D01*
X143985970Y-140249329D01*
X143994235Y-140272429D01*
X144000196Y-140296227D01*
X144003796Y-140320496D01*
X144005000Y-140345000D01*
X144005000Y-141595000D01*
X144003796Y-141619504D01*
X144000196Y-141643773D01*
X143994235Y-141667571D01*
X143985970Y-141690671D01*
X143975480Y-141712849D01*
X143962867Y-141733893D01*
X143948253Y-141753598D01*
X143931777Y-141771777D01*
X143913598Y-141788253D01*
X143893893Y-141802867D01*
X143872849Y-141815480D01*
X143850671Y-141825970D01*
X143827571Y-141834235D01*
X143803773Y-141840196D01*
X143779504Y-141843796D01*
X143755000Y-141845000D01*
X143005000Y-141845000D01*
X142980496Y-141843796D01*
X142956227Y-141840196D01*
X142932429Y-141834235D01*
X142909329Y-141825970D01*
X142887151Y-141815480D01*
X142866107Y-141802867D01*
X142846402Y-141788253D01*
X142828223Y-141771777D01*
X142811747Y-141753598D01*
X142797133Y-141733893D01*
X142784520Y-141712849D01*
X142774030Y-141690671D01*
X142765765Y-141667571D01*
X142759804Y-141643773D01*
X142756204Y-141619504D01*
X142755000Y-141595000D01*
X142755000Y-140345000D01*
X142756204Y-140320496D01*
X142759804Y-140296227D01*
X142765765Y-140272429D01*
X142774030Y-140249329D01*
X142784520Y-140227151D01*
X142797133Y-140206107D01*
X142811747Y-140186402D01*
X142828223Y-140168223D01*
X142846402Y-140151747D01*
X142866107Y-140137133D01*
X142887151Y-140124520D01*
X142909329Y-140114030D01*
X142932429Y-140105765D01*
X142956227Y-140099804D01*
X142980496Y-140096204D01*
X143005000Y-140095000D01*
X143755000Y-140095000D01*
X143779504Y-140096204D01*
X143779504Y-140096204D01*
G37*
D12*
X143380000Y-140970000D03*
D10*
G36*
X159399504Y-141616204D02*
G01*
X159423773Y-141619804D01*
X159447571Y-141625765D01*
X159470671Y-141634030D01*
X159492849Y-141644520D01*
X159513893Y-141657133D01*
X159533598Y-141671747D01*
X159551777Y-141688223D01*
X159568253Y-141706402D01*
X159582867Y-141726107D01*
X159595480Y-141747151D01*
X159605970Y-141769329D01*
X159614235Y-141792429D01*
X159620196Y-141816227D01*
X159623796Y-141840496D01*
X159625000Y-141865000D01*
X159625000Y-142615000D01*
X159623796Y-142639504D01*
X159620196Y-142663773D01*
X159614235Y-142687571D01*
X159605970Y-142710671D01*
X159595480Y-142732849D01*
X159582867Y-142753893D01*
X159568253Y-142773598D01*
X159551777Y-142791777D01*
X159533598Y-142808253D01*
X159513893Y-142822867D01*
X159492849Y-142835480D01*
X159470671Y-142845970D01*
X159447571Y-142854235D01*
X159423773Y-142860196D01*
X159399504Y-142863796D01*
X159375000Y-142865000D01*
X158125000Y-142865000D01*
X158100496Y-142863796D01*
X158076227Y-142860196D01*
X158052429Y-142854235D01*
X158029329Y-142845970D01*
X158007151Y-142835480D01*
X157986107Y-142822867D01*
X157966402Y-142808253D01*
X157948223Y-142791777D01*
X157931747Y-142773598D01*
X157917133Y-142753893D01*
X157904520Y-142732849D01*
X157894030Y-142710671D01*
X157885765Y-142687571D01*
X157879804Y-142663773D01*
X157876204Y-142639504D01*
X157875000Y-142615000D01*
X157875000Y-141865000D01*
X157876204Y-141840496D01*
X157879804Y-141816227D01*
X157885765Y-141792429D01*
X157894030Y-141769329D01*
X157904520Y-141747151D01*
X157917133Y-141726107D01*
X157931747Y-141706402D01*
X157948223Y-141688223D01*
X157966402Y-141671747D01*
X157986107Y-141657133D01*
X158007151Y-141644520D01*
X158029329Y-141634030D01*
X158052429Y-141625765D01*
X158076227Y-141619804D01*
X158100496Y-141616204D01*
X158125000Y-141615000D01*
X159375000Y-141615000D01*
X159399504Y-141616204D01*
X159399504Y-141616204D01*
G37*
D12*
X158750000Y-142240000D03*
D10*
G36*
X159399504Y-138816204D02*
G01*
X159423773Y-138819804D01*
X159447571Y-138825765D01*
X159470671Y-138834030D01*
X159492849Y-138844520D01*
X159513893Y-138857133D01*
X159533598Y-138871747D01*
X159551777Y-138888223D01*
X159568253Y-138906402D01*
X159582867Y-138926107D01*
X159595480Y-138947151D01*
X159605970Y-138969329D01*
X159614235Y-138992429D01*
X159620196Y-139016227D01*
X159623796Y-139040496D01*
X159625000Y-139065000D01*
X159625000Y-139815000D01*
X159623796Y-139839504D01*
X159620196Y-139863773D01*
X159614235Y-139887571D01*
X159605970Y-139910671D01*
X159595480Y-139932849D01*
X159582867Y-139953893D01*
X159568253Y-139973598D01*
X159551777Y-139991777D01*
X159533598Y-140008253D01*
X159513893Y-140022867D01*
X159492849Y-140035480D01*
X159470671Y-140045970D01*
X159447571Y-140054235D01*
X159423773Y-140060196D01*
X159399504Y-140063796D01*
X159375000Y-140065000D01*
X158125000Y-140065000D01*
X158100496Y-140063796D01*
X158076227Y-140060196D01*
X158052429Y-140054235D01*
X158029329Y-140045970D01*
X158007151Y-140035480D01*
X157986107Y-140022867D01*
X157966402Y-140008253D01*
X157948223Y-139991777D01*
X157931747Y-139973598D01*
X157917133Y-139953893D01*
X157904520Y-139932849D01*
X157894030Y-139910671D01*
X157885765Y-139887571D01*
X157879804Y-139863773D01*
X157876204Y-139839504D01*
X157875000Y-139815000D01*
X157875000Y-139065000D01*
X157876204Y-139040496D01*
X157879804Y-139016227D01*
X157885765Y-138992429D01*
X157894030Y-138969329D01*
X157904520Y-138947151D01*
X157917133Y-138926107D01*
X157931747Y-138906402D01*
X157948223Y-138888223D01*
X157966402Y-138871747D01*
X157986107Y-138857133D01*
X158007151Y-138844520D01*
X158029329Y-138834030D01*
X158052429Y-138825765D01*
X158076227Y-138819804D01*
X158100496Y-138816204D01*
X158125000Y-138815000D01*
X159375000Y-138815000D01*
X159399504Y-138816204D01*
X159399504Y-138816204D01*
G37*
D12*
X158750000Y-139440000D03*
D10*
G36*
X170839504Y-123586204D02*
G01*
X170863773Y-123589804D01*
X170887571Y-123595765D01*
X170910671Y-123604030D01*
X170932849Y-123614520D01*
X170953893Y-123627133D01*
X170973598Y-123641747D01*
X170991777Y-123658223D01*
X171008253Y-123676402D01*
X171022867Y-123696107D01*
X171035480Y-123717151D01*
X171045970Y-123739329D01*
X171054235Y-123762429D01*
X171060196Y-123786227D01*
X171063796Y-123810496D01*
X171065000Y-123835000D01*
X171065000Y-125085000D01*
X171063796Y-125109504D01*
X171060196Y-125133773D01*
X171054235Y-125157571D01*
X171045970Y-125180671D01*
X171035480Y-125202849D01*
X171022867Y-125223893D01*
X171008253Y-125243598D01*
X170991777Y-125261777D01*
X170973598Y-125278253D01*
X170953893Y-125292867D01*
X170932849Y-125305480D01*
X170910671Y-125315970D01*
X170887571Y-125324235D01*
X170863773Y-125330196D01*
X170839504Y-125333796D01*
X170815000Y-125335000D01*
X170065000Y-125335000D01*
X170040496Y-125333796D01*
X170016227Y-125330196D01*
X169992429Y-125324235D01*
X169969329Y-125315970D01*
X169947151Y-125305480D01*
X169926107Y-125292867D01*
X169906402Y-125278253D01*
X169888223Y-125261777D01*
X169871747Y-125243598D01*
X169857133Y-125223893D01*
X169844520Y-125202849D01*
X169834030Y-125180671D01*
X169825765Y-125157571D01*
X169819804Y-125133773D01*
X169816204Y-125109504D01*
X169815000Y-125085000D01*
X169815000Y-123835000D01*
X169816204Y-123810496D01*
X169819804Y-123786227D01*
X169825765Y-123762429D01*
X169834030Y-123739329D01*
X169844520Y-123717151D01*
X169857133Y-123696107D01*
X169871747Y-123676402D01*
X169888223Y-123658223D01*
X169906402Y-123641747D01*
X169926107Y-123627133D01*
X169947151Y-123614520D01*
X169969329Y-123604030D01*
X169992429Y-123595765D01*
X170016227Y-123589804D01*
X170040496Y-123586204D01*
X170065000Y-123585000D01*
X170815000Y-123585000D01*
X170839504Y-123586204D01*
X170839504Y-123586204D01*
G37*
D12*
X170440000Y-124460000D03*
D10*
G36*
X168039504Y-123586204D02*
G01*
X168063773Y-123589804D01*
X168087571Y-123595765D01*
X168110671Y-123604030D01*
X168132849Y-123614520D01*
X168153893Y-123627133D01*
X168173598Y-123641747D01*
X168191777Y-123658223D01*
X168208253Y-123676402D01*
X168222867Y-123696107D01*
X168235480Y-123717151D01*
X168245970Y-123739329D01*
X168254235Y-123762429D01*
X168260196Y-123786227D01*
X168263796Y-123810496D01*
X168265000Y-123835000D01*
X168265000Y-125085000D01*
X168263796Y-125109504D01*
X168260196Y-125133773D01*
X168254235Y-125157571D01*
X168245970Y-125180671D01*
X168235480Y-125202849D01*
X168222867Y-125223893D01*
X168208253Y-125243598D01*
X168191777Y-125261777D01*
X168173598Y-125278253D01*
X168153893Y-125292867D01*
X168132849Y-125305480D01*
X168110671Y-125315970D01*
X168087571Y-125324235D01*
X168063773Y-125330196D01*
X168039504Y-125333796D01*
X168015000Y-125335000D01*
X167265000Y-125335000D01*
X167240496Y-125333796D01*
X167216227Y-125330196D01*
X167192429Y-125324235D01*
X167169329Y-125315970D01*
X167147151Y-125305480D01*
X167126107Y-125292867D01*
X167106402Y-125278253D01*
X167088223Y-125261777D01*
X167071747Y-125243598D01*
X167057133Y-125223893D01*
X167044520Y-125202849D01*
X167034030Y-125180671D01*
X167025765Y-125157571D01*
X167019804Y-125133773D01*
X167016204Y-125109504D01*
X167015000Y-125085000D01*
X167015000Y-123835000D01*
X167016204Y-123810496D01*
X167019804Y-123786227D01*
X167025765Y-123762429D01*
X167034030Y-123739329D01*
X167044520Y-123717151D01*
X167057133Y-123696107D01*
X167071747Y-123676402D01*
X167088223Y-123658223D01*
X167106402Y-123641747D01*
X167126107Y-123627133D01*
X167147151Y-123614520D01*
X167169329Y-123604030D01*
X167192429Y-123595765D01*
X167216227Y-123589804D01*
X167240496Y-123586204D01*
X167265000Y-123585000D01*
X168015000Y-123585000D01*
X168039504Y-123586204D01*
X168039504Y-123586204D01*
G37*
D12*
X167640000Y-124460000D03*
D10*
G36*
X94629504Y-141616204D02*
G01*
X94653773Y-141619804D01*
X94677571Y-141625765D01*
X94700671Y-141634030D01*
X94722849Y-141644520D01*
X94743893Y-141657133D01*
X94763598Y-141671747D01*
X94781777Y-141688223D01*
X94798253Y-141706402D01*
X94812867Y-141726107D01*
X94825480Y-141747151D01*
X94835970Y-141769329D01*
X94844235Y-141792429D01*
X94850196Y-141816227D01*
X94853796Y-141840496D01*
X94855000Y-141865000D01*
X94855000Y-142615000D01*
X94853796Y-142639504D01*
X94850196Y-142663773D01*
X94844235Y-142687571D01*
X94835970Y-142710671D01*
X94825480Y-142732849D01*
X94812867Y-142753893D01*
X94798253Y-142773598D01*
X94781777Y-142791777D01*
X94763598Y-142808253D01*
X94743893Y-142822867D01*
X94722849Y-142835480D01*
X94700671Y-142845970D01*
X94677571Y-142854235D01*
X94653773Y-142860196D01*
X94629504Y-142863796D01*
X94605000Y-142865000D01*
X93355000Y-142865000D01*
X93330496Y-142863796D01*
X93306227Y-142860196D01*
X93282429Y-142854235D01*
X93259329Y-142845970D01*
X93237151Y-142835480D01*
X93216107Y-142822867D01*
X93196402Y-142808253D01*
X93178223Y-142791777D01*
X93161747Y-142773598D01*
X93147133Y-142753893D01*
X93134520Y-142732849D01*
X93124030Y-142710671D01*
X93115765Y-142687571D01*
X93109804Y-142663773D01*
X93106204Y-142639504D01*
X93105000Y-142615000D01*
X93105000Y-141865000D01*
X93106204Y-141840496D01*
X93109804Y-141816227D01*
X93115765Y-141792429D01*
X93124030Y-141769329D01*
X93134520Y-141747151D01*
X93147133Y-141726107D01*
X93161747Y-141706402D01*
X93178223Y-141688223D01*
X93196402Y-141671747D01*
X93216107Y-141657133D01*
X93237151Y-141644520D01*
X93259329Y-141634030D01*
X93282429Y-141625765D01*
X93306227Y-141619804D01*
X93330496Y-141616204D01*
X93355000Y-141615000D01*
X94605000Y-141615000D01*
X94629504Y-141616204D01*
X94629504Y-141616204D01*
G37*
D12*
X93980000Y-142240000D03*
D10*
G36*
X94629504Y-138816204D02*
G01*
X94653773Y-138819804D01*
X94677571Y-138825765D01*
X94700671Y-138834030D01*
X94722849Y-138844520D01*
X94743893Y-138857133D01*
X94763598Y-138871747D01*
X94781777Y-138888223D01*
X94798253Y-138906402D01*
X94812867Y-138926107D01*
X94825480Y-138947151D01*
X94835970Y-138969329D01*
X94844235Y-138992429D01*
X94850196Y-139016227D01*
X94853796Y-139040496D01*
X94855000Y-139065000D01*
X94855000Y-139815000D01*
X94853796Y-139839504D01*
X94850196Y-139863773D01*
X94844235Y-139887571D01*
X94835970Y-139910671D01*
X94825480Y-139932849D01*
X94812867Y-139953893D01*
X94798253Y-139973598D01*
X94781777Y-139991777D01*
X94763598Y-140008253D01*
X94743893Y-140022867D01*
X94722849Y-140035480D01*
X94700671Y-140045970D01*
X94677571Y-140054235D01*
X94653773Y-140060196D01*
X94629504Y-140063796D01*
X94605000Y-140065000D01*
X93355000Y-140065000D01*
X93330496Y-140063796D01*
X93306227Y-140060196D01*
X93282429Y-140054235D01*
X93259329Y-140045970D01*
X93237151Y-140035480D01*
X93216107Y-140022867D01*
X93196402Y-140008253D01*
X93178223Y-139991777D01*
X93161747Y-139973598D01*
X93147133Y-139953893D01*
X93134520Y-139932849D01*
X93124030Y-139910671D01*
X93115765Y-139887571D01*
X93109804Y-139863773D01*
X93106204Y-139839504D01*
X93105000Y-139815000D01*
X93105000Y-139065000D01*
X93106204Y-139040496D01*
X93109804Y-139016227D01*
X93115765Y-138992429D01*
X93124030Y-138969329D01*
X93134520Y-138947151D01*
X93147133Y-138926107D01*
X93161747Y-138906402D01*
X93178223Y-138888223D01*
X93196402Y-138871747D01*
X93216107Y-138857133D01*
X93237151Y-138844520D01*
X93259329Y-138834030D01*
X93282429Y-138825765D01*
X93306227Y-138819804D01*
X93330496Y-138816204D01*
X93355000Y-138815000D01*
X94605000Y-138815000D01*
X94629504Y-138816204D01*
X94629504Y-138816204D01*
G37*
D12*
X93980000Y-139440000D03*
D10*
G36*
X85489504Y-98186204D02*
G01*
X85513773Y-98189804D01*
X85537571Y-98195765D01*
X85560671Y-98204030D01*
X85582849Y-98214520D01*
X85603893Y-98227133D01*
X85623598Y-98241747D01*
X85641777Y-98258223D01*
X85658253Y-98276402D01*
X85672867Y-98296107D01*
X85685480Y-98317151D01*
X85695970Y-98339329D01*
X85704235Y-98362429D01*
X85710196Y-98386227D01*
X85713796Y-98410496D01*
X85715000Y-98435000D01*
X85715000Y-99685000D01*
X85713796Y-99709504D01*
X85710196Y-99733773D01*
X85704235Y-99757571D01*
X85695970Y-99780671D01*
X85685480Y-99802849D01*
X85672867Y-99823893D01*
X85658253Y-99843598D01*
X85641777Y-99861777D01*
X85623598Y-99878253D01*
X85603893Y-99892867D01*
X85582849Y-99905480D01*
X85560671Y-99915970D01*
X85537571Y-99924235D01*
X85513773Y-99930196D01*
X85489504Y-99933796D01*
X85465000Y-99935000D01*
X84715000Y-99935000D01*
X84690496Y-99933796D01*
X84666227Y-99930196D01*
X84642429Y-99924235D01*
X84619329Y-99915970D01*
X84597151Y-99905480D01*
X84576107Y-99892867D01*
X84556402Y-99878253D01*
X84538223Y-99861777D01*
X84521747Y-99843598D01*
X84507133Y-99823893D01*
X84494520Y-99802849D01*
X84484030Y-99780671D01*
X84475765Y-99757571D01*
X84469804Y-99733773D01*
X84466204Y-99709504D01*
X84465000Y-99685000D01*
X84465000Y-98435000D01*
X84466204Y-98410496D01*
X84469804Y-98386227D01*
X84475765Y-98362429D01*
X84484030Y-98339329D01*
X84494520Y-98317151D01*
X84507133Y-98296107D01*
X84521747Y-98276402D01*
X84538223Y-98258223D01*
X84556402Y-98241747D01*
X84576107Y-98227133D01*
X84597151Y-98214520D01*
X84619329Y-98204030D01*
X84642429Y-98195765D01*
X84666227Y-98189804D01*
X84690496Y-98186204D01*
X84715000Y-98185000D01*
X85465000Y-98185000D01*
X85489504Y-98186204D01*
X85489504Y-98186204D01*
G37*
D12*
X85090000Y-99060000D03*
D10*
G36*
X88289504Y-98186204D02*
G01*
X88313773Y-98189804D01*
X88337571Y-98195765D01*
X88360671Y-98204030D01*
X88382849Y-98214520D01*
X88403893Y-98227133D01*
X88423598Y-98241747D01*
X88441777Y-98258223D01*
X88458253Y-98276402D01*
X88472867Y-98296107D01*
X88485480Y-98317151D01*
X88495970Y-98339329D01*
X88504235Y-98362429D01*
X88510196Y-98386227D01*
X88513796Y-98410496D01*
X88515000Y-98435000D01*
X88515000Y-99685000D01*
X88513796Y-99709504D01*
X88510196Y-99733773D01*
X88504235Y-99757571D01*
X88495970Y-99780671D01*
X88485480Y-99802849D01*
X88472867Y-99823893D01*
X88458253Y-99843598D01*
X88441777Y-99861777D01*
X88423598Y-99878253D01*
X88403893Y-99892867D01*
X88382849Y-99905480D01*
X88360671Y-99915970D01*
X88337571Y-99924235D01*
X88313773Y-99930196D01*
X88289504Y-99933796D01*
X88265000Y-99935000D01*
X87515000Y-99935000D01*
X87490496Y-99933796D01*
X87466227Y-99930196D01*
X87442429Y-99924235D01*
X87419329Y-99915970D01*
X87397151Y-99905480D01*
X87376107Y-99892867D01*
X87356402Y-99878253D01*
X87338223Y-99861777D01*
X87321747Y-99843598D01*
X87307133Y-99823893D01*
X87294520Y-99802849D01*
X87284030Y-99780671D01*
X87275765Y-99757571D01*
X87269804Y-99733773D01*
X87266204Y-99709504D01*
X87265000Y-99685000D01*
X87265000Y-98435000D01*
X87266204Y-98410496D01*
X87269804Y-98386227D01*
X87275765Y-98362429D01*
X87284030Y-98339329D01*
X87294520Y-98317151D01*
X87307133Y-98296107D01*
X87321747Y-98276402D01*
X87338223Y-98258223D01*
X87356402Y-98241747D01*
X87376107Y-98227133D01*
X87397151Y-98214520D01*
X87419329Y-98204030D01*
X87442429Y-98195765D01*
X87466227Y-98189804D01*
X87490496Y-98186204D01*
X87515000Y-98185000D01*
X88265000Y-98185000D01*
X88289504Y-98186204D01*
X88289504Y-98186204D01*
G37*
D12*
X87890000Y-99060000D03*
D10*
G36*
X106059504Y-52716204D02*
G01*
X106083773Y-52719804D01*
X106107571Y-52725765D01*
X106130671Y-52734030D01*
X106152849Y-52744520D01*
X106173893Y-52757133D01*
X106193598Y-52771747D01*
X106211777Y-52788223D01*
X106228253Y-52806402D01*
X106242867Y-52826107D01*
X106255480Y-52847151D01*
X106265970Y-52869329D01*
X106274235Y-52892429D01*
X106280196Y-52916227D01*
X106283796Y-52940496D01*
X106285000Y-52965000D01*
X106285000Y-53715000D01*
X106283796Y-53739504D01*
X106280196Y-53763773D01*
X106274235Y-53787571D01*
X106265970Y-53810671D01*
X106255480Y-53832849D01*
X106242867Y-53853893D01*
X106228253Y-53873598D01*
X106211777Y-53891777D01*
X106193598Y-53908253D01*
X106173893Y-53922867D01*
X106152849Y-53935480D01*
X106130671Y-53945970D01*
X106107571Y-53954235D01*
X106083773Y-53960196D01*
X106059504Y-53963796D01*
X106035000Y-53965000D01*
X104785000Y-53965000D01*
X104760496Y-53963796D01*
X104736227Y-53960196D01*
X104712429Y-53954235D01*
X104689329Y-53945970D01*
X104667151Y-53935480D01*
X104646107Y-53922867D01*
X104626402Y-53908253D01*
X104608223Y-53891777D01*
X104591747Y-53873598D01*
X104577133Y-53853893D01*
X104564520Y-53832849D01*
X104554030Y-53810671D01*
X104545765Y-53787571D01*
X104539804Y-53763773D01*
X104536204Y-53739504D01*
X104535000Y-53715000D01*
X104535000Y-52965000D01*
X104536204Y-52940496D01*
X104539804Y-52916227D01*
X104545765Y-52892429D01*
X104554030Y-52869329D01*
X104564520Y-52847151D01*
X104577133Y-52826107D01*
X104591747Y-52806402D01*
X104608223Y-52788223D01*
X104626402Y-52771747D01*
X104646107Y-52757133D01*
X104667151Y-52744520D01*
X104689329Y-52734030D01*
X104712429Y-52725765D01*
X104736227Y-52719804D01*
X104760496Y-52716204D01*
X104785000Y-52715000D01*
X106035000Y-52715000D01*
X106059504Y-52716204D01*
X106059504Y-52716204D01*
G37*
D12*
X105410000Y-53340000D03*
D10*
G36*
X106059504Y-55516204D02*
G01*
X106083773Y-55519804D01*
X106107571Y-55525765D01*
X106130671Y-55534030D01*
X106152849Y-55544520D01*
X106173893Y-55557133D01*
X106193598Y-55571747D01*
X106211777Y-55588223D01*
X106228253Y-55606402D01*
X106242867Y-55626107D01*
X106255480Y-55647151D01*
X106265970Y-55669329D01*
X106274235Y-55692429D01*
X106280196Y-55716227D01*
X106283796Y-55740496D01*
X106285000Y-55765000D01*
X106285000Y-56515000D01*
X106283796Y-56539504D01*
X106280196Y-56563773D01*
X106274235Y-56587571D01*
X106265970Y-56610671D01*
X106255480Y-56632849D01*
X106242867Y-56653893D01*
X106228253Y-56673598D01*
X106211777Y-56691777D01*
X106193598Y-56708253D01*
X106173893Y-56722867D01*
X106152849Y-56735480D01*
X106130671Y-56745970D01*
X106107571Y-56754235D01*
X106083773Y-56760196D01*
X106059504Y-56763796D01*
X106035000Y-56765000D01*
X104785000Y-56765000D01*
X104760496Y-56763796D01*
X104736227Y-56760196D01*
X104712429Y-56754235D01*
X104689329Y-56745970D01*
X104667151Y-56735480D01*
X104646107Y-56722867D01*
X104626402Y-56708253D01*
X104608223Y-56691777D01*
X104591747Y-56673598D01*
X104577133Y-56653893D01*
X104564520Y-56632849D01*
X104554030Y-56610671D01*
X104545765Y-56587571D01*
X104539804Y-56563773D01*
X104536204Y-56539504D01*
X104535000Y-56515000D01*
X104535000Y-55765000D01*
X104536204Y-55740496D01*
X104539804Y-55716227D01*
X104545765Y-55692429D01*
X104554030Y-55669329D01*
X104564520Y-55647151D01*
X104577133Y-55626107D01*
X104591747Y-55606402D01*
X104608223Y-55588223D01*
X104626402Y-55571747D01*
X104646107Y-55557133D01*
X104667151Y-55544520D01*
X104689329Y-55534030D01*
X104712429Y-55525765D01*
X104736227Y-55519804D01*
X104760496Y-55516204D01*
X104785000Y-55515000D01*
X106035000Y-55515000D01*
X106059504Y-55516204D01*
X106059504Y-55516204D01*
G37*
D12*
X105410000Y-56140000D03*
D10*
G36*
X183529504Y-52456204D02*
G01*
X183553773Y-52459804D01*
X183577571Y-52465765D01*
X183600671Y-52474030D01*
X183622849Y-52484520D01*
X183643893Y-52497133D01*
X183663598Y-52511747D01*
X183681777Y-52528223D01*
X183698253Y-52546402D01*
X183712867Y-52566107D01*
X183725480Y-52587151D01*
X183735970Y-52609329D01*
X183744235Y-52632429D01*
X183750196Y-52656227D01*
X183753796Y-52680496D01*
X183755000Y-52705000D01*
X183755000Y-53455000D01*
X183753796Y-53479504D01*
X183750196Y-53503773D01*
X183744235Y-53527571D01*
X183735970Y-53550671D01*
X183725480Y-53572849D01*
X183712867Y-53593893D01*
X183698253Y-53613598D01*
X183681777Y-53631777D01*
X183663598Y-53648253D01*
X183643893Y-53662867D01*
X183622849Y-53675480D01*
X183600671Y-53685970D01*
X183577571Y-53694235D01*
X183553773Y-53700196D01*
X183529504Y-53703796D01*
X183505000Y-53705000D01*
X182255000Y-53705000D01*
X182230496Y-53703796D01*
X182206227Y-53700196D01*
X182182429Y-53694235D01*
X182159329Y-53685970D01*
X182137151Y-53675480D01*
X182116107Y-53662867D01*
X182096402Y-53648253D01*
X182078223Y-53631777D01*
X182061747Y-53613598D01*
X182047133Y-53593893D01*
X182034520Y-53572849D01*
X182024030Y-53550671D01*
X182015765Y-53527571D01*
X182009804Y-53503773D01*
X182006204Y-53479504D01*
X182005000Y-53455000D01*
X182005000Y-52705000D01*
X182006204Y-52680496D01*
X182009804Y-52656227D01*
X182015765Y-52632429D01*
X182024030Y-52609329D01*
X182034520Y-52587151D01*
X182047133Y-52566107D01*
X182061747Y-52546402D01*
X182078223Y-52528223D01*
X182096402Y-52511747D01*
X182116107Y-52497133D01*
X182137151Y-52484520D01*
X182159329Y-52474030D01*
X182182429Y-52465765D01*
X182206227Y-52459804D01*
X182230496Y-52456204D01*
X182255000Y-52455000D01*
X183505000Y-52455000D01*
X183529504Y-52456204D01*
X183529504Y-52456204D01*
G37*
D12*
X182880000Y-53080000D03*
D10*
G36*
X183529504Y-55256204D02*
G01*
X183553773Y-55259804D01*
X183577571Y-55265765D01*
X183600671Y-55274030D01*
X183622849Y-55284520D01*
X183643893Y-55297133D01*
X183663598Y-55311747D01*
X183681777Y-55328223D01*
X183698253Y-55346402D01*
X183712867Y-55366107D01*
X183725480Y-55387151D01*
X183735970Y-55409329D01*
X183744235Y-55432429D01*
X183750196Y-55456227D01*
X183753796Y-55480496D01*
X183755000Y-55505000D01*
X183755000Y-56255000D01*
X183753796Y-56279504D01*
X183750196Y-56303773D01*
X183744235Y-56327571D01*
X183735970Y-56350671D01*
X183725480Y-56372849D01*
X183712867Y-56393893D01*
X183698253Y-56413598D01*
X183681777Y-56431777D01*
X183663598Y-56448253D01*
X183643893Y-56462867D01*
X183622849Y-56475480D01*
X183600671Y-56485970D01*
X183577571Y-56494235D01*
X183553773Y-56500196D01*
X183529504Y-56503796D01*
X183505000Y-56505000D01*
X182255000Y-56505000D01*
X182230496Y-56503796D01*
X182206227Y-56500196D01*
X182182429Y-56494235D01*
X182159329Y-56485970D01*
X182137151Y-56475480D01*
X182116107Y-56462867D01*
X182096402Y-56448253D01*
X182078223Y-56431777D01*
X182061747Y-56413598D01*
X182047133Y-56393893D01*
X182034520Y-56372849D01*
X182024030Y-56350671D01*
X182015765Y-56327571D01*
X182009804Y-56303773D01*
X182006204Y-56279504D01*
X182005000Y-56255000D01*
X182005000Y-55505000D01*
X182006204Y-55480496D01*
X182009804Y-55456227D01*
X182015765Y-55432429D01*
X182024030Y-55409329D01*
X182034520Y-55387151D01*
X182047133Y-55366107D01*
X182061747Y-55346402D01*
X182078223Y-55328223D01*
X182096402Y-55311747D01*
X182116107Y-55297133D01*
X182137151Y-55284520D01*
X182159329Y-55274030D01*
X182182429Y-55265765D01*
X182206227Y-55259804D01*
X182230496Y-55256204D01*
X182255000Y-55255000D01*
X183505000Y-55255000D01*
X183529504Y-55256204D01*
X183529504Y-55256204D01*
G37*
D12*
X182880000Y-55880000D03*
D10*
G36*
X178199504Y-123586204D02*
G01*
X178223773Y-123589804D01*
X178247571Y-123595765D01*
X178270671Y-123604030D01*
X178292849Y-123614520D01*
X178313893Y-123627133D01*
X178333598Y-123641747D01*
X178351777Y-123658223D01*
X178368253Y-123676402D01*
X178382867Y-123696107D01*
X178395480Y-123717151D01*
X178405970Y-123739329D01*
X178414235Y-123762429D01*
X178420196Y-123786227D01*
X178423796Y-123810496D01*
X178425000Y-123835000D01*
X178425000Y-125085000D01*
X178423796Y-125109504D01*
X178420196Y-125133773D01*
X178414235Y-125157571D01*
X178405970Y-125180671D01*
X178395480Y-125202849D01*
X178382867Y-125223893D01*
X178368253Y-125243598D01*
X178351777Y-125261777D01*
X178333598Y-125278253D01*
X178313893Y-125292867D01*
X178292849Y-125305480D01*
X178270671Y-125315970D01*
X178247571Y-125324235D01*
X178223773Y-125330196D01*
X178199504Y-125333796D01*
X178175000Y-125335000D01*
X177425000Y-125335000D01*
X177400496Y-125333796D01*
X177376227Y-125330196D01*
X177352429Y-125324235D01*
X177329329Y-125315970D01*
X177307151Y-125305480D01*
X177286107Y-125292867D01*
X177266402Y-125278253D01*
X177248223Y-125261777D01*
X177231747Y-125243598D01*
X177217133Y-125223893D01*
X177204520Y-125202849D01*
X177194030Y-125180671D01*
X177185765Y-125157571D01*
X177179804Y-125133773D01*
X177176204Y-125109504D01*
X177175000Y-125085000D01*
X177175000Y-123835000D01*
X177176204Y-123810496D01*
X177179804Y-123786227D01*
X177185765Y-123762429D01*
X177194030Y-123739329D01*
X177204520Y-123717151D01*
X177217133Y-123696107D01*
X177231747Y-123676402D01*
X177248223Y-123658223D01*
X177266402Y-123641747D01*
X177286107Y-123627133D01*
X177307151Y-123614520D01*
X177329329Y-123604030D01*
X177352429Y-123595765D01*
X177376227Y-123589804D01*
X177400496Y-123586204D01*
X177425000Y-123585000D01*
X178175000Y-123585000D01*
X178199504Y-123586204D01*
X178199504Y-123586204D01*
G37*
D12*
X177800000Y-124460000D03*
D10*
G36*
X175399504Y-123586204D02*
G01*
X175423773Y-123589804D01*
X175447571Y-123595765D01*
X175470671Y-123604030D01*
X175492849Y-123614520D01*
X175513893Y-123627133D01*
X175533598Y-123641747D01*
X175551777Y-123658223D01*
X175568253Y-123676402D01*
X175582867Y-123696107D01*
X175595480Y-123717151D01*
X175605970Y-123739329D01*
X175614235Y-123762429D01*
X175620196Y-123786227D01*
X175623796Y-123810496D01*
X175625000Y-123835000D01*
X175625000Y-125085000D01*
X175623796Y-125109504D01*
X175620196Y-125133773D01*
X175614235Y-125157571D01*
X175605970Y-125180671D01*
X175595480Y-125202849D01*
X175582867Y-125223893D01*
X175568253Y-125243598D01*
X175551777Y-125261777D01*
X175533598Y-125278253D01*
X175513893Y-125292867D01*
X175492849Y-125305480D01*
X175470671Y-125315970D01*
X175447571Y-125324235D01*
X175423773Y-125330196D01*
X175399504Y-125333796D01*
X175375000Y-125335000D01*
X174625000Y-125335000D01*
X174600496Y-125333796D01*
X174576227Y-125330196D01*
X174552429Y-125324235D01*
X174529329Y-125315970D01*
X174507151Y-125305480D01*
X174486107Y-125292867D01*
X174466402Y-125278253D01*
X174448223Y-125261777D01*
X174431747Y-125243598D01*
X174417133Y-125223893D01*
X174404520Y-125202849D01*
X174394030Y-125180671D01*
X174385765Y-125157571D01*
X174379804Y-125133773D01*
X174376204Y-125109504D01*
X174375000Y-125085000D01*
X174375000Y-123835000D01*
X174376204Y-123810496D01*
X174379804Y-123786227D01*
X174385765Y-123762429D01*
X174394030Y-123739329D01*
X174404520Y-123717151D01*
X174417133Y-123696107D01*
X174431747Y-123676402D01*
X174448223Y-123658223D01*
X174466402Y-123641747D01*
X174486107Y-123627133D01*
X174507151Y-123614520D01*
X174529329Y-123604030D01*
X174552429Y-123595765D01*
X174576227Y-123589804D01*
X174600496Y-123586204D01*
X174625000Y-123585000D01*
X175375000Y-123585000D01*
X175399504Y-123586204D01*
X175399504Y-123586204D01*
G37*
D12*
X175000000Y-124460000D03*
D10*
G36*
X93109504Y-67706204D02*
G01*
X93133773Y-67709804D01*
X93157571Y-67715765D01*
X93180671Y-67724030D01*
X93202849Y-67734520D01*
X93223893Y-67747133D01*
X93243598Y-67761747D01*
X93261777Y-67778223D01*
X93278253Y-67796402D01*
X93292867Y-67816107D01*
X93305480Y-67837151D01*
X93315970Y-67859329D01*
X93324235Y-67882429D01*
X93330196Y-67906227D01*
X93333796Y-67930496D01*
X93335000Y-67955000D01*
X93335000Y-69205000D01*
X93333796Y-69229504D01*
X93330196Y-69253773D01*
X93324235Y-69277571D01*
X93315970Y-69300671D01*
X93305480Y-69322849D01*
X93292867Y-69343893D01*
X93278253Y-69363598D01*
X93261777Y-69381777D01*
X93243598Y-69398253D01*
X93223893Y-69412867D01*
X93202849Y-69425480D01*
X93180671Y-69435970D01*
X93157571Y-69444235D01*
X93133773Y-69450196D01*
X93109504Y-69453796D01*
X93085000Y-69455000D01*
X92335000Y-69455000D01*
X92310496Y-69453796D01*
X92286227Y-69450196D01*
X92262429Y-69444235D01*
X92239329Y-69435970D01*
X92217151Y-69425480D01*
X92196107Y-69412867D01*
X92176402Y-69398253D01*
X92158223Y-69381777D01*
X92141747Y-69363598D01*
X92127133Y-69343893D01*
X92114520Y-69322849D01*
X92104030Y-69300671D01*
X92095765Y-69277571D01*
X92089804Y-69253773D01*
X92086204Y-69229504D01*
X92085000Y-69205000D01*
X92085000Y-67955000D01*
X92086204Y-67930496D01*
X92089804Y-67906227D01*
X92095765Y-67882429D01*
X92104030Y-67859329D01*
X92114520Y-67837151D01*
X92127133Y-67816107D01*
X92141747Y-67796402D01*
X92158223Y-67778223D01*
X92176402Y-67761747D01*
X92196107Y-67747133D01*
X92217151Y-67734520D01*
X92239329Y-67724030D01*
X92262429Y-67715765D01*
X92286227Y-67709804D01*
X92310496Y-67706204D01*
X92335000Y-67705000D01*
X93085000Y-67705000D01*
X93109504Y-67706204D01*
X93109504Y-67706204D01*
G37*
D12*
X92710000Y-68580000D03*
D10*
G36*
X95909504Y-67706204D02*
G01*
X95933773Y-67709804D01*
X95957571Y-67715765D01*
X95980671Y-67724030D01*
X96002849Y-67734520D01*
X96023893Y-67747133D01*
X96043598Y-67761747D01*
X96061777Y-67778223D01*
X96078253Y-67796402D01*
X96092867Y-67816107D01*
X96105480Y-67837151D01*
X96115970Y-67859329D01*
X96124235Y-67882429D01*
X96130196Y-67906227D01*
X96133796Y-67930496D01*
X96135000Y-67955000D01*
X96135000Y-69205000D01*
X96133796Y-69229504D01*
X96130196Y-69253773D01*
X96124235Y-69277571D01*
X96115970Y-69300671D01*
X96105480Y-69322849D01*
X96092867Y-69343893D01*
X96078253Y-69363598D01*
X96061777Y-69381777D01*
X96043598Y-69398253D01*
X96023893Y-69412867D01*
X96002849Y-69425480D01*
X95980671Y-69435970D01*
X95957571Y-69444235D01*
X95933773Y-69450196D01*
X95909504Y-69453796D01*
X95885000Y-69455000D01*
X95135000Y-69455000D01*
X95110496Y-69453796D01*
X95086227Y-69450196D01*
X95062429Y-69444235D01*
X95039329Y-69435970D01*
X95017151Y-69425480D01*
X94996107Y-69412867D01*
X94976402Y-69398253D01*
X94958223Y-69381777D01*
X94941747Y-69363598D01*
X94927133Y-69343893D01*
X94914520Y-69322849D01*
X94904030Y-69300671D01*
X94895765Y-69277571D01*
X94889804Y-69253773D01*
X94886204Y-69229504D01*
X94885000Y-69205000D01*
X94885000Y-67955000D01*
X94886204Y-67930496D01*
X94889804Y-67906227D01*
X94895765Y-67882429D01*
X94904030Y-67859329D01*
X94914520Y-67837151D01*
X94927133Y-67816107D01*
X94941747Y-67796402D01*
X94958223Y-67778223D01*
X94976402Y-67761747D01*
X94996107Y-67747133D01*
X95017151Y-67734520D01*
X95039329Y-67724030D01*
X95062429Y-67715765D01*
X95086227Y-67709804D01*
X95110496Y-67706204D01*
X95135000Y-67705000D01*
X95885000Y-67705000D01*
X95909504Y-67706204D01*
X95909504Y-67706204D01*
G37*
D12*
X95510000Y-68580000D03*
D10*
G36*
X100469504Y-67706204D02*
G01*
X100493773Y-67709804D01*
X100517571Y-67715765D01*
X100540671Y-67724030D01*
X100562849Y-67734520D01*
X100583893Y-67747133D01*
X100603598Y-67761747D01*
X100621777Y-67778223D01*
X100638253Y-67796402D01*
X100652867Y-67816107D01*
X100665480Y-67837151D01*
X100675970Y-67859329D01*
X100684235Y-67882429D01*
X100690196Y-67906227D01*
X100693796Y-67930496D01*
X100695000Y-67955000D01*
X100695000Y-69205000D01*
X100693796Y-69229504D01*
X100690196Y-69253773D01*
X100684235Y-69277571D01*
X100675970Y-69300671D01*
X100665480Y-69322849D01*
X100652867Y-69343893D01*
X100638253Y-69363598D01*
X100621777Y-69381777D01*
X100603598Y-69398253D01*
X100583893Y-69412867D01*
X100562849Y-69425480D01*
X100540671Y-69435970D01*
X100517571Y-69444235D01*
X100493773Y-69450196D01*
X100469504Y-69453796D01*
X100445000Y-69455000D01*
X99695000Y-69455000D01*
X99670496Y-69453796D01*
X99646227Y-69450196D01*
X99622429Y-69444235D01*
X99599329Y-69435970D01*
X99577151Y-69425480D01*
X99556107Y-69412867D01*
X99536402Y-69398253D01*
X99518223Y-69381777D01*
X99501747Y-69363598D01*
X99487133Y-69343893D01*
X99474520Y-69322849D01*
X99464030Y-69300671D01*
X99455765Y-69277571D01*
X99449804Y-69253773D01*
X99446204Y-69229504D01*
X99445000Y-69205000D01*
X99445000Y-67955000D01*
X99446204Y-67930496D01*
X99449804Y-67906227D01*
X99455765Y-67882429D01*
X99464030Y-67859329D01*
X99474520Y-67837151D01*
X99487133Y-67816107D01*
X99501747Y-67796402D01*
X99518223Y-67778223D01*
X99536402Y-67761747D01*
X99556107Y-67747133D01*
X99577151Y-67734520D01*
X99599329Y-67724030D01*
X99622429Y-67715765D01*
X99646227Y-67709804D01*
X99670496Y-67706204D01*
X99695000Y-67705000D01*
X100445000Y-67705000D01*
X100469504Y-67706204D01*
X100469504Y-67706204D01*
G37*
D12*
X100070000Y-68580000D03*
D10*
G36*
X103269504Y-67706204D02*
G01*
X103293773Y-67709804D01*
X103317571Y-67715765D01*
X103340671Y-67724030D01*
X103362849Y-67734520D01*
X103383893Y-67747133D01*
X103403598Y-67761747D01*
X103421777Y-67778223D01*
X103438253Y-67796402D01*
X103452867Y-67816107D01*
X103465480Y-67837151D01*
X103475970Y-67859329D01*
X103484235Y-67882429D01*
X103490196Y-67906227D01*
X103493796Y-67930496D01*
X103495000Y-67955000D01*
X103495000Y-69205000D01*
X103493796Y-69229504D01*
X103490196Y-69253773D01*
X103484235Y-69277571D01*
X103475970Y-69300671D01*
X103465480Y-69322849D01*
X103452867Y-69343893D01*
X103438253Y-69363598D01*
X103421777Y-69381777D01*
X103403598Y-69398253D01*
X103383893Y-69412867D01*
X103362849Y-69425480D01*
X103340671Y-69435970D01*
X103317571Y-69444235D01*
X103293773Y-69450196D01*
X103269504Y-69453796D01*
X103245000Y-69455000D01*
X102495000Y-69455000D01*
X102470496Y-69453796D01*
X102446227Y-69450196D01*
X102422429Y-69444235D01*
X102399329Y-69435970D01*
X102377151Y-69425480D01*
X102356107Y-69412867D01*
X102336402Y-69398253D01*
X102318223Y-69381777D01*
X102301747Y-69363598D01*
X102287133Y-69343893D01*
X102274520Y-69322849D01*
X102264030Y-69300671D01*
X102255765Y-69277571D01*
X102249804Y-69253773D01*
X102246204Y-69229504D01*
X102245000Y-69205000D01*
X102245000Y-67955000D01*
X102246204Y-67930496D01*
X102249804Y-67906227D01*
X102255765Y-67882429D01*
X102264030Y-67859329D01*
X102274520Y-67837151D01*
X102287133Y-67816107D01*
X102301747Y-67796402D01*
X102318223Y-67778223D01*
X102336402Y-67761747D01*
X102356107Y-67747133D01*
X102377151Y-67734520D01*
X102399329Y-67724030D01*
X102422429Y-67715765D01*
X102446227Y-67709804D01*
X102470496Y-67706204D01*
X102495000Y-67705000D01*
X103245000Y-67705000D01*
X103269504Y-67706204D01*
X103269504Y-67706204D01*
G37*
D12*
X102870000Y-68580000D03*
M02*
