G04 #@! TF.GenerationSoftware,KiCad,Pcbnew,(5.1.2-1)-1*
G04 #@! TF.CreationDate,2021-12-03T18:04:06-05:00*
G04 #@! TF.ProjectId,TMP76C75T,544d5037-3643-4373-9554-2e6b69636164,rev?*
G04 #@! TF.SameCoordinates,Original*
G04 #@! TF.FileFunction,Copper,L2,Bot*
G04 #@! TF.FilePolarity,Positive*
%FSLAX46Y46*%
G04 Gerber Fmt 4.6, Leading zero omitted, Abs format (unit mm)*
G04 Created by KiCad (PCBNEW (5.1.2-1)-1) date 2021-12-03 18:04:06*
%MOMM*%
%LPD*%
G04 APERTURE LIST*
%ADD10C,1.422400*%
%ADD11R,1.422400X1.422400*%
%ADD12O,1.700000X1.700000*%
%ADD13R,1.700000X1.700000*%
%ADD14O,1.800000X1.800000*%
%ADD15R,1.800000X1.800000*%
%ADD16C,1.600000*%
%ADD17R,1.600000X1.600000*%
%ADD18C,0.100000*%
%ADD19C,3.025000*%
%ADD20C,1.250000*%
%ADD21O,2.000000X3.500000*%
%ADD22O,3.300000X2.000000*%
%ADD23R,4.000000X2.000000*%
%ADD24O,2.000000X1.905000*%
%ADD25R,2.000000X1.905000*%
%ADD26O,1.600000X1.600000*%
%ADD27C,2.000000*%
%ADD28C,1.500000*%
%ADD29C,2.250000*%
%ADD30C,2.050000*%
%ADD31C,0.800000*%
%ADD32C,0.250000*%
%ADD33C,1.000000*%
%ADD34C,0.254000*%
G04 APERTURE END LIST*
D10*
X184150000Y-72390000D03*
X184150000Y-74930000D03*
X184150000Y-77470000D03*
X184150000Y-80010000D03*
X184150000Y-82550000D03*
X181610000Y-69850000D03*
X181610000Y-74930000D03*
X181610000Y-77470000D03*
X181610000Y-80010000D03*
X181610000Y-82550000D03*
X181610000Y-85090000D03*
X181610000Y-87630000D03*
X179070000Y-87630000D03*
X176530000Y-87630000D03*
X173990000Y-87630000D03*
X171450000Y-87630000D03*
X168910000Y-87630000D03*
X184150000Y-85090000D03*
X179070000Y-85090000D03*
X176530000Y-85090000D03*
X173990000Y-85090000D03*
X171450000Y-85090000D03*
X168910000Y-85090000D03*
X166370000Y-85090000D03*
X166370000Y-82550000D03*
X166370000Y-80010000D03*
X166370000Y-77470000D03*
X166370000Y-74930000D03*
X166370000Y-72390000D03*
X168910000Y-82550000D03*
X168910000Y-80010000D03*
X168910000Y-77470000D03*
X168910000Y-74930000D03*
X168910000Y-72390000D03*
X179070000Y-69850000D03*
X176530000Y-69850000D03*
X168910000Y-69850000D03*
X171450000Y-69850000D03*
X173990000Y-69850000D03*
X181610000Y-72390000D03*
X179070000Y-72390000D03*
X171450000Y-72390000D03*
X173990000Y-72390000D03*
D11*
X176530000Y-72390000D03*
D12*
X171450000Y-57150000D03*
X168910000Y-57150000D03*
X166370000Y-57150000D03*
X163830000Y-57150000D03*
X161290000Y-57150000D03*
X158750000Y-57150000D03*
X156210000Y-57150000D03*
D13*
X153670000Y-57150000D03*
D10*
X145075199Y-100300000D03*
X145075199Y-102840000D03*
X145075199Y-105380000D03*
X145075199Y-107920000D03*
X145075199Y-110460000D03*
X145075199Y-113000000D03*
X145075199Y-115540000D03*
X145075199Y-118080000D03*
X142535199Y-97760000D03*
X142535199Y-102840000D03*
X142535199Y-105380000D03*
X142535199Y-107920000D03*
X142535199Y-110460000D03*
X142535199Y-113000000D03*
X142535199Y-115540000D03*
X142535199Y-118080000D03*
X142535199Y-120620000D03*
X142535199Y-123160000D03*
X139995199Y-123160000D03*
X137455199Y-123160000D03*
X134915199Y-123160000D03*
X132375199Y-123160000D03*
X129835199Y-123160000D03*
X127295199Y-123160000D03*
X124755199Y-123160000D03*
X122215199Y-123160000D03*
X145075199Y-120620000D03*
X139995199Y-120620000D03*
X137455199Y-120620000D03*
X134915199Y-120620000D03*
X132375199Y-120620000D03*
X129835199Y-120620000D03*
X127295199Y-120620000D03*
X124755199Y-120620000D03*
X122215199Y-120620000D03*
X119675199Y-120620000D03*
X119675199Y-118080000D03*
X119675199Y-115540000D03*
X119675199Y-113000000D03*
X119675199Y-110460000D03*
X119675199Y-107920000D03*
X119675199Y-105380000D03*
X119675199Y-102840000D03*
X119675199Y-100300000D03*
X122215199Y-118080000D03*
X122215199Y-115540000D03*
X122215199Y-113000000D03*
X122215199Y-110460000D03*
X122215199Y-107920000D03*
X122215199Y-105380000D03*
X122215199Y-102840000D03*
X122215199Y-100300000D03*
X139995199Y-97760000D03*
X137455199Y-97760000D03*
X134915199Y-97760000D03*
X122215199Y-97760000D03*
X124755199Y-97760000D03*
X127295199Y-97760000D03*
X129835199Y-97760000D03*
D11*
X132375199Y-97760000D03*
D10*
X142535199Y-100300000D03*
X139995199Y-100300000D03*
X137455199Y-100300000D03*
X134915199Y-100300000D03*
X124755199Y-100300000D03*
X127295199Y-100300000D03*
X129835199Y-100300000D03*
X132375199Y-100300000D03*
D14*
X99060000Y-107950000D03*
D15*
X88900000Y-107950000D03*
D16*
X92710000Y-121880000D03*
D17*
X92710000Y-119380000D03*
D16*
X175300000Y-109220000D03*
D17*
X177800000Y-109220000D03*
D18*
G36*
X131709503Y-106996204D02*
G01*
X131733772Y-106999804D01*
X131757570Y-107005765D01*
X131780670Y-107014030D01*
X131802849Y-107024520D01*
X131823892Y-107037133D01*
X131843598Y-107051748D01*
X131861776Y-107068224D01*
X131878252Y-107086402D01*
X131892867Y-107106108D01*
X131905480Y-107127151D01*
X131915970Y-107149330D01*
X131924235Y-107172430D01*
X131930196Y-107196228D01*
X131933796Y-107220497D01*
X131935000Y-107245001D01*
X131935000Y-111194999D01*
X131933796Y-111219503D01*
X131930196Y-111243772D01*
X131924235Y-111267570D01*
X131915970Y-111290670D01*
X131905480Y-111312849D01*
X131892867Y-111333892D01*
X131878252Y-111353598D01*
X131861776Y-111371776D01*
X131843598Y-111388252D01*
X131823892Y-111402867D01*
X131802849Y-111415480D01*
X131780670Y-111425970D01*
X131757570Y-111434235D01*
X131733772Y-111440196D01*
X131709503Y-111443796D01*
X131684999Y-111445000D01*
X129160001Y-111445000D01*
X129135497Y-111443796D01*
X129111228Y-111440196D01*
X129087430Y-111434235D01*
X129064330Y-111425970D01*
X129042151Y-111415480D01*
X129021108Y-111402867D01*
X129001402Y-111388252D01*
X128983224Y-111371776D01*
X128966748Y-111353598D01*
X128952133Y-111333892D01*
X128939520Y-111312849D01*
X128929030Y-111290670D01*
X128920765Y-111267570D01*
X128914804Y-111243772D01*
X128911204Y-111219503D01*
X128910000Y-111194999D01*
X128910000Y-107245001D01*
X128911204Y-107220497D01*
X128914804Y-107196228D01*
X128920765Y-107172430D01*
X128929030Y-107149330D01*
X128939520Y-107127151D01*
X128952133Y-107106108D01*
X128966748Y-107086402D01*
X128983224Y-107068224D01*
X129001402Y-107051748D01*
X129021108Y-107037133D01*
X129042151Y-107024520D01*
X129064330Y-107014030D01*
X129087430Y-107005765D01*
X129111228Y-106999804D01*
X129135497Y-106996204D01*
X129160001Y-106995000D01*
X131684999Y-106995000D01*
X131709503Y-106996204D01*
X131709503Y-106996204D01*
G37*
D19*
X130422500Y-109220000D03*
D18*
G36*
X126684503Y-106996204D02*
G01*
X126708772Y-106999804D01*
X126732570Y-107005765D01*
X126755670Y-107014030D01*
X126777849Y-107024520D01*
X126798892Y-107037133D01*
X126818598Y-107051748D01*
X126836776Y-107068224D01*
X126853252Y-107086402D01*
X126867867Y-107106108D01*
X126880480Y-107127151D01*
X126890970Y-107149330D01*
X126899235Y-107172430D01*
X126905196Y-107196228D01*
X126908796Y-107220497D01*
X126910000Y-107245001D01*
X126910000Y-111194999D01*
X126908796Y-111219503D01*
X126905196Y-111243772D01*
X126899235Y-111267570D01*
X126890970Y-111290670D01*
X126880480Y-111312849D01*
X126867867Y-111333892D01*
X126853252Y-111353598D01*
X126836776Y-111371776D01*
X126818598Y-111388252D01*
X126798892Y-111402867D01*
X126777849Y-111415480D01*
X126755670Y-111425970D01*
X126732570Y-111434235D01*
X126708772Y-111440196D01*
X126684503Y-111443796D01*
X126659999Y-111445000D01*
X124135001Y-111445000D01*
X124110497Y-111443796D01*
X124086228Y-111440196D01*
X124062430Y-111434235D01*
X124039330Y-111425970D01*
X124017151Y-111415480D01*
X123996108Y-111402867D01*
X123976402Y-111388252D01*
X123958224Y-111371776D01*
X123941748Y-111353598D01*
X123927133Y-111333892D01*
X123914520Y-111312849D01*
X123904030Y-111290670D01*
X123895765Y-111267570D01*
X123889804Y-111243772D01*
X123886204Y-111219503D01*
X123885000Y-111194999D01*
X123885000Y-107245001D01*
X123886204Y-107220497D01*
X123889804Y-107196228D01*
X123895765Y-107172430D01*
X123904030Y-107149330D01*
X123914520Y-107127151D01*
X123927133Y-107106108D01*
X123941748Y-107086402D01*
X123958224Y-107068224D01*
X123976402Y-107051748D01*
X123996108Y-107037133D01*
X124017151Y-107024520D01*
X124039330Y-107014030D01*
X124062430Y-107005765D01*
X124086228Y-106999804D01*
X124110497Y-106996204D01*
X124135001Y-106995000D01*
X126659999Y-106995000D01*
X126684503Y-106996204D01*
X126684503Y-106996204D01*
G37*
D19*
X125397500Y-109220000D03*
D18*
G36*
X128669504Y-103266204D02*
G01*
X128693773Y-103269804D01*
X128717571Y-103275765D01*
X128740671Y-103284030D01*
X128762849Y-103294520D01*
X128783893Y-103307133D01*
X128803598Y-103321747D01*
X128821777Y-103338223D01*
X128838253Y-103356402D01*
X128852867Y-103376107D01*
X128865480Y-103397151D01*
X128875970Y-103419329D01*
X128884235Y-103442429D01*
X128890196Y-103466227D01*
X128893796Y-103490496D01*
X128895000Y-103515000D01*
X128895000Y-104765000D01*
X128893796Y-104789504D01*
X128890196Y-104813773D01*
X128884235Y-104837571D01*
X128875970Y-104860671D01*
X128865480Y-104882849D01*
X128852867Y-104903893D01*
X128838253Y-104923598D01*
X128821777Y-104941777D01*
X128803598Y-104958253D01*
X128783893Y-104972867D01*
X128762849Y-104985480D01*
X128740671Y-104995970D01*
X128717571Y-105004235D01*
X128693773Y-105010196D01*
X128669504Y-105013796D01*
X128645000Y-105015000D01*
X127895000Y-105015000D01*
X127870496Y-105013796D01*
X127846227Y-105010196D01*
X127822429Y-105004235D01*
X127799329Y-104995970D01*
X127777151Y-104985480D01*
X127756107Y-104972867D01*
X127736402Y-104958253D01*
X127718223Y-104941777D01*
X127701747Y-104923598D01*
X127687133Y-104903893D01*
X127674520Y-104882849D01*
X127664030Y-104860671D01*
X127655765Y-104837571D01*
X127649804Y-104813773D01*
X127646204Y-104789504D01*
X127645000Y-104765000D01*
X127645000Y-103515000D01*
X127646204Y-103490496D01*
X127649804Y-103466227D01*
X127655765Y-103442429D01*
X127664030Y-103419329D01*
X127674520Y-103397151D01*
X127687133Y-103376107D01*
X127701747Y-103356402D01*
X127718223Y-103338223D01*
X127736402Y-103321747D01*
X127756107Y-103307133D01*
X127777151Y-103294520D01*
X127799329Y-103284030D01*
X127822429Y-103275765D01*
X127846227Y-103269804D01*
X127870496Y-103266204D01*
X127895000Y-103265000D01*
X128645000Y-103265000D01*
X128669504Y-103266204D01*
X128669504Y-103266204D01*
G37*
D20*
X128270000Y-104140000D03*
D18*
G36*
X125869504Y-103266204D02*
G01*
X125893773Y-103269804D01*
X125917571Y-103275765D01*
X125940671Y-103284030D01*
X125962849Y-103294520D01*
X125983893Y-103307133D01*
X126003598Y-103321747D01*
X126021777Y-103338223D01*
X126038253Y-103356402D01*
X126052867Y-103376107D01*
X126065480Y-103397151D01*
X126075970Y-103419329D01*
X126084235Y-103442429D01*
X126090196Y-103466227D01*
X126093796Y-103490496D01*
X126095000Y-103515000D01*
X126095000Y-104765000D01*
X126093796Y-104789504D01*
X126090196Y-104813773D01*
X126084235Y-104837571D01*
X126075970Y-104860671D01*
X126065480Y-104882849D01*
X126052867Y-104903893D01*
X126038253Y-104923598D01*
X126021777Y-104941777D01*
X126003598Y-104958253D01*
X125983893Y-104972867D01*
X125962849Y-104985480D01*
X125940671Y-104995970D01*
X125917571Y-105004235D01*
X125893773Y-105010196D01*
X125869504Y-105013796D01*
X125845000Y-105015000D01*
X125095000Y-105015000D01*
X125070496Y-105013796D01*
X125046227Y-105010196D01*
X125022429Y-105004235D01*
X124999329Y-104995970D01*
X124977151Y-104985480D01*
X124956107Y-104972867D01*
X124936402Y-104958253D01*
X124918223Y-104941777D01*
X124901747Y-104923598D01*
X124887133Y-104903893D01*
X124874520Y-104882849D01*
X124864030Y-104860671D01*
X124855765Y-104837571D01*
X124849804Y-104813773D01*
X124846204Y-104789504D01*
X124845000Y-104765000D01*
X124845000Y-103515000D01*
X124846204Y-103490496D01*
X124849804Y-103466227D01*
X124855765Y-103442429D01*
X124864030Y-103419329D01*
X124874520Y-103397151D01*
X124887133Y-103376107D01*
X124901747Y-103356402D01*
X124918223Y-103338223D01*
X124936402Y-103321747D01*
X124956107Y-103307133D01*
X124977151Y-103294520D01*
X124999329Y-103284030D01*
X125022429Y-103275765D01*
X125046227Y-103269804D01*
X125070496Y-103266204D01*
X125095000Y-103265000D01*
X125845000Y-103265000D01*
X125869504Y-103266204D01*
X125869504Y-103266204D01*
G37*
D20*
X125470000Y-104140000D03*
D21*
X172140000Y-137810000D03*
X163140000Y-137810000D03*
D22*
X167640000Y-136810000D03*
D23*
X167640000Y-130810000D03*
D12*
X162560000Y-113030000D03*
D13*
X162560000Y-115570000D03*
D24*
X170180000Y-113030000D03*
X170180000Y-115570000D03*
D25*
X170180000Y-118110000D03*
D12*
X151130000Y-138430000D03*
D13*
X153670000Y-138430000D03*
D26*
X92710000Y-101600000D03*
X100330000Y-96520000D03*
X92710000Y-99060000D03*
X100330000Y-99060000D03*
X92710000Y-96520000D03*
D17*
X100330000Y-101600000D03*
D14*
X99060000Y-115570000D03*
D15*
X88900000Y-115570000D03*
D14*
X99060000Y-111760000D03*
D15*
X88900000Y-111760000D03*
D27*
X96670000Y-83130000D03*
X96670000Y-87630000D03*
X90170000Y-83130000D03*
X90170000Y-87630000D03*
D28*
X100150000Y-74930000D03*
X95250000Y-74930000D03*
D12*
X109220000Y-107950000D03*
X109220000Y-105410000D03*
X109220000Y-102870000D03*
X109220000Y-100330000D03*
X109220000Y-97790000D03*
X109220000Y-95250000D03*
D13*
X109220000Y-92710000D03*
D26*
X151130000Y-133350000D03*
X151130000Y-130810000D03*
X151130000Y-128270000D03*
X151130000Y-125730000D03*
X151130000Y-123190000D03*
X151130000Y-120650000D03*
X151130000Y-118110000D03*
X151130000Y-115570000D03*
D17*
X151130000Y-113030000D03*
D12*
X119380000Y-137160000D03*
X116840000Y-137160000D03*
X114300000Y-137160000D03*
X111760000Y-137160000D03*
X109220000Y-137160000D03*
D13*
X106680000Y-137160000D03*
D12*
X140970000Y-87630000D03*
X138430000Y-87630000D03*
X135890000Y-87630000D03*
X133350000Y-87630000D03*
X130810000Y-87630000D03*
X128270000Y-87630000D03*
X125730000Y-87630000D03*
D13*
X123190000Y-87630000D03*
D12*
X194310000Y-102870000D03*
X194310000Y-100330000D03*
X194310000Y-97790000D03*
X194310000Y-95250000D03*
X194310000Y-92710000D03*
X194310000Y-90170000D03*
X194310000Y-87630000D03*
D13*
X194310000Y-85090000D03*
D12*
X194310000Y-77470000D03*
X194310000Y-74930000D03*
X194310000Y-72390000D03*
X194310000Y-69850000D03*
X194310000Y-67310000D03*
X194310000Y-64770000D03*
X194310000Y-62230000D03*
D13*
X194310000Y-59690000D03*
D12*
X157480000Y-133350000D03*
X157480000Y-130810000D03*
X157480000Y-128270000D03*
X157480000Y-125730000D03*
X157480000Y-123190000D03*
X157480000Y-120650000D03*
X157480000Y-118110000D03*
D13*
X157480000Y-115570000D03*
D12*
X160020000Y-109220000D03*
X160020000Y-106680000D03*
X160020000Y-104140000D03*
X160020000Y-101600000D03*
X160020000Y-99060000D03*
X160020000Y-96520000D03*
X160020000Y-93980000D03*
D13*
X160020000Y-91440000D03*
D12*
X125730000Y-137160000D03*
X128270000Y-137160000D03*
X130810000Y-137160000D03*
X133350000Y-137160000D03*
X135890000Y-137160000D03*
X138430000Y-137160000D03*
X140970000Y-137160000D03*
D13*
X143510000Y-137160000D03*
D12*
X102870000Y-106680000D03*
X102870000Y-109220000D03*
X102870000Y-111760000D03*
X102870000Y-114300000D03*
X102870000Y-116840000D03*
X102870000Y-119380000D03*
X102870000Y-121920000D03*
D13*
X102870000Y-124460000D03*
D26*
X149860000Y-72390000D03*
X116840000Y-57150000D03*
X147320000Y-72390000D03*
X119380000Y-57150000D03*
X144780000Y-72390000D03*
X121920000Y-57150000D03*
X142240000Y-72390000D03*
X124460000Y-57150000D03*
X139700000Y-72390000D03*
X127000000Y-57150000D03*
X137160000Y-72390000D03*
X129540000Y-57150000D03*
X134620000Y-72390000D03*
X132080000Y-57150000D03*
X132080000Y-72390000D03*
X134620000Y-57150000D03*
X129540000Y-72390000D03*
X137160000Y-57150000D03*
X127000000Y-72390000D03*
X139700000Y-57150000D03*
X124460000Y-72390000D03*
X142240000Y-57150000D03*
X121920000Y-72390000D03*
X144780000Y-57150000D03*
X119380000Y-72390000D03*
X147320000Y-57150000D03*
X116840000Y-72390000D03*
D17*
X149860000Y-57150000D03*
D26*
X189230000Y-102870000D03*
X189230000Y-100330000D03*
X189230000Y-97790000D03*
X189230000Y-95250000D03*
X189230000Y-92710000D03*
X189230000Y-90170000D03*
X189230000Y-87630000D03*
X189230000Y-85090000D03*
D17*
X189230000Y-82550000D03*
D26*
X189230000Y-77470000D03*
X189230000Y-74930000D03*
X189230000Y-72390000D03*
X189230000Y-69850000D03*
X189230000Y-67310000D03*
X189230000Y-64770000D03*
X189230000Y-62230000D03*
X189230000Y-59690000D03*
D17*
X189230000Y-57150000D03*
D26*
X125730000Y-130810000D03*
X128270000Y-130810000D03*
X130810000Y-130810000D03*
X133350000Y-130810000D03*
X135890000Y-130810000D03*
X138430000Y-130810000D03*
X140970000Y-130810000D03*
X143510000Y-130810000D03*
D17*
X146050000Y-130810000D03*
D26*
X106680000Y-130810000D03*
X109220000Y-130810000D03*
X111760000Y-130810000D03*
X114300000Y-130810000D03*
X116840000Y-130810000D03*
X119380000Y-130810000D03*
D17*
X121920000Y-130810000D03*
D26*
X151130000Y-109220000D03*
X151130000Y-106680000D03*
X151130000Y-104140000D03*
X151130000Y-101600000D03*
X151130000Y-99060000D03*
X151130000Y-96520000D03*
X151130000Y-93980000D03*
X151130000Y-91440000D03*
D17*
X151130000Y-88900000D03*
D26*
X146050000Y-92710000D03*
X143510000Y-92710000D03*
X140970000Y-92710000D03*
X138430000Y-92710000D03*
X135890000Y-92710000D03*
X133350000Y-92710000D03*
X130810000Y-92710000D03*
X128270000Y-92710000D03*
D17*
X125730000Y-92710000D03*
D26*
X114300000Y-102870000D03*
X114300000Y-100330000D03*
X114300000Y-97790000D03*
X114300000Y-95250000D03*
D17*
X114300000Y-92710000D03*
D26*
X114300000Y-106680000D03*
X114300000Y-109220000D03*
X114300000Y-111760000D03*
X114300000Y-114300000D03*
X114300000Y-116840000D03*
X114300000Y-119380000D03*
X114300000Y-121920000D03*
X114300000Y-124460000D03*
D17*
X114300000Y-127000000D03*
D29*
X93980000Y-58420000D03*
X99060000Y-58420000D03*
X99060000Y-63500000D03*
X93980000Y-63500000D03*
D30*
X96520000Y-60960000D03*
D31*
X115570000Y-90170000D03*
X121920000Y-90170000D03*
X116840000Y-54610000D03*
X185420000Y-54610000D03*
X102870000Y-54610000D03*
X86360000Y-96520000D03*
X91440000Y-140970000D03*
X175260000Y-120650000D03*
X175260000Y-128270000D03*
X175260000Y-114300000D03*
X147719999Y-111360001D03*
X156210000Y-140970000D03*
X86360000Y-67310000D03*
X86360000Y-78740000D03*
X86360000Y-55880000D03*
X87630000Y-54610000D03*
X92710000Y-54610000D03*
X107950000Y-54610000D03*
X129835199Y-102574801D03*
X133226621Y-108073379D03*
X90170000Y-71120000D03*
X90170000Y-78740000D03*
X104140000Y-78740000D03*
X106680000Y-71120000D03*
X91440000Y-72390000D03*
X91440000Y-77470000D03*
X104140000Y-76200000D03*
X105410000Y-72390000D03*
X102870000Y-142240000D03*
X146050000Y-142240000D03*
X121920000Y-142240000D03*
X149860000Y-53340000D03*
X85090000Y-92710000D03*
X176530000Y-113030000D03*
X199390000Y-82550000D03*
X189230000Y-53340000D03*
X185420000Y-53340000D03*
X102870000Y-53340000D03*
X85090000Y-96520000D03*
X91440000Y-142240000D03*
X154940000Y-142240000D03*
X176530000Y-128270000D03*
X176530000Y-120650000D03*
X177800000Y-102870000D03*
X177800000Y-106680000D03*
X156210000Y-142240000D03*
X124755199Y-102574801D03*
X130810000Y-77470000D03*
X148590000Y-77470000D03*
X127000000Y-76200000D03*
X148590000Y-76200000D03*
X128270000Y-80010000D03*
X148590000Y-80010000D03*
X148590000Y-78740000D03*
X124460000Y-78740000D03*
X148590000Y-82550000D03*
X125730000Y-82550000D03*
X148590000Y-81280000D03*
X121920000Y-81280000D03*
X148590000Y-85090000D03*
X123190000Y-85090000D03*
X148590000Y-83820000D03*
X119380000Y-83820000D03*
X147320000Y-67310000D03*
X158750000Y-101600000D03*
X156210000Y-99060000D03*
X157480000Y-96520000D03*
X154940000Y-93980000D03*
X163830000Y-91440000D03*
X153670000Y-91440000D03*
X173990000Y-91440000D03*
X162560000Y-66040000D03*
X163830000Y-64770000D03*
X134620000Y-74930000D03*
X165100000Y-63500000D03*
X166370000Y-62230000D03*
X129540000Y-73660000D03*
X167640000Y-60960000D03*
X168910000Y-59690000D03*
X169874989Y-58725011D03*
X172720000Y-55880000D03*
D32*
X86360000Y-54610000D02*
X86360000Y-55880000D01*
X102870000Y-54610000D02*
X86360000Y-54610000D01*
X86360000Y-55880000D02*
X86360000Y-78740000D01*
X175013790Y-111513790D02*
X175260000Y-111760000D01*
X175260000Y-120650000D02*
X175260000Y-114300000D01*
X175260000Y-114300000D02*
X175260000Y-111760000D01*
X175260000Y-111760000D02*
X175260000Y-105410000D01*
D33*
X174530000Y-111030000D02*
X175260000Y-111760000D01*
X174530000Y-109220000D02*
X174530000Y-111030000D01*
X175260000Y-127704315D02*
X175260000Y-128270000D01*
X175229999Y-127674314D02*
X175260000Y-127704315D01*
X175260000Y-105410000D02*
X175229999Y-105440001D01*
X175229999Y-106710001D02*
X175229999Y-127674314D01*
X175229999Y-107671473D02*
X175229999Y-106710001D01*
X174530000Y-108371472D02*
X175229999Y-107671473D01*
X174530000Y-109220000D02*
X174530000Y-108371472D01*
X175229999Y-105440001D02*
X175229999Y-106710001D01*
X198120000Y-105410000D02*
X198120000Y-54610000D01*
X175260000Y-140970000D02*
X171020002Y-140970000D01*
X175260000Y-128270000D02*
X175260000Y-140970000D01*
X170290000Y-140239998D02*
X170290000Y-138810000D01*
X168290000Y-136810000D02*
X167640000Y-136810000D01*
X171020002Y-140970000D02*
X170290000Y-140239998D01*
X167640000Y-136810000D02*
X166990000Y-136810000D01*
X165100000Y-138700000D02*
X165100000Y-139700000D01*
X165100000Y-139700000D02*
X163830000Y-140970000D01*
X86360000Y-140970000D02*
X86360000Y-124460000D01*
X86360000Y-118110000D02*
X86360000Y-124460000D01*
X86360000Y-124460000D02*
X86440000Y-124380000D01*
X86360000Y-81860000D02*
X87630000Y-83130000D01*
X86360000Y-54610000D02*
X87630000Y-54610000D01*
X175260000Y-111760000D02*
X174860001Y-111360001D01*
X116840000Y-54610000D02*
X116840000Y-57150000D01*
X151130000Y-140970000D02*
X86360000Y-140970000D01*
X151130000Y-138430000D02*
X151130000Y-140970000D01*
X163830000Y-140970000D02*
X151130000Y-140970000D01*
D32*
X156210000Y-140970000D02*
X160020000Y-140970000D01*
D33*
X176530000Y-54610000D02*
X176530000Y-69850000D01*
X86360000Y-82550000D02*
X86360000Y-54610000D01*
X87630000Y-54610000D02*
X107950000Y-54610000D01*
X198120000Y-54610000D02*
X107950000Y-54610000D01*
X175260000Y-105410000D02*
X198120000Y-105410000D01*
X86360000Y-88900000D02*
X86360000Y-88320000D01*
X86360000Y-118110000D02*
X86360000Y-88900000D01*
X129835199Y-102574801D02*
X128270000Y-104140000D01*
X128270000Y-107067500D02*
X130422500Y-109220000D01*
X128270000Y-104140000D02*
X128270000Y-107067500D01*
X131569121Y-108073379D02*
X130422500Y-109220000D01*
X133226621Y-108073379D02*
X131569121Y-108073379D01*
X96670000Y-83130000D02*
X87630000Y-83130000D01*
X86360000Y-88900000D02*
X86360000Y-82550000D01*
X86940000Y-83130000D02*
X86360000Y-82550000D01*
X90170000Y-83130000D02*
X86940000Y-83130000D01*
X90250000Y-124340000D02*
X90250000Y-124380000D01*
X92710000Y-121880000D02*
X90250000Y-124340000D01*
X86440000Y-124380000D02*
X90250000Y-124380000D01*
X165870000Y-137930000D02*
X169410000Y-137930000D01*
X169410000Y-137930000D02*
X168290000Y-136810000D01*
X170290000Y-138810000D02*
X169410000Y-137930000D01*
X166990000Y-136810000D02*
X165870000Y-137930000D01*
X165870000Y-137930000D02*
X165100000Y-138700000D01*
X147719999Y-111360001D02*
X174860001Y-111360001D01*
D32*
X188430001Y-81750001D02*
X189230000Y-82550000D01*
D33*
X199390000Y-53340000D02*
X199390000Y-106680000D01*
X173990000Y-53340000D02*
X85090000Y-53340000D01*
X85090000Y-53340000D02*
X85090000Y-142240000D01*
X85090000Y-142240000D02*
X156210000Y-142240000D01*
X142535199Y-127295199D02*
X146050000Y-130810000D01*
X142535199Y-123160000D02*
X142535199Y-127295199D01*
X149860000Y-87630000D02*
X151130000Y-88900000D01*
X149860000Y-72390000D02*
X149860000Y-87630000D01*
X156210000Y-142240000D02*
X176530000Y-142240000D01*
X173990000Y-87630000D02*
X173990000Y-88900000D01*
X199390000Y-53340000D02*
X173990000Y-53340000D01*
X177800000Y-106680000D02*
X177800000Y-109220000D01*
X173990000Y-88900000D02*
X177800000Y-92710000D01*
X177800000Y-92710000D02*
X177800000Y-102870000D01*
X177800000Y-106680000D02*
X199390000Y-106680000D01*
X177800000Y-111760000D02*
X176530000Y-113030000D01*
X177800000Y-109220000D02*
X177800000Y-111760000D01*
X176530000Y-113030000D02*
X176530000Y-142240000D01*
X124755199Y-103425199D02*
X125470000Y-104140000D01*
X124755199Y-102574801D02*
X124755199Y-103425199D01*
X125470000Y-109147500D02*
X125397500Y-109220000D01*
X125470000Y-104140000D02*
X125470000Y-109147500D01*
D32*
X105410000Y-75874801D02*
X127295199Y-97760000D01*
X105410000Y-74930000D02*
X105410000Y-75874801D01*
X100150000Y-74930000D02*
X105410000Y-74930000D01*
X126797188Y-98796201D02*
X127295199Y-99294212D01*
X95250000Y-74930000D02*
X97790000Y-77470000D01*
X97790000Y-77470000D02*
X105410000Y-77470000D01*
X105410000Y-77470000D02*
X123190000Y-95250000D01*
X126258998Y-98318998D02*
X127295199Y-99355199D01*
X126258998Y-97730221D02*
X126258998Y-98318998D01*
X123778777Y-95250000D02*
X126258998Y-97730221D01*
X123190000Y-95250000D02*
X123778777Y-95250000D01*
X127295199Y-99355199D02*
X127295199Y-100300000D01*
X127295199Y-99294212D02*
X127295199Y-99355199D01*
X146050000Y-94245199D02*
X142535199Y-97760000D01*
X146050000Y-92710000D02*
X146050000Y-94245199D01*
X141498998Y-99263799D02*
X142535199Y-100300000D01*
X141498998Y-94721002D02*
X141498998Y-99263799D01*
X143510000Y-92710000D02*
X141498998Y-94721002D01*
X127000000Y-76200000D02*
X148590000Y-76200000D01*
X140970000Y-96785199D02*
X139995199Y-97760000D01*
X140970000Y-92710000D02*
X140970000Y-96785199D01*
X128270000Y-80010000D02*
X148590000Y-80010000D01*
X127000000Y-78740000D02*
X148590000Y-78740000D01*
X124460000Y-78740000D02*
X127000000Y-78740000D01*
X125730000Y-78740000D02*
X127000000Y-78740000D01*
X138491400Y-98796201D02*
X139995199Y-100300000D01*
X138491400Y-97262623D02*
X138491400Y-98796201D01*
X138430000Y-97201223D02*
X138491400Y-97262623D01*
X138430000Y-92710000D02*
X138430000Y-97201223D01*
X137455199Y-94275199D02*
X137455199Y-97760000D01*
X135890000Y-92710000D02*
X137455199Y-94275199D01*
X125730000Y-82550000D02*
X148590000Y-82550000D01*
X121920000Y-81280000D02*
X148590000Y-81280000D01*
X134149999Y-93509999D02*
X133350000Y-92710000D01*
X135951400Y-98796201D02*
X135951400Y-95311400D01*
X135951400Y-95311400D02*
X134149999Y-93509999D01*
X137455199Y-100300000D02*
X135951400Y-98796201D01*
X134915199Y-96815199D02*
X134915199Y-97760000D01*
X130810000Y-92710000D02*
X134915199Y-96815199D01*
X123190000Y-85090000D02*
X148590000Y-85090000D01*
X133411400Y-98796201D02*
X134915199Y-100300000D01*
X133411400Y-96788799D02*
X133411400Y-98796201D01*
X132401599Y-95778998D02*
X133411400Y-96788799D01*
X131338998Y-95778998D02*
X132401599Y-95778998D01*
X128270000Y-92710000D02*
X131338998Y-95778998D01*
X119380000Y-83820000D02*
X148590000Y-83820000D01*
X143775199Y-109220000D02*
X142535199Y-110460000D01*
X151130000Y-109220000D02*
X143775199Y-109220000D01*
X149890000Y-107920000D02*
X151130000Y-106680000D01*
X145075199Y-107920000D02*
X149890000Y-107920000D01*
X152400000Y-73264998D02*
X152400000Y-105410000D01*
X152400000Y-105410000D02*
X151130000Y-106680000D01*
X150400001Y-71264999D02*
X152400000Y-73264998D01*
X148445001Y-71264999D02*
X150400001Y-71264999D01*
X147320000Y-72390000D02*
X148445001Y-71264999D01*
X144780000Y-72390000D02*
X146355011Y-70814989D01*
X150586401Y-70814989D02*
X152850010Y-73078598D01*
X146355011Y-70814989D02*
X150586401Y-70814989D01*
X153300020Y-102870000D02*
X152850010Y-102419990D01*
X152850010Y-73078598D02*
X152850010Y-102419990D01*
X149860000Y-104140000D02*
X151130000Y-104140000D01*
X147320000Y-106680000D02*
X149860000Y-104140000D01*
X143775199Y-106680000D02*
X147320000Y-106680000D01*
X142535199Y-107920000D02*
X143775199Y-106680000D01*
X158750000Y-102870000D02*
X160020000Y-104140000D01*
X153300020Y-102870000D02*
X158750000Y-102870000D01*
X146080000Y-105380000D02*
X145075199Y-105380000D01*
X149860000Y-101600000D02*
X146080000Y-105380000D01*
X149860000Y-101600000D02*
X151130000Y-101600000D01*
X158750000Y-72390000D02*
X158750000Y-101600000D01*
X153670000Y-67310000D02*
X158750000Y-72390000D01*
X147320000Y-67310000D02*
X153670000Y-67310000D01*
X151145604Y-69464962D02*
X156210000Y-74529358D01*
X140085038Y-69464962D02*
X151145604Y-69464962D01*
X137160000Y-72390000D02*
X140085038Y-69464962D01*
X156210000Y-74529358D02*
X156210000Y-99060000D01*
X142535199Y-105380000D02*
X143775199Y-104140000D01*
X143775199Y-104140000D02*
X146050000Y-104140000D01*
X151130000Y-99060000D02*
X146050000Y-104140000D01*
X151332005Y-69014953D02*
X157480000Y-75162948D01*
X135455047Y-69014953D02*
X151332005Y-69014953D01*
X132080000Y-72390000D02*
X135455047Y-69014953D01*
X157480000Y-75162948D02*
X157480000Y-96520000D01*
X148734999Y-97645001D02*
X149860000Y-96520000D01*
X148734999Y-99180200D02*
X148734999Y-97645001D01*
X149860000Y-96520000D02*
X151130000Y-96520000D01*
X145075199Y-102840000D02*
X148734999Y-99180200D01*
X150959203Y-69914971D02*
X154940000Y-73895768D01*
X142175029Y-69914971D02*
X150959203Y-69914971D01*
X139700000Y-72390000D02*
X142175029Y-69914971D01*
X154940000Y-73895768D02*
X154940000Y-93980000D01*
X142535199Y-102840000D02*
X143775199Y-101600000D01*
X143775199Y-101600000D02*
X145678789Y-101600000D01*
X145678789Y-101600000D02*
X146111400Y-101167389D01*
X146111400Y-101167389D02*
X145864394Y-101414395D01*
X147134394Y-96705606D02*
X147134394Y-100144395D01*
X149860000Y-93980000D02*
X147134394Y-96705606D01*
X147134394Y-100144395D02*
X146111400Y-101167389D01*
X151130000Y-93980000D02*
X149860000Y-93980000D01*
X145075199Y-96224801D02*
X145075199Y-100300000D01*
X149860000Y-91440000D02*
X145075199Y-96224801D01*
X173725788Y-91440000D02*
X163830000Y-91440000D01*
X150772802Y-70364980D02*
X153670000Y-73262178D01*
X144265020Y-70364980D02*
X150772802Y-70364980D01*
X142240000Y-72390000D02*
X144265020Y-70364980D01*
X153670000Y-73262178D02*
X153670000Y-91440000D01*
X149860000Y-91440000D02*
X151130000Y-91440000D01*
X173857894Y-91307894D02*
X173725788Y-91440000D01*
X135890000Y-66040000D02*
X127000000Y-57150000D01*
X165100000Y-67310000D02*
X163830000Y-66040000D01*
X163830000Y-66040000D02*
X135890000Y-66040000D01*
X165100000Y-73660000D02*
X165100000Y-67310000D01*
X167640000Y-73660000D02*
X165100000Y-73660000D01*
X168910000Y-72390000D02*
X167640000Y-73660000D01*
X129540000Y-57150000D02*
X137160000Y-64770000D01*
X137160000Y-64770000D02*
X165100000Y-64770000D01*
X165100000Y-64770000D02*
X166370000Y-66040000D01*
X166370000Y-72390000D02*
X166370000Y-66040000D01*
X134620000Y-72390000D02*
X134620000Y-74930000D01*
X132080000Y-57150000D02*
X138430000Y-63500000D01*
X167640000Y-63500000D02*
X168910000Y-64770000D01*
X168910000Y-64770000D02*
X168910000Y-69850000D01*
X138430000Y-63500000D02*
X167640000Y-63500000D01*
X170180000Y-71120000D02*
X171450000Y-72390000D01*
X134620000Y-57150000D02*
X139700000Y-62230000D01*
X139700000Y-62230000D02*
X168910000Y-62230000D01*
X168910000Y-62230000D02*
X170180000Y-63500000D01*
X170180000Y-63500000D02*
X170180000Y-71120000D01*
X129540000Y-72390000D02*
X129540000Y-73660000D01*
X171450000Y-62230000D02*
X171450000Y-69850000D01*
X140970000Y-60960000D02*
X137160000Y-57150000D01*
X140970000Y-60960000D02*
X170180000Y-60960000D01*
X170180000Y-60960000D02*
X171450000Y-62230000D01*
X142240000Y-59690000D02*
X139700000Y-57150000D01*
X172720000Y-71120000D02*
X172720000Y-60960000D01*
X173990000Y-72390000D02*
X172720000Y-71120000D01*
X172720000Y-60960000D02*
X171450000Y-59690000D01*
X171450000Y-59690000D02*
X168910000Y-59690000D01*
X142240000Y-59690000D02*
X168910000Y-59690000D01*
X142240000Y-57150000D02*
X143815011Y-58725011D01*
X143815011Y-58725011D02*
X169874989Y-58725011D01*
X173025011Y-58725011D02*
X173990000Y-59690000D01*
X173990000Y-59690000D02*
X173990000Y-69850000D01*
X169874989Y-58725011D02*
X173025011Y-58725011D01*
X172720000Y-55880000D02*
X175260000Y-58420000D01*
X176530000Y-71428800D02*
X176530000Y-72390000D01*
X175260000Y-70158800D02*
X176530000Y-71428800D01*
X175260000Y-58420000D02*
X175260000Y-70158800D01*
X146050000Y-55880000D02*
X144780000Y-57150000D01*
X172720000Y-55880000D02*
X146050000Y-55880000D01*
X116870000Y-100300000D02*
X114300000Y-102870000D01*
X119675199Y-100300000D02*
X116870000Y-100300000D01*
X111760000Y-100330000D02*
X111760000Y-94150000D01*
X114300000Y-102870000D02*
X111760000Y-100330000D01*
X111760000Y-94150000D02*
X110320000Y-92710000D01*
X110320000Y-92710000D02*
X109220000Y-92710000D01*
X90170000Y-87630000D02*
X96670000Y-87630000D01*
X96670000Y-87630000D02*
X100740000Y-87630000D01*
X111760000Y-94150000D02*
X111760000Y-88900000D01*
X111760000Y-88900000D02*
X110490000Y-87630000D01*
X110490000Y-87630000D02*
X104140000Y-87630000D01*
X104140000Y-87630000D02*
X105240000Y-87630000D01*
X96670000Y-87630000D02*
X104140000Y-87630000D01*
X118080000Y-110460000D02*
X114300000Y-106680000D01*
X119675199Y-110460000D02*
X118080000Y-110460000D01*
X122215199Y-110460000D02*
X120915199Y-111760000D01*
X116840000Y-111760000D02*
X114300000Y-109220000D01*
X120915199Y-111760000D02*
X116840000Y-111760000D01*
X115540000Y-113000000D02*
X119675199Y-113000000D01*
X114300000Y-111760000D02*
X115540000Y-113000000D01*
X120915199Y-114300000D02*
X114300000Y-114300000D01*
X122215199Y-113000000D02*
X120915199Y-114300000D01*
X115600000Y-115540000D02*
X114300000Y-116840000D01*
X119675199Y-115540000D02*
X115600000Y-115540000D01*
X116840000Y-116840000D02*
X114300000Y-119380000D01*
X120915199Y-116840000D02*
X116840000Y-116840000D01*
X122215199Y-115540000D02*
X120915199Y-116840000D01*
X115835199Y-121920000D02*
X114300000Y-121920000D01*
X119675199Y-118080000D02*
X115835199Y-121920000D01*
X120915199Y-119380000D02*
X122215199Y-118080000D01*
X119011609Y-119380000D02*
X120915199Y-119380000D01*
X118110000Y-120281609D02*
X119011609Y-119380000D01*
X118110000Y-120650000D02*
X118110000Y-120281609D01*
X114300000Y-124460000D02*
X118110000Y-120650000D01*
X139995199Y-127295199D02*
X143510000Y-130810000D01*
X139995199Y-123160000D02*
X139995199Y-127295199D01*
X140170001Y-130010001D02*
X140970000Y-130810000D01*
X138491400Y-128331400D02*
X140170001Y-130010001D01*
X138491400Y-121656201D02*
X138491400Y-128331400D01*
X137455199Y-120620000D02*
X138491400Y-121656201D01*
X137455199Y-129835199D02*
X138430000Y-130810000D01*
X137455199Y-123160000D02*
X137455199Y-129835199D01*
X135890000Y-129678630D02*
X135890000Y-130810000D01*
X135951400Y-129617230D02*
X135890000Y-129678630D01*
X135951400Y-121656201D02*
X135951400Y-129617230D01*
X134915199Y-120620000D02*
X135951400Y-121656201D01*
X133350000Y-124725199D02*
X133350000Y-130810000D01*
X134915199Y-123160000D02*
X133350000Y-124725199D01*
X130810000Y-126258777D02*
X130810000Y-130810000D01*
X133411400Y-123657377D02*
X130810000Y-126258777D01*
X133411400Y-121656201D02*
X133411400Y-123657377D01*
X132375199Y-120620000D02*
X133411400Y-121656201D01*
X128270000Y-127265199D02*
X128270000Y-130810000D01*
X132375199Y-123160000D02*
X128270000Y-127265199D01*
X125730000Y-129168789D02*
X125730000Y-130810000D01*
X130871400Y-124027389D02*
X125730000Y-129168789D01*
X130871400Y-121656201D02*
X130871400Y-124027389D01*
X129835199Y-120620000D02*
X130871400Y-121656201D01*
X128331400Y-121656201D02*
X128331400Y-125668600D01*
X127295199Y-120620000D02*
X128331400Y-121656201D01*
X128331400Y-125668600D02*
X125730000Y-128270000D01*
X120650000Y-129540000D02*
X121920000Y-128270000D01*
X120891408Y-129298592D02*
X120650000Y-129540000D01*
X120650000Y-129540000D02*
X119380000Y-130810000D01*
X121920000Y-128270000D02*
X125730000Y-128270000D01*
X127295199Y-123160000D02*
X127295199Y-124165788D01*
X127295199Y-123160000D02*
X127295199Y-125434801D01*
X127295199Y-125434801D02*
X124910010Y-127819990D01*
X120705008Y-127819990D02*
X117714998Y-130810000D01*
X117714998Y-130810000D02*
X116840000Y-130810000D01*
X124910010Y-127819990D02*
X120705008Y-127819990D01*
X125730000Y-123718777D02*
X125791400Y-123657377D01*
X125791400Y-121656201D02*
X124755199Y-120620000D01*
X124458590Y-127001410D02*
X125730000Y-125730000D01*
X125730000Y-125730000D02*
X125730000Y-123718777D01*
X114300000Y-130810000D02*
X115489970Y-129620030D01*
X118032792Y-129620028D02*
X120651410Y-127001410D01*
X125791400Y-123657377D02*
X125791400Y-121656201D01*
X116759970Y-129620030D02*
X116759972Y-129620028D01*
X115489970Y-129620030D02*
X116759970Y-129620030D01*
X120651410Y-127001410D02*
X124458590Y-127001410D01*
X116759972Y-129620028D02*
X118032792Y-129620028D01*
X113399980Y-129170020D02*
X117846391Y-129170019D01*
X111760000Y-130810000D02*
X113399980Y-129170020D01*
X121866994Y-126048205D02*
X124755199Y-123160000D01*
X120968205Y-126048205D02*
X121866994Y-126048205D01*
X117846391Y-129170019D02*
X120968205Y-126048205D01*
X120781805Y-125598195D02*
X121310582Y-125598195D01*
X121310582Y-125598195D02*
X123251400Y-123657377D01*
X117659990Y-128720010D02*
X120781805Y-125598195D01*
X123251400Y-123657377D02*
X123251400Y-121656201D01*
X111309990Y-128720010D02*
X117659990Y-128720010D01*
X123251400Y-121656201D02*
X122215199Y-120620000D01*
X109220000Y-130810000D02*
X111309990Y-128720010D01*
X109220000Y-128270000D02*
X106680000Y-130810000D01*
X117105199Y-128270000D02*
X109220000Y-128270000D01*
X122215199Y-123160000D02*
X117105199Y-128270000D01*
X149860000Y-130810000D02*
X151130000Y-130810000D01*
X147770011Y-128720011D02*
X149860000Y-130810000D01*
X147770011Y-124273600D02*
X147770011Y-128720011D01*
X147506400Y-124009989D02*
X147770011Y-124273600D01*
X145925188Y-124009989D02*
X147506400Y-124009989D01*
X142535199Y-120620000D02*
X145925188Y-124009989D01*
X148220022Y-126630022D02*
X149860000Y-128270000D01*
X149860000Y-128270000D02*
X151130000Y-128270000D01*
X148220022Y-124087200D02*
X148220022Y-126630022D01*
X147692800Y-123559978D02*
X148220022Y-124087200D01*
X145075199Y-118080000D02*
X144038998Y-119116201D01*
X146422800Y-123559978D02*
X147692800Y-123559978D01*
X144038998Y-119116201D02*
X144038998Y-121176176D01*
X144038998Y-121176176D02*
X146422800Y-123559978D01*
X147834979Y-119306202D02*
X147834979Y-123065746D01*
X142535199Y-118080000D02*
X143571400Y-117043799D01*
X149060001Y-124290768D02*
X149060001Y-124930001D01*
X147834979Y-123065746D02*
X149060001Y-124290768D01*
X149060001Y-124930001D02*
X149860000Y-125730000D01*
X143571400Y-117043799D02*
X145572576Y-117043799D01*
X145572576Y-117043799D02*
X147834979Y-119306202D01*
X149860000Y-125730000D02*
X151130000Y-125730000D01*
X148284989Y-121614989D02*
X149860000Y-123190000D01*
X148284989Y-117852622D02*
X148284989Y-121614989D01*
X145972367Y-115540000D02*
X148284989Y-117852622D01*
X145075199Y-115540000D02*
X145972367Y-115540000D01*
X149860000Y-123190000D02*
X151130000Y-123190000D01*
X145572576Y-114503799D02*
X148734999Y-117666222D01*
X143571400Y-114503799D02*
X145572576Y-114503799D01*
X149860000Y-120650000D02*
X151130000Y-120650000D01*
X148734999Y-119524999D02*
X149860000Y-120650000D01*
X148734999Y-117666222D02*
X148734999Y-119524999D01*
X142535199Y-115540000D02*
X143571400Y-114503799D01*
X149860000Y-118110000D02*
X151130000Y-118110000D01*
X146111400Y-114036201D02*
X146111400Y-114361400D01*
X146111400Y-114361400D02*
X149860000Y-118110000D01*
X145075199Y-113000000D02*
X146111400Y-114036201D01*
X181610000Y-85090000D02*
X186690000Y-90170000D01*
X186690000Y-92710000D02*
X189230000Y-95250000D01*
X186690000Y-90170000D02*
X186690000Y-92710000D01*
X189230000Y-90170000D02*
X187326410Y-90170000D01*
X181610000Y-82550000D02*
X182880000Y-83820000D01*
X182880000Y-85090000D02*
X182880000Y-85723590D01*
X182880000Y-83820000D02*
X182880000Y-85090000D01*
X182880000Y-85090000D02*
X182880000Y-85353578D01*
X182880000Y-85723590D02*
X187326410Y-90170000D01*
X188430001Y-84290001D02*
X189230000Y-85090000D01*
X185420000Y-81280000D02*
X188430001Y-84290001D01*
X182880000Y-81280000D02*
X185420000Y-81280000D01*
X181610000Y-80010000D02*
X182880000Y-81280000D01*
X119350000Y-105380000D02*
X119675199Y-105380000D01*
D34*
G36*
X107823000Y-74930000D02*
G01*
X107825440Y-74954776D01*
X107832667Y-74978601D01*
X107844403Y-75000557D01*
X107860197Y-75019803D01*
X124153394Y-91313000D01*
X121923001Y-91313000D01*
X106170000Y-75560000D01*
X106170000Y-74967333D01*
X106173677Y-74930000D01*
X106159003Y-74781014D01*
X106115546Y-74637753D01*
X106044974Y-74505724D01*
X105950001Y-74389999D01*
X105834276Y-74295026D01*
X105702247Y-74224454D01*
X105558986Y-74180997D01*
X105447333Y-74170000D01*
X105410000Y-74166323D01*
X105372667Y-74170000D01*
X101307909Y-74170000D01*
X101225799Y-74047114D01*
X101032886Y-73854201D01*
X100806043Y-73702629D01*
X100553989Y-73598225D01*
X100286411Y-73545000D01*
X100013589Y-73545000D01*
X99746011Y-73598225D01*
X99493957Y-73702629D01*
X99267114Y-73854201D01*
X99074201Y-74047114D01*
X98922629Y-74273957D01*
X98818225Y-74526011D01*
X98765000Y-74793589D01*
X98765000Y-75066411D01*
X98818225Y-75333989D01*
X98922629Y-75586043D01*
X99074201Y-75812886D01*
X99267114Y-76005799D01*
X99493957Y-76157371D01*
X99746011Y-76261775D01*
X100013589Y-76315000D01*
X100286411Y-76315000D01*
X100553989Y-76261775D01*
X100806043Y-76157371D01*
X101032886Y-76005799D01*
X101225799Y-75812886D01*
X101307909Y-75690000D01*
X104650001Y-75690000D01*
X104650001Y-75837469D01*
X104646324Y-75874801D01*
X104660998Y-76023786D01*
X104704454Y-76167047D01*
X104775026Y-76299077D01*
X104846201Y-76385803D01*
X104870000Y-76414802D01*
X104898998Y-76438600D01*
X105170398Y-76710000D01*
X98104803Y-76710000D01*
X96606167Y-75211365D01*
X96635000Y-75066411D01*
X96635000Y-74793589D01*
X96581775Y-74526011D01*
X96477371Y-74273957D01*
X96325799Y-74047114D01*
X96132886Y-73854201D01*
X95906043Y-73702629D01*
X95653989Y-73598225D01*
X95386411Y-73545000D01*
X95113589Y-73545000D01*
X94846011Y-73598225D01*
X94593957Y-73702629D01*
X94367114Y-73854201D01*
X94174201Y-74047114D01*
X94022629Y-74273957D01*
X93918225Y-74526011D01*
X93865000Y-74793589D01*
X93865000Y-75066411D01*
X93918225Y-75333989D01*
X94022629Y-75586043D01*
X94174201Y-75812886D01*
X94367114Y-76005799D01*
X94593957Y-76157371D01*
X94846011Y-76261775D01*
X95113589Y-76315000D01*
X95386411Y-76315000D01*
X95531365Y-76286167D01*
X97226205Y-77981008D01*
X97249999Y-78010001D01*
X97278992Y-78033795D01*
X97278996Y-78033799D01*
X97335568Y-78080226D01*
X97365724Y-78104974D01*
X97497753Y-78175546D01*
X97641014Y-78219003D01*
X97752667Y-78230000D01*
X97752676Y-78230000D01*
X97789999Y-78233676D01*
X97827322Y-78230000D01*
X105095199Y-78230000D01*
X118178198Y-91313000D01*
X115622606Y-91313000D01*
X104229803Y-79920197D01*
X104210557Y-79904403D01*
X104188601Y-79892667D01*
X104164776Y-79885440D01*
X104140000Y-79883000D01*
X89027000Y-79883000D01*
X89027000Y-69977000D01*
X107823000Y-69977000D01*
X107823000Y-74930000D01*
X107823000Y-74930000D01*
G37*
X107823000Y-74930000D02*
X107825440Y-74954776D01*
X107832667Y-74978601D01*
X107844403Y-75000557D01*
X107860197Y-75019803D01*
X124153394Y-91313000D01*
X121923001Y-91313000D01*
X106170000Y-75560000D01*
X106170000Y-74967333D01*
X106173677Y-74930000D01*
X106159003Y-74781014D01*
X106115546Y-74637753D01*
X106044974Y-74505724D01*
X105950001Y-74389999D01*
X105834276Y-74295026D01*
X105702247Y-74224454D01*
X105558986Y-74180997D01*
X105447333Y-74170000D01*
X105410000Y-74166323D01*
X105372667Y-74170000D01*
X101307909Y-74170000D01*
X101225799Y-74047114D01*
X101032886Y-73854201D01*
X100806043Y-73702629D01*
X100553989Y-73598225D01*
X100286411Y-73545000D01*
X100013589Y-73545000D01*
X99746011Y-73598225D01*
X99493957Y-73702629D01*
X99267114Y-73854201D01*
X99074201Y-74047114D01*
X98922629Y-74273957D01*
X98818225Y-74526011D01*
X98765000Y-74793589D01*
X98765000Y-75066411D01*
X98818225Y-75333989D01*
X98922629Y-75586043D01*
X99074201Y-75812886D01*
X99267114Y-76005799D01*
X99493957Y-76157371D01*
X99746011Y-76261775D01*
X100013589Y-76315000D01*
X100286411Y-76315000D01*
X100553989Y-76261775D01*
X100806043Y-76157371D01*
X101032886Y-76005799D01*
X101225799Y-75812886D01*
X101307909Y-75690000D01*
X104650001Y-75690000D01*
X104650001Y-75837469D01*
X104646324Y-75874801D01*
X104660998Y-76023786D01*
X104704454Y-76167047D01*
X104775026Y-76299077D01*
X104846201Y-76385803D01*
X104870000Y-76414802D01*
X104898998Y-76438600D01*
X105170398Y-76710000D01*
X98104803Y-76710000D01*
X96606167Y-75211365D01*
X96635000Y-75066411D01*
X96635000Y-74793589D01*
X96581775Y-74526011D01*
X96477371Y-74273957D01*
X96325799Y-74047114D01*
X96132886Y-73854201D01*
X95906043Y-73702629D01*
X95653989Y-73598225D01*
X95386411Y-73545000D01*
X95113589Y-73545000D01*
X94846011Y-73598225D01*
X94593957Y-73702629D01*
X94367114Y-73854201D01*
X94174201Y-74047114D01*
X94022629Y-74273957D01*
X93918225Y-74526011D01*
X93865000Y-74793589D01*
X93865000Y-75066411D01*
X93918225Y-75333989D01*
X94022629Y-75586043D01*
X94174201Y-75812886D01*
X94367114Y-76005799D01*
X94593957Y-76157371D01*
X94846011Y-76261775D01*
X95113589Y-76315000D01*
X95386411Y-76315000D01*
X95531365Y-76286167D01*
X97226205Y-77981008D01*
X97249999Y-78010001D01*
X97278992Y-78033795D01*
X97278996Y-78033799D01*
X97335568Y-78080226D01*
X97365724Y-78104974D01*
X97497753Y-78175546D01*
X97641014Y-78219003D01*
X97752667Y-78230000D01*
X97752676Y-78230000D01*
X97789999Y-78233676D01*
X97827322Y-78230000D01*
X105095199Y-78230000D01*
X118178198Y-91313000D01*
X115622606Y-91313000D01*
X104229803Y-79920197D01*
X104210557Y-79904403D01*
X104188601Y-79892667D01*
X104164776Y-79885440D01*
X104140000Y-79883000D01*
X89027000Y-79883000D01*
X89027000Y-69977000D01*
X107823000Y-69977000D01*
X107823000Y-74930000D01*
M02*
