G04 #@! TF.GenerationSoftware,KiCad,Pcbnew,(5.1.2-1)-1*
G04 #@! TF.CreationDate,2021-12-03T18:04:06-05:00*
G04 #@! TF.ProjectId,TMP76C75T,544d5037-3643-4373-9554-2e6b69636164,rev?*
G04 #@! TF.SameCoordinates,Original*
G04 #@! TF.FileFunction,Legend,Bot*
G04 #@! TF.FilePolarity,Positive*
%FSLAX46Y46*%
G04 Gerber Fmt 4.6, Leading zero omitted, Abs format (unit mm)*
G04 Created by KiCad (PCBNEW (5.1.2-1)-1) date 2021-12-03 18:04:06*
%MOMM*%
%LPD*%
G04 APERTURE LIST*
%ADD10C,0.120000*%
%ADD11C,0.150000*%
G04 APERTURE END LIST*
D10*
X127112631Y-107010000D02*
X128707369Y-107010000D01*
X127112631Y-111430000D02*
X128707369Y-111430000D01*
X126267936Y-103230000D02*
X127472064Y-103230000D01*
X126267936Y-105050000D02*
X127472064Y-105050000D01*
D11*
X128552857Y-113387142D02*
X128600476Y-113434761D01*
X128743333Y-113482380D01*
X128838571Y-113482380D01*
X128981428Y-113434761D01*
X129076666Y-113339523D01*
X129124285Y-113244285D01*
X129171904Y-113053809D01*
X129171904Y-112910952D01*
X129124285Y-112720476D01*
X129076666Y-112625238D01*
X128981428Y-112530000D01*
X128838571Y-112482380D01*
X128743333Y-112482380D01*
X128600476Y-112530000D01*
X128552857Y-112577619D01*
X127600476Y-113482380D02*
X128171904Y-113482380D01*
X127886190Y-113482380D02*
X127886190Y-112482380D01*
X127981428Y-112625238D01*
X128076666Y-112720476D01*
X128171904Y-112768095D01*
X126695714Y-112482380D02*
X127171904Y-112482380D01*
X127219523Y-112958571D01*
X127171904Y-112910952D01*
X127076666Y-112863333D01*
X126838571Y-112863333D01*
X126743333Y-112910952D01*
X126695714Y-112958571D01*
X126648095Y-113053809D01*
X126648095Y-113291904D01*
X126695714Y-113387142D01*
X126743333Y-113434761D01*
X126838571Y-113482380D01*
X127076666Y-113482380D01*
X127171904Y-113434761D01*
X127219523Y-113387142D01*
X127512857Y-106317142D02*
X127560476Y-106364761D01*
X127703333Y-106412380D01*
X127798571Y-106412380D01*
X127941428Y-106364761D01*
X128036666Y-106269523D01*
X128084285Y-106174285D01*
X128131904Y-105983809D01*
X128131904Y-105840952D01*
X128084285Y-105650476D01*
X128036666Y-105555238D01*
X127941428Y-105460000D01*
X127798571Y-105412380D01*
X127703333Y-105412380D01*
X127560476Y-105460000D01*
X127512857Y-105507619D01*
X126560476Y-106412380D02*
X127131904Y-106412380D01*
X126846190Y-106412380D02*
X126846190Y-105412380D01*
X126941428Y-105555238D01*
X127036666Y-105650476D01*
X127131904Y-105698095D01*
X125703333Y-105745714D02*
X125703333Y-106412380D01*
X125941428Y-105364761D02*
X126179523Y-106079047D01*
X125560476Y-106079047D01*
M02*
