M48
; DRILL file {KiCad (5.1.2-1)-1} date Friday, December 03, 2021 at 06:04:23 PM
; FORMAT={-:-/ absolute / inch / decimal}
; #@! TF.CreationDate,2021-12-03T18:04:23-05:00
; #@! TF.GenerationSoftware,Kicad,Pcbnew,(5.1.2-1)-1
; #@! TF.FileFunction,Plated,1,2,PTH
FMAT,2
INCH
T1C0.0157
T2C0.0315
T3C0.0354
T4C0.0394
T5C0.0433
T6C0.0591
T7C0.0669
%
G90
G05
T1
X3.35Y-3.65
X3.35Y-3.8
X3.4Y-2.2
X3.4Y-2.65
X3.4Y-3.1
X3.4Y-3.8
X3.45Y-2.15
X3.55Y-2.8
X3.55Y-3.1
X3.6Y-2.85
X3.6Y-3.05
X3.6Y-5.55
X3.6Y-5.6
X3.65Y-2.15
X4.05Y-2.1
X4.05Y-2.15
X4.05Y-5.6
X4.1Y-3.0
X4.1Y-3.1
X4.15Y-2.85
X4.2Y-2.8
X4.25Y-2.15
X4.55Y-3.55
X4.6Y-2.15
X4.7Y-3.3
X4.8Y-3.2
X4.8Y-3.55
X4.8Y-5.6
X4.85Y-3.35
X4.9Y-3.1
X4.9116Y-4.0384
X4.95Y-3.25
X5.0Y-3.0
X5.05Y-3.15
X5.1Y-2.9
X5.1116Y-4.0384
X5.15Y-3.05
X5.2451Y-4.2549
X5.3Y-2.95
X5.75Y-5.6
X5.8Y-2.65
X5.8157Y-4.3843
X5.85Y-3.0
X5.85Y-3.05
X5.85Y-3.1
X5.85Y-3.15
X5.85Y-3.2
X5.85Y-3.25
X5.85Y-3.3
X5.85Y-3.35
X5.9Y-2.1
X6.05Y-3.6
X6.1Y-3.7
X6.1Y-5.6
X6.15Y-3.9
X6.15Y-5.55
X6.15Y-5.6
X6.2Y-3.8
X6.25Y-4.0
X6.4Y-2.6
X6.45Y-2.55
X6.45Y-3.6
X6.5Y-2.5
X6.55Y-2.45
X6.6Y-2.4
X6.65Y-2.35
X6.688Y-2.312
X6.8Y-2.2
X6.85Y-3.6
X6.9Y-4.5
X6.9Y-4.75
X6.9Y-5.05
X6.95Y-4.45
X6.95Y-4.75
X6.95Y-5.05
X7.0Y-4.05
X7.0Y-4.2
X7.3Y-2.1
X7.3Y-2.15
X7.45Y-2.1
X7.85Y-3.25
T2
X4.7116Y-3.9488
X4.7116Y-4.0488
X4.7116Y-4.1488
X4.7116Y-4.2488
X4.7116Y-4.3488
X4.7116Y-4.4488
X4.7116Y-4.5488
X4.7116Y-4.6488
X4.7116Y-4.7488
X4.8116Y-3.8488
X4.8116Y-3.9488
X4.8116Y-4.0488
X4.8116Y-4.1488
X4.8116Y-4.2488
X4.8116Y-4.3488
X4.8116Y-4.4488
X4.8116Y-4.5488
X4.8116Y-4.6488
X4.8116Y-4.7488
X4.8116Y-4.8488
X4.9116Y-3.8488
X4.9116Y-3.9488
X4.9116Y-4.7488
X4.9116Y-4.8488
X5.0116Y-3.8488
X5.0116Y-3.9488
X5.0116Y-4.7488
X5.0116Y-4.8488
X5.1116Y-3.8488
X5.1116Y-3.9488
X5.1116Y-4.7488
X5.1116Y-4.8488
X5.2116Y-3.8488
X5.2116Y-3.9488
X5.2116Y-4.7488
X5.2116Y-4.8488
X5.3116Y-3.8488
X5.3116Y-3.9488
X5.3116Y-4.7488
X5.3116Y-4.8488
X5.4116Y-3.8488
X5.4116Y-3.9488
X5.4116Y-4.7488
X5.4116Y-4.8488
X5.5116Y-3.8488
X5.5116Y-3.9488
X5.5116Y-4.7488
X5.5116Y-4.8488
X5.6116Y-3.8488
X5.6116Y-3.9488
X5.6116Y-4.0488
X5.6116Y-4.1488
X5.6116Y-4.2488
X5.6116Y-4.3488
X5.6116Y-4.4488
X5.6116Y-4.5488
X5.6116Y-4.6488
X5.6116Y-4.7488
X5.6116Y-4.8488
X5.7116Y-3.9488
X5.7116Y-4.0488
X5.7116Y-4.1488
X5.7116Y-4.2488
X5.7116Y-4.3488
X5.7116Y-4.4488
X5.7116Y-4.5488
X5.7116Y-4.6488
X5.7116Y-4.7488
X3.65Y-4.7
X3.65Y-4.7984
X3.65Y-3.8
X3.65Y-3.9
X3.65Y-4.0
X3.95Y-3.8
X3.95Y-3.9
X3.95Y-4.0
X4.6Y-2.25
X4.6Y-2.85
X4.7Y-2.25
X4.7Y-2.85
X4.8Y-2.25
X4.8Y-2.85
X4.9Y-2.25
X4.9Y-2.85
X5.0Y-2.25
X5.0Y-2.85
X5.1Y-2.25
X5.1Y-2.85
X5.2Y-2.25
X5.2Y-2.85
X5.3Y-2.25
X5.3Y-2.85
X5.4Y-2.25
X5.4Y-2.85
X5.5Y-2.25
X5.5Y-2.85
X5.6Y-2.25
X5.6Y-2.85
X5.7Y-2.25
X5.7Y-2.85
X5.8Y-2.25
X5.8Y-2.85
X5.9Y-2.25
X5.9Y-2.85
X3.75Y-2.95
X3.9429Y-2.95
X5.95Y-4.45
X5.95Y-4.55
X5.95Y-4.65
X5.95Y-4.75
X5.95Y-4.85
X5.95Y-4.95
X5.95Y-5.05
X5.95Y-5.15
X5.95Y-5.25
X4.2Y-5.15
X4.3Y-5.15
X4.4Y-5.15
X4.5Y-5.15
X4.6Y-5.15
X4.7Y-5.15
X4.8Y-5.15
X6.55Y-2.85
X6.55Y-2.95
X6.55Y-3.05
X6.55Y-3.15
X6.55Y-3.25
X6.55Y-3.35
X6.65Y-2.75
X6.65Y-2.85
X6.65Y-2.95
X6.65Y-3.05
X6.65Y-3.15
X6.65Y-3.25
X6.65Y-3.35
X6.65Y-3.45
X6.75Y-2.75
X6.75Y-2.85
X6.75Y-3.35
X6.75Y-3.45
X6.85Y-2.75
X6.85Y-2.85
X6.85Y-3.35
X6.85Y-3.45
X6.95Y-2.75
X6.95Y-2.85
X6.95Y-3.35
X6.95Y-3.45
X7.05Y-2.75
X7.05Y-2.85
X7.05Y-3.35
X7.05Y-3.45
X7.15Y-2.75
X7.15Y-2.85
X7.15Y-2.95
X7.15Y-3.05
X7.15Y-3.15
X7.15Y-3.25
X7.15Y-3.35
X7.15Y-3.45
X7.25Y-2.85
X7.25Y-2.95
X7.25Y-3.05
X7.25Y-3.15
X7.25Y-3.25
X7.25Y-3.35
X7.45Y-2.25
X7.45Y-2.35
X7.45Y-2.45
X7.45Y-2.55
X7.45Y-2.65
X7.45Y-2.75
X7.45Y-2.85
X7.45Y-2.95
X7.45Y-3.05
X6.9016Y-4.3
X7.0Y-4.3
X4.5Y-4.2
X4.5Y-4.3
X4.5Y-4.4
X4.5Y-4.5
X4.5Y-4.6
X4.5Y-4.7
X4.5Y-4.8
X4.5Y-4.9
X4.5Y-5.0
X5.95Y-3.5
X5.95Y-3.6
X5.95Y-3.7
X5.95Y-3.8
X5.95Y-3.9
X5.95Y-4.0
X5.95Y-4.1
X5.95Y-4.2
X5.95Y-4.3
X4.5Y-3.65
X4.5Y-3.75
X4.5Y-3.85
X4.5Y-3.95
X4.5Y-4.05
X4.95Y-3.65
X5.05Y-3.65
X5.15Y-3.65
X5.25Y-3.65
X5.35Y-3.65
X5.45Y-3.65
X5.55Y-3.65
X5.65Y-3.65
X5.75Y-3.65
X4.95Y-5.15
X5.05Y-5.15
X5.15Y-5.15
X5.25Y-5.15
X5.35Y-5.15
X5.45Y-5.15
X5.55Y-5.15
X5.65Y-5.15
X5.75Y-5.15
X7.45Y-3.25
X7.45Y-3.35
X7.45Y-3.45
X7.45Y-3.55
X7.45Y-3.65
X7.45Y-3.75
X7.45Y-3.85
X7.45Y-3.95
X7.45Y-4.05
T3
X3.5Y-4.4
X3.9Y-4.4
X3.5Y-4.25
X3.9Y-4.25
X3.5Y-4.55
X3.9Y-4.55
T4
X5.95Y-5.45
X6.05Y-5.45
X7.65Y-2.35
X7.65Y-2.45
X7.65Y-2.55
X7.65Y-2.65
X7.65Y-2.75
X7.65Y-2.85
X7.65Y-2.95
X7.65Y-3.05
X6.4Y-4.45
X6.4Y-4.55
X4.05Y-4.2
X4.05Y-4.3
X4.05Y-4.4
X4.05Y-4.5
X4.05Y-4.6
X4.05Y-4.7
X4.05Y-4.8
X4.05Y-4.9
X4.85Y-3.45
X4.95Y-3.45
X5.05Y-3.45
X5.15Y-3.45
X5.25Y-3.45
X5.35Y-3.45
X5.45Y-3.45
X5.55Y-3.45
X7.65Y-3.35
X7.65Y-3.45
X7.65Y-3.55
X7.65Y-3.65
X7.65Y-3.75
X7.65Y-3.85
X7.65Y-3.95
X7.65Y-4.05
X4.3Y-3.65
X4.3Y-3.75
X4.3Y-3.85
X4.3Y-3.95
X4.3Y-4.05
X4.3Y-4.15
X4.3Y-4.25
X6.2Y-4.55
X6.2Y-4.65
X6.2Y-4.75
X6.2Y-4.85
X6.2Y-4.95
X6.2Y-5.05
X6.2Y-5.15
X6.2Y-5.25
X4.95Y-5.4
X5.05Y-5.4
X5.15Y-5.4
X5.25Y-5.4
X5.35Y-5.4
X5.45Y-5.4
X5.55Y-5.4
X5.65Y-5.4
X4.2Y-5.4
X4.3Y-5.4
X4.4Y-5.4
X4.5Y-5.4
X4.6Y-5.4
X4.7Y-5.4
X6.05Y-2.25
X6.15Y-2.25
X6.25Y-2.25
X6.35Y-2.25
X6.45Y-2.25
X6.55Y-2.25
X6.65Y-2.25
X6.75Y-2.25
X6.3Y-3.6
X6.3Y-3.7
X6.3Y-3.8
X6.3Y-3.9
X6.3Y-4.0
X6.3Y-4.1
X6.3Y-4.2
X6.3Y-4.3
T5
X6.7Y-4.45
X6.7Y-4.55
X6.7Y-4.65
X3.55Y-3.2728
X3.55Y-3.45
X3.8059Y-3.2728
X3.8059Y-3.45
T6
X3.8Y-2.4
T7
X3.7Y-2.3
X3.7Y-2.5
X3.9Y-2.3
X3.9Y-2.5
T4
G00X6.4228Y-5.3961
M15
G01X6.4228Y-5.4551
M16
G05
G00X6.5606Y-5.15
M15
G01X6.6394Y-5.15
M16
G05
G00X6.5744Y-5.3862
M15
G01X6.6256Y-5.3862
M16
G05
G00X6.7772Y-5.3961
M15
G01X6.7772Y-5.4551
M16
G05
T0
M30
