G04 #@! TF.GenerationSoftware,KiCad,Pcbnew,(5.1.2-1)-1*
G04 #@! TF.CreationDate,2021-12-03T18:04:06-05:00*
G04 #@! TF.ProjectId,TMP76C75T,544d5037-3643-4373-9554-2e6b69636164,rev?*
G04 #@! TF.SameCoordinates,Original*
G04 #@! TF.FileFunction,Paste,Bot*
G04 #@! TF.FilePolarity,Positive*
%FSLAX46Y46*%
G04 Gerber Fmt 4.6, Leading zero omitted, Abs format (unit mm)*
G04 Created by KiCad (PCBNEW (5.1.2-1)-1) date 2021-12-03 18:04:06*
%MOMM*%
%LPD*%
G04 APERTURE LIST*
%ADD10C,0.100000*%
%ADD11C,3.025000*%
%ADD12C,1.250000*%
G04 APERTURE END LIST*
D10*
G36*
X131709503Y-106996204D02*
G01*
X131733772Y-106999804D01*
X131757570Y-107005765D01*
X131780670Y-107014030D01*
X131802849Y-107024520D01*
X131823892Y-107037133D01*
X131843598Y-107051748D01*
X131861776Y-107068224D01*
X131878252Y-107086402D01*
X131892867Y-107106108D01*
X131905480Y-107127151D01*
X131915970Y-107149330D01*
X131924235Y-107172430D01*
X131930196Y-107196228D01*
X131933796Y-107220497D01*
X131935000Y-107245001D01*
X131935000Y-111194999D01*
X131933796Y-111219503D01*
X131930196Y-111243772D01*
X131924235Y-111267570D01*
X131915970Y-111290670D01*
X131905480Y-111312849D01*
X131892867Y-111333892D01*
X131878252Y-111353598D01*
X131861776Y-111371776D01*
X131843598Y-111388252D01*
X131823892Y-111402867D01*
X131802849Y-111415480D01*
X131780670Y-111425970D01*
X131757570Y-111434235D01*
X131733772Y-111440196D01*
X131709503Y-111443796D01*
X131684999Y-111445000D01*
X129160001Y-111445000D01*
X129135497Y-111443796D01*
X129111228Y-111440196D01*
X129087430Y-111434235D01*
X129064330Y-111425970D01*
X129042151Y-111415480D01*
X129021108Y-111402867D01*
X129001402Y-111388252D01*
X128983224Y-111371776D01*
X128966748Y-111353598D01*
X128952133Y-111333892D01*
X128939520Y-111312849D01*
X128929030Y-111290670D01*
X128920765Y-111267570D01*
X128914804Y-111243772D01*
X128911204Y-111219503D01*
X128910000Y-111194999D01*
X128910000Y-107245001D01*
X128911204Y-107220497D01*
X128914804Y-107196228D01*
X128920765Y-107172430D01*
X128929030Y-107149330D01*
X128939520Y-107127151D01*
X128952133Y-107106108D01*
X128966748Y-107086402D01*
X128983224Y-107068224D01*
X129001402Y-107051748D01*
X129021108Y-107037133D01*
X129042151Y-107024520D01*
X129064330Y-107014030D01*
X129087430Y-107005765D01*
X129111228Y-106999804D01*
X129135497Y-106996204D01*
X129160001Y-106995000D01*
X131684999Y-106995000D01*
X131709503Y-106996204D01*
X131709503Y-106996204D01*
G37*
D11*
X130422500Y-109220000D03*
D10*
G36*
X126684503Y-106996204D02*
G01*
X126708772Y-106999804D01*
X126732570Y-107005765D01*
X126755670Y-107014030D01*
X126777849Y-107024520D01*
X126798892Y-107037133D01*
X126818598Y-107051748D01*
X126836776Y-107068224D01*
X126853252Y-107086402D01*
X126867867Y-107106108D01*
X126880480Y-107127151D01*
X126890970Y-107149330D01*
X126899235Y-107172430D01*
X126905196Y-107196228D01*
X126908796Y-107220497D01*
X126910000Y-107245001D01*
X126910000Y-111194999D01*
X126908796Y-111219503D01*
X126905196Y-111243772D01*
X126899235Y-111267570D01*
X126890970Y-111290670D01*
X126880480Y-111312849D01*
X126867867Y-111333892D01*
X126853252Y-111353598D01*
X126836776Y-111371776D01*
X126818598Y-111388252D01*
X126798892Y-111402867D01*
X126777849Y-111415480D01*
X126755670Y-111425970D01*
X126732570Y-111434235D01*
X126708772Y-111440196D01*
X126684503Y-111443796D01*
X126659999Y-111445000D01*
X124135001Y-111445000D01*
X124110497Y-111443796D01*
X124086228Y-111440196D01*
X124062430Y-111434235D01*
X124039330Y-111425970D01*
X124017151Y-111415480D01*
X123996108Y-111402867D01*
X123976402Y-111388252D01*
X123958224Y-111371776D01*
X123941748Y-111353598D01*
X123927133Y-111333892D01*
X123914520Y-111312849D01*
X123904030Y-111290670D01*
X123895765Y-111267570D01*
X123889804Y-111243772D01*
X123886204Y-111219503D01*
X123885000Y-111194999D01*
X123885000Y-107245001D01*
X123886204Y-107220497D01*
X123889804Y-107196228D01*
X123895765Y-107172430D01*
X123904030Y-107149330D01*
X123914520Y-107127151D01*
X123927133Y-107106108D01*
X123941748Y-107086402D01*
X123958224Y-107068224D01*
X123976402Y-107051748D01*
X123996108Y-107037133D01*
X124017151Y-107024520D01*
X124039330Y-107014030D01*
X124062430Y-107005765D01*
X124086228Y-106999804D01*
X124110497Y-106996204D01*
X124135001Y-106995000D01*
X126659999Y-106995000D01*
X126684503Y-106996204D01*
X126684503Y-106996204D01*
G37*
D11*
X125397500Y-109220000D03*
D10*
G36*
X128669504Y-103266204D02*
G01*
X128693773Y-103269804D01*
X128717571Y-103275765D01*
X128740671Y-103284030D01*
X128762849Y-103294520D01*
X128783893Y-103307133D01*
X128803598Y-103321747D01*
X128821777Y-103338223D01*
X128838253Y-103356402D01*
X128852867Y-103376107D01*
X128865480Y-103397151D01*
X128875970Y-103419329D01*
X128884235Y-103442429D01*
X128890196Y-103466227D01*
X128893796Y-103490496D01*
X128895000Y-103515000D01*
X128895000Y-104765000D01*
X128893796Y-104789504D01*
X128890196Y-104813773D01*
X128884235Y-104837571D01*
X128875970Y-104860671D01*
X128865480Y-104882849D01*
X128852867Y-104903893D01*
X128838253Y-104923598D01*
X128821777Y-104941777D01*
X128803598Y-104958253D01*
X128783893Y-104972867D01*
X128762849Y-104985480D01*
X128740671Y-104995970D01*
X128717571Y-105004235D01*
X128693773Y-105010196D01*
X128669504Y-105013796D01*
X128645000Y-105015000D01*
X127895000Y-105015000D01*
X127870496Y-105013796D01*
X127846227Y-105010196D01*
X127822429Y-105004235D01*
X127799329Y-104995970D01*
X127777151Y-104985480D01*
X127756107Y-104972867D01*
X127736402Y-104958253D01*
X127718223Y-104941777D01*
X127701747Y-104923598D01*
X127687133Y-104903893D01*
X127674520Y-104882849D01*
X127664030Y-104860671D01*
X127655765Y-104837571D01*
X127649804Y-104813773D01*
X127646204Y-104789504D01*
X127645000Y-104765000D01*
X127645000Y-103515000D01*
X127646204Y-103490496D01*
X127649804Y-103466227D01*
X127655765Y-103442429D01*
X127664030Y-103419329D01*
X127674520Y-103397151D01*
X127687133Y-103376107D01*
X127701747Y-103356402D01*
X127718223Y-103338223D01*
X127736402Y-103321747D01*
X127756107Y-103307133D01*
X127777151Y-103294520D01*
X127799329Y-103284030D01*
X127822429Y-103275765D01*
X127846227Y-103269804D01*
X127870496Y-103266204D01*
X127895000Y-103265000D01*
X128645000Y-103265000D01*
X128669504Y-103266204D01*
X128669504Y-103266204D01*
G37*
D12*
X128270000Y-104140000D03*
D10*
G36*
X125869504Y-103266204D02*
G01*
X125893773Y-103269804D01*
X125917571Y-103275765D01*
X125940671Y-103284030D01*
X125962849Y-103294520D01*
X125983893Y-103307133D01*
X126003598Y-103321747D01*
X126021777Y-103338223D01*
X126038253Y-103356402D01*
X126052867Y-103376107D01*
X126065480Y-103397151D01*
X126075970Y-103419329D01*
X126084235Y-103442429D01*
X126090196Y-103466227D01*
X126093796Y-103490496D01*
X126095000Y-103515000D01*
X126095000Y-104765000D01*
X126093796Y-104789504D01*
X126090196Y-104813773D01*
X126084235Y-104837571D01*
X126075970Y-104860671D01*
X126065480Y-104882849D01*
X126052867Y-104903893D01*
X126038253Y-104923598D01*
X126021777Y-104941777D01*
X126003598Y-104958253D01*
X125983893Y-104972867D01*
X125962849Y-104985480D01*
X125940671Y-104995970D01*
X125917571Y-105004235D01*
X125893773Y-105010196D01*
X125869504Y-105013796D01*
X125845000Y-105015000D01*
X125095000Y-105015000D01*
X125070496Y-105013796D01*
X125046227Y-105010196D01*
X125022429Y-105004235D01*
X124999329Y-104995970D01*
X124977151Y-104985480D01*
X124956107Y-104972867D01*
X124936402Y-104958253D01*
X124918223Y-104941777D01*
X124901747Y-104923598D01*
X124887133Y-104903893D01*
X124874520Y-104882849D01*
X124864030Y-104860671D01*
X124855765Y-104837571D01*
X124849804Y-104813773D01*
X124846204Y-104789504D01*
X124845000Y-104765000D01*
X124845000Y-103515000D01*
X124846204Y-103490496D01*
X124849804Y-103466227D01*
X124855765Y-103442429D01*
X124864030Y-103419329D01*
X124874520Y-103397151D01*
X124887133Y-103376107D01*
X124901747Y-103356402D01*
X124918223Y-103338223D01*
X124936402Y-103321747D01*
X124956107Y-103307133D01*
X124977151Y-103294520D01*
X124999329Y-103284030D01*
X125022429Y-103275765D01*
X125046227Y-103269804D01*
X125070496Y-103266204D01*
X125095000Y-103265000D01*
X125845000Y-103265000D01*
X125869504Y-103266204D01*
X125869504Y-103266204D01*
G37*
D12*
X125470000Y-104140000D03*
M02*
